G04 #@! TF.GenerationSoftware,KiCad,Pcbnew,5.0.0-fee4fd1~65~ubuntu17.10.1*
G04 #@! TF.CreationDate,2018-12-28T17:30:30-05:00*
G04 #@! TF.ProjectId,resetter,72657365747465722E6B696361645F70,rev?*
G04 #@! TF.SameCoordinates,Original*
G04 #@! TF.FileFunction,Legend,Top*
G04 #@! TF.FilePolarity,Positive*
%FSLAX46Y46*%
G04 Gerber Fmt 4.6, Leading zero omitted, Abs format (unit mm)*
G04 Created by KiCad (PCBNEW 5.0.0-fee4fd1~65~ubuntu17.10.1) date Fri Dec 28 17:30:30 2018*
%MOMM*%
%LPD*%
G01*
G04 APERTURE LIST*
%ADD10C,0.120000*%
%ADD11C,0.150000*%
G04 APERTURE END LIST*
D10*
G04 #@! TO.C,J1*
X30540000Y-41970000D02*
X29210000Y-41970000D01*
X30540000Y-40640000D02*
X30540000Y-41970000D01*
X30540000Y-39370000D02*
X27880000Y-39370000D01*
X27880000Y-39370000D02*
X27880000Y-36770000D01*
X30540000Y-39370000D02*
X30540000Y-36770000D01*
X30540000Y-36770000D02*
X27880000Y-36770000D01*
G04 #@! TO.C,J2*
X27880000Y-48200000D02*
X29210000Y-48200000D01*
X27880000Y-49530000D02*
X27880000Y-48200000D01*
X27880000Y-50800000D02*
X30540000Y-50800000D01*
X30540000Y-50800000D02*
X30540000Y-50860000D01*
X27880000Y-50800000D02*
X27880000Y-50860000D01*
X27880000Y-50860000D02*
X30540000Y-50860000D01*
G04 #@! TO.C,J3*
X72450000Y-40580000D02*
X69790000Y-40580000D01*
X72450000Y-43180000D02*
X72450000Y-40580000D01*
X69790000Y-43180000D02*
X69790000Y-40580000D01*
X72450000Y-43180000D02*
X69790000Y-43180000D01*
X72450000Y-44450000D02*
X72450000Y-45780000D01*
X72450000Y-45780000D02*
X71120000Y-45780000D01*
G04 #@! TO.C,J4*
X30540000Y-29270000D02*
X29210000Y-29270000D01*
X30540000Y-27940000D02*
X30540000Y-29270000D01*
X30540000Y-26670000D02*
X27880000Y-26670000D01*
X27880000Y-26670000D02*
X27880000Y-24070000D01*
X30540000Y-26670000D02*
X30540000Y-24070000D01*
X30540000Y-24070000D02*
X27880000Y-24070000D01*
G04 #@! TO.C,Q1*
X57851522Y-45151522D02*
G75*
G03X59690000Y-49590000I1838478J-1838478D01*
G01*
X61528478Y-45151522D02*
G75*
G02X59690000Y-49590000I-1838478J-1838478D01*
G01*
X61490000Y-45140000D02*
X57890000Y-45140000D01*
G04 #@! TO.C,Q2*
X56461000Y-32940000D02*
X56461000Y-34450000D01*
X52760000Y-32940000D02*
X52760000Y-34450000D01*
X49490000Y-34450000D02*
X59730000Y-34450000D01*
X59730000Y-32940000D02*
X59730000Y-37581000D01*
X49490000Y-32940000D02*
X49490000Y-37581000D01*
X49490000Y-37581000D02*
X59730000Y-37581000D01*
X49490000Y-32940000D02*
X59730000Y-32940000D01*
G04 #@! TO.C,Q3*
X62190000Y-32940000D02*
X72430000Y-32940000D01*
X62190000Y-37581000D02*
X72430000Y-37581000D01*
X62190000Y-32940000D02*
X62190000Y-37581000D01*
X72430000Y-32940000D02*
X72430000Y-37581000D01*
X62190000Y-34450000D02*
X72430000Y-34450000D01*
X65460000Y-32940000D02*
X65460000Y-34450000D01*
X69161000Y-32940000D02*
X69161000Y-34450000D01*
G04 #@! TO.C,R1*
X48860000Y-53300000D02*
X48860000Y-53630000D01*
X55280000Y-53300000D02*
X48860000Y-53300000D01*
X55280000Y-53630000D02*
X55280000Y-53300000D01*
X48860000Y-55920000D02*
X48860000Y-55590000D01*
X55280000Y-55920000D02*
X48860000Y-55920000D01*
X55280000Y-55590000D02*
X55280000Y-55920000D01*
G04 #@! TO.C,R2*
X49240000Y-41240000D02*
X49570000Y-41240000D01*
X49570000Y-41240000D02*
X49570000Y-47660000D01*
X49570000Y-47660000D02*
X49240000Y-47660000D01*
X47280000Y-41240000D02*
X46950000Y-41240000D01*
X46950000Y-41240000D02*
X46950000Y-47660000D01*
X46950000Y-47660000D02*
X47280000Y-47660000D01*
G04 #@! TO.C,U1*
X40580000Y-27880000D02*
X41910000Y-27880000D01*
X40580000Y-29210000D02*
X40580000Y-27880000D01*
X40580000Y-30480000D02*
X43240000Y-30480000D01*
X43240000Y-30480000D02*
X43240000Y-35620000D01*
X40580000Y-30480000D02*
X40580000Y-35620000D01*
X40580000Y-35620000D02*
X43240000Y-35620000D01*
G04 #@! TO.C,U2*
X40580000Y-43120000D02*
X41910000Y-43120000D01*
X40580000Y-44450000D02*
X40580000Y-43120000D01*
X40580000Y-45720000D02*
X43240000Y-45720000D01*
X43240000Y-45720000D02*
X43240000Y-55940000D01*
X40580000Y-45720000D02*
X40580000Y-55940000D01*
X40580000Y-55940000D02*
X43240000Y-55940000D01*
G04 #@! TO.C,J1*
D11*
X28876666Y-42422380D02*
X28876666Y-43136666D01*
X28829047Y-43279523D01*
X28733809Y-43374761D01*
X28590952Y-43422380D01*
X28495714Y-43422380D01*
X29876666Y-43422380D02*
X29305238Y-43422380D01*
X29590952Y-43422380D02*
X29590952Y-42422380D01*
X29495714Y-42565238D01*
X29400476Y-42660476D01*
X29305238Y-42708095D01*
G04 #@! TO.C,J2*
X28876666Y-46652380D02*
X28876666Y-47366666D01*
X28829047Y-47509523D01*
X28733809Y-47604761D01*
X28590952Y-47652380D01*
X28495714Y-47652380D01*
X29305238Y-46747619D02*
X29352857Y-46700000D01*
X29448095Y-46652380D01*
X29686190Y-46652380D01*
X29781428Y-46700000D01*
X29829047Y-46747619D01*
X29876666Y-46842857D01*
X29876666Y-46938095D01*
X29829047Y-47080952D01*
X29257619Y-47652380D01*
X29876666Y-47652380D01*
G04 #@! TO.C,J3*
X70786666Y-46232380D02*
X70786666Y-46946666D01*
X70739047Y-47089523D01*
X70643809Y-47184761D01*
X70500952Y-47232380D01*
X70405714Y-47232380D01*
X71167619Y-46232380D02*
X71786666Y-46232380D01*
X71453333Y-46613333D01*
X71596190Y-46613333D01*
X71691428Y-46660952D01*
X71739047Y-46708571D01*
X71786666Y-46803809D01*
X71786666Y-47041904D01*
X71739047Y-47137142D01*
X71691428Y-47184761D01*
X71596190Y-47232380D01*
X71310476Y-47232380D01*
X71215238Y-47184761D01*
X71167619Y-47137142D01*
G04 #@! TO.C,J4*
X28876666Y-29722380D02*
X28876666Y-30436666D01*
X28829047Y-30579523D01*
X28733809Y-30674761D01*
X28590952Y-30722380D01*
X28495714Y-30722380D01*
X29781428Y-30055714D02*
X29781428Y-30722380D01*
X29543333Y-29674761D02*
X29305238Y-30389047D01*
X29924285Y-30389047D01*
G04 #@! TO.C,Q1*
X59594761Y-51097619D02*
X59499523Y-51050000D01*
X59404285Y-50954761D01*
X59261428Y-50811904D01*
X59166190Y-50764285D01*
X59070952Y-50764285D01*
X59118571Y-51002380D02*
X59023333Y-50954761D01*
X58928095Y-50859523D01*
X58880476Y-50669047D01*
X58880476Y-50335714D01*
X58928095Y-50145238D01*
X59023333Y-50050000D01*
X59118571Y-50002380D01*
X59309047Y-50002380D01*
X59404285Y-50050000D01*
X59499523Y-50145238D01*
X59547142Y-50335714D01*
X59547142Y-50669047D01*
X59499523Y-50859523D01*
X59404285Y-50954761D01*
X59309047Y-51002380D01*
X59118571Y-51002380D01*
X60499523Y-51002380D02*
X59928095Y-51002380D01*
X60213809Y-51002380D02*
X60213809Y-50002380D01*
X60118571Y-50145238D01*
X60023333Y-50240476D01*
X59928095Y-50288095D01*
G04 #@! TO.C,Q2*
X54514761Y-32487619D02*
X54419523Y-32440000D01*
X54324285Y-32344761D01*
X54181428Y-32201904D01*
X54086190Y-32154285D01*
X53990952Y-32154285D01*
X54038571Y-32392380D02*
X53943333Y-32344761D01*
X53848095Y-32249523D01*
X53800476Y-32059047D01*
X53800476Y-31725714D01*
X53848095Y-31535238D01*
X53943333Y-31440000D01*
X54038571Y-31392380D01*
X54229047Y-31392380D01*
X54324285Y-31440000D01*
X54419523Y-31535238D01*
X54467142Y-31725714D01*
X54467142Y-32059047D01*
X54419523Y-32249523D01*
X54324285Y-32344761D01*
X54229047Y-32392380D01*
X54038571Y-32392380D01*
X54848095Y-31487619D02*
X54895714Y-31440000D01*
X54990952Y-31392380D01*
X55229047Y-31392380D01*
X55324285Y-31440000D01*
X55371904Y-31487619D01*
X55419523Y-31582857D01*
X55419523Y-31678095D01*
X55371904Y-31820952D01*
X54800476Y-32392380D01*
X55419523Y-32392380D01*
G04 #@! TO.C,Q3*
X67214761Y-32487619D02*
X67119523Y-32440000D01*
X67024285Y-32344761D01*
X66881428Y-32201904D01*
X66786190Y-32154285D01*
X66690952Y-32154285D01*
X66738571Y-32392380D02*
X66643333Y-32344761D01*
X66548095Y-32249523D01*
X66500476Y-32059047D01*
X66500476Y-31725714D01*
X66548095Y-31535238D01*
X66643333Y-31440000D01*
X66738571Y-31392380D01*
X66929047Y-31392380D01*
X67024285Y-31440000D01*
X67119523Y-31535238D01*
X67167142Y-31725714D01*
X67167142Y-32059047D01*
X67119523Y-32249523D01*
X67024285Y-32344761D01*
X66929047Y-32392380D01*
X66738571Y-32392380D01*
X67500476Y-31392380D02*
X68119523Y-31392380D01*
X67786190Y-31773333D01*
X67929047Y-31773333D01*
X68024285Y-31820952D01*
X68071904Y-31868571D01*
X68119523Y-31963809D01*
X68119523Y-32201904D01*
X68071904Y-32297142D01*
X68024285Y-32344761D01*
X67929047Y-32392380D01*
X67643333Y-32392380D01*
X67548095Y-32344761D01*
X67500476Y-32297142D01*
G04 #@! TO.C,R1*
X51903333Y-57372380D02*
X51570000Y-56896190D01*
X51331904Y-57372380D02*
X51331904Y-56372380D01*
X51712857Y-56372380D01*
X51808095Y-56420000D01*
X51855714Y-56467619D01*
X51903333Y-56562857D01*
X51903333Y-56705714D01*
X51855714Y-56800952D01*
X51808095Y-56848571D01*
X51712857Y-56896190D01*
X51331904Y-56896190D01*
X52855714Y-57372380D02*
X52284285Y-57372380D01*
X52570000Y-57372380D02*
X52570000Y-56372380D01*
X52474761Y-56515238D01*
X52379523Y-56610476D01*
X52284285Y-56658095D01*
G04 #@! TO.C,R2*
X51022380Y-44616666D02*
X50546190Y-44950000D01*
X51022380Y-45188095D02*
X50022380Y-45188095D01*
X50022380Y-44807142D01*
X50070000Y-44711904D01*
X50117619Y-44664285D01*
X50212857Y-44616666D01*
X50355714Y-44616666D01*
X50450952Y-44664285D01*
X50498571Y-44711904D01*
X50546190Y-44807142D01*
X50546190Y-45188095D01*
X50117619Y-44235714D02*
X50070000Y-44188095D01*
X50022380Y-44092857D01*
X50022380Y-43854761D01*
X50070000Y-43759523D01*
X50117619Y-43711904D01*
X50212857Y-43664285D01*
X50308095Y-43664285D01*
X50450952Y-43711904D01*
X51022380Y-44283333D01*
X51022380Y-43664285D01*
G04 #@! TO.C,U1*
X41148095Y-26332380D02*
X41148095Y-27141904D01*
X41195714Y-27237142D01*
X41243333Y-27284761D01*
X41338571Y-27332380D01*
X41529047Y-27332380D01*
X41624285Y-27284761D01*
X41671904Y-27237142D01*
X41719523Y-27141904D01*
X41719523Y-26332380D01*
X42719523Y-27332380D02*
X42148095Y-27332380D01*
X42433809Y-27332380D02*
X42433809Y-26332380D01*
X42338571Y-26475238D01*
X42243333Y-26570476D01*
X42148095Y-26618095D01*
G04 #@! TO.C,U2*
X41148095Y-41572380D02*
X41148095Y-42381904D01*
X41195714Y-42477142D01*
X41243333Y-42524761D01*
X41338571Y-42572380D01*
X41529047Y-42572380D01*
X41624285Y-42524761D01*
X41671904Y-42477142D01*
X41719523Y-42381904D01*
X41719523Y-41572380D01*
X42148095Y-41667619D02*
X42195714Y-41620000D01*
X42290952Y-41572380D01*
X42529047Y-41572380D01*
X42624285Y-41620000D01*
X42671904Y-41667619D01*
X42719523Y-41762857D01*
X42719523Y-41858095D01*
X42671904Y-42000952D01*
X42100476Y-42572380D01*
X42719523Y-42572380D01*
G04 #@! TD*
M02*
