M48
;DRILL file {KiCad 5.0.0-fee4fd1~65~ubuntu17.10.1} date Fri Dec 28 17:30:39 2018
;FORMAT={-:-/ absolute / inch / decimal}
FMAT,2
INCH,TZ
T1C0.0236
T2C0.0315
T3C0.0394
%
G90
G05
M72
T1
X2.3Y-1.85
X2.35Y-1.9
X2.4Y-1.85
T2
X1.9Y-2.15
X2.2Y-2.15
X1.9Y-1.6
X1.9Y-1.9
T3
X2.8Y-1.65
X2.8Y-1.75
X2.05Y-1.4
X2.15Y-1.4
X2.25Y-1.4
X1.15Y-1.
X1.15Y-1.1
X1.65Y-1.15
X1.65Y-1.25
X1.65Y-1.35
X1.65Y-1.75
X1.65Y-1.85
X1.65Y-1.95
X1.65Y-2.05
X1.65Y-2.15
X1.15Y-1.95
X1.15Y-1.5
X1.15Y-1.6
X2.55Y-1.4
X2.65Y-1.4
X2.75Y-1.4
T0
M30
