  0
SECTION
  2
HEADER
  9
$ANGBASE
  50
0.0
  9
$ANGDIR
  70
  1
  9
$MEASUREMENT
  70
0
  0
ENDSEC
  0
SECTION
  2
TABLES
  0
TABLE
  2
LTYPE
  70
4
  0
LTYPE
  5
40F
  2
CONTINUOUS
  70
0
  3
Solid line
  72
65
  73
0
  40
0.0
  0
LTYPE
  5
410
  2
DASHDOT
 70
0
  3
Dash Dot ____ _ ____ _
 72
65
 73
4
 40
2.0
 49
1.25
 49
-0.25
 49
0.25
 49
-0.25
  0
LTYPE
  5
411
  2
DASHED
 70
0
  3
Dashed __ __ __ __ __
 72
65
 73
2
 40
0.75
 49
0.5
 49
-0.25
  0
LTYPE
  5
43B
  2
DOTTED
 70
0
  3
Dotted .  .  .  .
 72
65
 73
2
 40
0.2
 49
0.0
 49
-0.2
  0
ENDTAB
  0
TABLE
  2
STYLE
  70
4
  0
STYLE
  2
KICAD
  70
0
  40
0
  41
1
  42
1
  50
0
  71
0
  3
isocp.shx
  0
STYLE
  2
KICADB
  70
0
  40
0
  41
1
  42
1
  50
0
  71
0
  3
isocp.shx
  0
STYLE
  2
KICADI
  70
0
  40
0
  41
1
  42
1
  50
15
  71
0
  3
isocp.shx
  0
STYLE
  2
KICADBI
  70
0
  40
0
  41
1
  42
1
  50
15
  71
0
  3
isocp.shx
  0
ENDTAB
  0
TABLE
  2
LAYER
  70
30
  0
LAYER
  2
BLACK
  70
0
  62
7
  6
CONTINUOUS
  0
LAYER
  2
GRAY1
  70
0
  62
251
  6
CONTINUOUS
  0
LAYER
  2
GRAY2
  70
0
  62
8
  6
CONTINUOUS
  0
LAYER
  2
GRAY3
  70
0
  62
9
  6
CONTINUOUS
  0
LAYER
  2
WHITE
  70
0
  62
7
  6
CONTINUOUS
  0
LAYER
  2
LYELLOW
  70
0
  62
51
  6
CONTINUOUS
  0
LAYER
  2
BLUE1
  70
0
  62
178
  6
CONTINUOUS
  0
LAYER
  2
GREEN1
  70
0
  62
98
  6
CONTINUOUS
  0
LAYER
  2
CYAN1
  70
0
  62
138
  6
CONTINUOUS
  0
LAYER
  2
RED1
  70
0
  62
18
  6
CONTINUOUS
  0
LAYER
  2
MAGENTA1
  70
0
  62
228
  6
CONTINUOUS
  0
LAYER
  2
BROWN1
  70
0
  62
58
  6
CONTINUOUS
  0
LAYER
  2
BLUE2
  70
0
  62
5
  6
CONTINUOUS
  0
LAYER
  2
GREEN2
  70
0
  62
3
  6
CONTINUOUS
  0
LAYER
  2
CYAN2
  70
0
  62
4
  6
CONTINUOUS
  0
LAYER
  2
RED2
  70
0
  62
1
  6
CONTINUOUS
  0
LAYER
  2
MAGENTA2
  70
0
  62
6
  6
CONTINUOUS
  0
LAYER
  2
BROWN2
  70
0
  62
54
  6
CONTINUOUS
  0
LAYER
  2
BLUE3
  70
0
  62
171
  6
CONTINUOUS
  0
LAYER
  2
GREEN3
  70
0
  62
91
  6
CONTINUOUS
  0
LAYER
  2
CYAN3
  70
0
  62
131
  6
CONTINUOUS
  0
LAYER
  2
RED3
  70
0
  62
11
  6
CONTINUOUS
  0
LAYER
  2
MAGENTA3
  70
0
  62
221
  6
CONTINUOUS
  0
LAYER
  2
YELLOW3
  70
0
  62
2
  6
CONTINUOUS
  0
LAYER
  2
BLUE4
  70
0
  62
5
  6
CONTINUOUS
  0
LAYER
  2
GREEN4
  70
0
  62
3
  6
CONTINUOUS
  0
LAYER
  2
CYAN4
  70
0
  62
4
  6
CONTINUOUS
  0
LAYER
  2
RED4
  70
0
  62
1
  6
CONTINUOUS
  0
LAYER
  2
MAGENTA4
  70
0
  62
6
  6
CONTINUOUS
  0
LAYER
  2
YELLOW4
  70
0
  62
2
  6
CONTINUOUS
  0
ENDTAB
  0
ENDSEC
  0
SECTION
  2
ENTITIES
0
LINE
8
BLACK
6
CONTINUOUS
10
46.5535
20
-65.6549
11
47.2865
21
-66.0781
0
LINE
8
BLACK
6
CONTINUOUS
10
47.2865
20
-66.0781
11
47.8305
21
-66.7265
0
LINE
8
BLACK
6
CONTINUOUS
10
47.8305
20
-66.7265
11
48.12
21
-67.5218
0
LINE
8
BLACK
6
CONTINUOUS
10
48.12
20
-67.5218
11
48.12
21
-68.3682
0
LINE
8
BLACK
6
CONTINUOUS
10
48.12
20
-68.3682
11
47.8305
21
-69.1635
0
LINE
8
BLACK
6
CONTINUOUS
10
47.8305
20
-69.1635
11
47.2865
21
-69.8119
0
LINE
8
BLACK
6
CONTINUOUS
10
47.2865
20
-69.8119
11
46.5535
21
-70.2351
0
LINE
8
BLACK
6
CONTINUOUS
10
46.5535
20
-70.2351
11
45.72
21
-70.382
0
LINE
8
BLACK
6
CONTINUOUS
10
45.72
20
-70.382
11
44.8865
21
-70.2351
0
LINE
8
BLACK
6
CONTINUOUS
10
44.8865
20
-70.2351
11
44.1535
21
-69.8119
0
LINE
8
BLACK
6
CONTINUOUS
10
44.1535
20
-69.8119
11
43.6095
21
-69.1635
0
LINE
8
BLACK
6
CONTINUOUS
10
43.6095
20
-69.1635
11
43.32
21
-68.3682
0
LINE
8
BLACK
6
CONTINUOUS
10
43.32
20
-68.3682
11
43.32
21
-67.5218
0
LINE
8
BLACK
6
CONTINUOUS
10
43.32
20
-67.5218
11
43.6095
21
-66.7265
0
LINE
8
BLACK
6
CONTINUOUS
10
43.6095
20
-66.7265
11
44.1535
21
-66.0781
0
LINE
8
BLACK
6
CONTINUOUS
10
44.1535
20
-66.0781
11
44.8865
21
-65.6549
0
LINE
8
BLACK
6
CONTINUOUS
10
44.8865
20
-65.6549
11
45.72
21
-65.508
0
LINE
8
BLACK
6
CONTINUOUS
10
45.72
20
-65.508
11
46.5535
21
-65.6549
0
LINE
8
BLACK
6
CONTINUOUS
10
97.3535
20
-65.6549
11
98.0865
21
-66.0781
0
LINE
8
BLACK
6
CONTINUOUS
10
98.0865
20
-66.0781
11
98.6305
21
-66.7265
0
LINE
8
BLACK
6
CONTINUOUS
10
98.6305
20
-66.7265
11
98.92
21
-67.5218
0
LINE
8
BLACK
6
CONTINUOUS
10
98.92
20
-67.5218
11
98.92
21
-68.3682
0
LINE
8
BLACK
6
CONTINUOUS
10
98.92
20
-68.3682
11
98.6305
21
-69.1635
0
LINE
8
BLACK
6
CONTINUOUS
10
98.6305
20
-69.1635
11
98.0865
21
-69.8119
0
LINE
8
BLACK
6
CONTINUOUS
10
98.0865
20
-69.8119
11
97.3535
21
-70.2351
0
LINE
8
BLACK
6
CONTINUOUS
10
97.3535
20
-70.2351
11
96.52
21
-70.382
0
LINE
8
BLACK
6
CONTINUOUS
10
96.52
20
-70.382
11
95.6865
21
-70.2351
0
LINE
8
BLACK
6
CONTINUOUS
10
95.6865
20
-70.2351
11
94.9535
21
-69.8119
0
LINE
8
BLACK
6
CONTINUOUS
10
94.9535
20
-69.8119
11
94.4095
21
-69.1635
0
LINE
8
BLACK
6
CONTINUOUS
10
94.4095
20
-69.1635
11
94.12
21
-68.3682
0
LINE
8
BLACK
6
CONTINUOUS
10
94.12
20
-68.3682
11
94.12
21
-67.5218
0
LINE
8
BLACK
6
CONTINUOUS
10
94.12
20
-67.5218
11
94.4095
21
-66.7265
0
LINE
8
BLACK
6
CONTINUOUS
10
94.4095
20
-66.7265
11
94.9535
21
-66.0781
0
LINE
8
BLACK
6
CONTINUOUS
10
94.9535
20
-66.0781
11
95.6865
21
-65.6549
0
LINE
8
BLACK
6
CONTINUOUS
10
95.6865
20
-65.6549
11
96.52
21
-65.508
0
LINE
8
BLACK
6
CONTINUOUS
10
96.52
20
-65.508
11
97.3535
21
-65.6549
0
LINE
8
BLACK
6
CONTINUOUS
10
69.5797
20
-61.5456
11
69.9003
21
-61.7307
0
LINE
8
BLACK
6
CONTINUOUS
10
69.9003
20
-61.7307
11
70.1384
21
-62.0144
0
LINE
8
BLACK
6
CONTINUOUS
10
70.1384
20
-62.0144
11
70.265
21
-62.3624
0
LINE
8
BLACK
6
CONTINUOUS
10
70.265
20
-62.3624
11
70.265
21
-62.7326
0
LINE
8
BLACK
6
CONTINUOUS
10
70.265
20
-62.7326
11
70.1384
21
-63.0806
0
LINE
8
BLACK
6
CONTINUOUS
10
70.1384
20
-63.0806
11
69.9003
21
-63.3643
0
LINE
8
BLACK
6
CONTINUOUS
10
69.9003
20
-63.3643
11
69.5797
21
-63.5494
0
LINE
8
BLACK
6
CONTINUOUS
10
69.5797
20
-63.5494
11
69.3069
21
-63.5975
0
LINE
8
BLACK
6
CONTINUOUS
10
69.3069
20
-63.5975
11
69.1231
21
-63.5975
0
LINE
8
BLACK
6
CONTINUOUS
10
69.1231
20
-63.5975
11
68.8503
21
-63.5494
0
LINE
8
BLACK
6
CONTINUOUS
10
68.8503
20
-63.5494
11
68.5297
21
-63.3643
0
LINE
8
BLACK
6
CONTINUOUS
10
68.5297
20
-63.3643
11
68.2916
21
-63.0806
0
LINE
8
BLACK
6
CONTINUOUS
10
68.2916
20
-63.0806
11
68.165
21
-62.7326
0
LINE
8
BLACK
6
CONTINUOUS
10
68.165
20
-62.7326
11
68.165
21
-62.3624
0
LINE
8
BLACK
6
CONTINUOUS
10
68.165
20
-62.3624
11
68.2916
21
-62.0144
0
LINE
8
BLACK
6
CONTINUOUS
10
68.2916
20
-62.0144
11
68.5297
21
-61.7307
0
LINE
8
BLACK
6
CONTINUOUS
10
68.5297
20
-61.7307
11
68.8503
21
-61.5456
0
LINE
8
BLACK
6
CONTINUOUS
10
68.8503
20
-61.5456
11
69.1231
21
-61.4975
0
LINE
8
BLACK
6
CONTINUOUS
10
69.1231
20
-61.4975
11
69.3069
21
-61.4975
0
LINE
8
BLACK
6
CONTINUOUS
10
69.3069
20
-61.4975
11
69.5797
21
-61.5456
0
LINE
8
BLACK
6
CONTINUOUS
10
83.5323
20
-61.5933
11
83.8377
21
-61.7696
0
LINE
8
BLACK
6
CONTINUOUS
10
83.8377
20
-61.7696
11
84.0644
21
-62.0398
0
LINE
8
BLACK
6
CONTINUOUS
10
84.0644
20
-62.0398
11
84.185
21
-62.3712
0
LINE
8
BLACK
6
CONTINUOUS
10
84.185
20
-62.3712
11
84.185
21
-62.7238
0
LINE
8
BLACK
6
CONTINUOUS
10
84.185
20
-62.7238
11
84.0644
21
-63.0552
0
LINE
8
BLACK
6
CONTINUOUS
10
84.0644
20
-63.0552
11
83.8377
21
-63.3254
0
LINE
8
BLACK
6
CONTINUOUS
10
83.8377
20
-63.3254
11
83.5323
21
-63.5017
0
LINE
8
BLACK
6
CONTINUOUS
10
83.5323
20
-63.5017
11
83.185
21
-63.5629
0
LINE
8
BLACK
6
CONTINUOUS
10
83.185
20
-63.5629
11
82.8377
21
-63.5017
0
LINE
8
BLACK
6
CONTINUOUS
10
82.8377
20
-63.5017
11
82.5323
21
-63.3254
0
LINE
8
BLACK
6
CONTINUOUS
10
82.5323
20
-63.3254
11
82.3056
21
-63.0552
0
LINE
8
BLACK
6
CONTINUOUS
10
82.3056
20
-63.0552
11
82.185
21
-62.7238
0
LINE
8
BLACK
6
CONTINUOUS
10
82.185
20
-62.7238
11
82.185
21
-62.3712
0
LINE
8
BLACK
6
CONTINUOUS
10
82.185
20
-62.3712
11
82.3056
21
-62.0398
0
LINE
8
BLACK
6
CONTINUOUS
10
82.3056
20
-62.0398
11
82.5323
21
-61.7696
0
LINE
8
BLACK
6
CONTINUOUS
10
82.5323
20
-61.7696
11
82.8377
21
-61.5933
0
LINE
8
BLACK
6
CONTINUOUS
10
82.8377
20
-61.5933
11
83.185
21
-61.5321
0
LINE
8
BLACK
6
CONTINUOUS
10
83.185
20
-61.5321
11
83.5323
21
-61.5933
0
LINE
8
BLACK
6
CONTINUOUS
10
75.9123
20
-61.5933
11
76.2177
21
-61.7696
0
LINE
8
BLACK
6
CONTINUOUS
10
76.2177
20
-61.7696
11
76.4444
21
-62.0398
0
LINE
8
BLACK
6
CONTINUOUS
10
76.4444
20
-62.0398
11
76.565
21
-62.3712
0
LINE
8
BLACK
6
CONTINUOUS
10
76.565
20
-62.3712
11
76.565
21
-62.7238
0
LINE
8
BLACK
6
CONTINUOUS
10
76.565
20
-62.7238
11
76.4444
21
-63.0552
0
LINE
8
BLACK
6
CONTINUOUS
10
76.4444
20
-63.0552
11
76.2177
21
-63.3254
0
LINE
8
BLACK
6
CONTINUOUS
10
76.2177
20
-63.3254
11
75.9123
21
-63.5017
0
LINE
8
BLACK
6
CONTINUOUS
10
75.9123
20
-63.5017
11
75.6525
21
-63.5475
0
LINE
8
BLACK
6
CONTINUOUS
10
75.6525
20
-63.5475
11
75.4775
21
-63.5475
0
LINE
8
BLACK
6
CONTINUOUS
10
75.4775
20
-63.5475
11
75.2177
21
-63.5017
0
LINE
8
BLACK
6
CONTINUOUS
10
75.2177
20
-63.5017
11
74.9123
21
-63.3254
0
LINE
8
BLACK
6
CONTINUOUS
10
74.9123
20
-63.3254
11
74.6856
21
-63.0552
0
LINE
8
BLACK
6
CONTINUOUS
10
74.6856
20
-63.0552
11
74.565
21
-62.7238
0
LINE
8
BLACK
6
CONTINUOUS
10
74.565
20
-62.7238
11
74.565
21
-62.3712
0
LINE
8
BLACK
6
CONTINUOUS
10
74.565
20
-62.3712
11
74.6856
21
-62.0398
0
LINE
8
BLACK
6
CONTINUOUS
10
74.6856
20
-62.0398
11
74.9123
21
-61.7696
0
LINE
8
BLACK
6
CONTINUOUS
10
74.9123
20
-61.7696
11
75.2177
21
-61.5933
0
LINE
8
BLACK
6
CONTINUOUS
10
75.2177
20
-61.5933
11
75.4775
21
-61.5475
0
LINE
8
BLACK
6
CONTINUOUS
10
75.4775
20
-61.5475
11
75.6525
21
-61.5475
0
LINE
8
BLACK
6
CONTINUOUS
10
75.6525
20
-61.5475
11
75.9123
21
-61.5933
0
LINE
8
BLACK
6
CONTINUOUS
10
69.5797
20
-59.0056
11
69.9003
21
-59.1907
0
LINE
8
BLACK
6
CONTINUOUS
10
69.9003
20
-59.1907
11
70.1384
21
-59.4744
0
LINE
8
BLACK
6
CONTINUOUS
10
70.1384
20
-59.4744
11
70.265
21
-59.8224
0
LINE
8
BLACK
6
CONTINUOUS
10
70.265
20
-59.8224
11
70.265
21
-60.1926
0
LINE
8
BLACK
6
CONTINUOUS
10
70.265
20
-60.1926
11
70.1384
21
-60.5406
0
LINE
8
BLACK
6
CONTINUOUS
10
70.1384
20
-60.5406
11
69.9003
21
-60.8243
0
LINE
8
BLACK
6
CONTINUOUS
10
69.9003
20
-60.8243
11
69.5797
21
-61.0094
0
LINE
8
BLACK
6
CONTINUOUS
10
69.5797
20
-61.0094
11
69.3069
21
-61.0575
0
LINE
8
BLACK
6
CONTINUOUS
10
69.3069
20
-61.0575
11
69.1231
21
-61.0575
0
LINE
8
BLACK
6
CONTINUOUS
10
69.1231
20
-61.0575
11
68.8503
21
-61.0094
0
LINE
8
BLACK
6
CONTINUOUS
10
68.8503
20
-61.0094
11
68.5297
21
-60.8243
0
LINE
8
BLACK
6
CONTINUOUS
10
68.5297
20
-60.8243
11
68.2916
21
-60.5406
0
LINE
8
BLACK
6
CONTINUOUS
10
68.2916
20
-60.5406
11
68.165
21
-60.1926
0
LINE
8
BLACK
6
CONTINUOUS
10
68.165
20
-60.1926
11
68.165
21
-59.8224
0
LINE
8
BLACK
6
CONTINUOUS
10
68.165
20
-59.8224
11
68.2916
21
-59.4744
0
LINE
8
BLACK
6
CONTINUOUS
10
68.2916
20
-59.4744
11
68.5297
21
-59.1907
0
LINE
8
BLACK
6
CONTINUOUS
10
68.5297
20
-59.1907
11
68.8503
21
-59.0056
0
LINE
8
BLACK
6
CONTINUOUS
10
68.8503
20
-59.0056
11
69.1231
21
-58.9575
0
LINE
8
BLACK
6
CONTINUOUS
10
69.1231
20
-58.9575
11
69.3069
21
-58.9575
0
LINE
8
BLACK
6
CONTINUOUS
10
69.3069
20
-58.9575
11
69.5797
21
-59.0056
0
LINE
8
BLACK
6
CONTINUOUS
10
57.565
20
-58.5175
11
55.465
21
-58.5175
0
LINE
8
BLACK
6
CONTINUOUS
10
55.465
20
-58.5175
11
55.465
21
-56.4175
0
LINE
8
BLACK
6
CONTINUOUS
10
55.465
20
-56.4175
11
57.565
21
-56.4175
0
LINE
8
BLACK
6
CONTINUOUS
10
57.565
20
-56.4175
11
57.565
21
-58.5175
0
LINE
8
BLACK
6
CONTINUOUS
10
69.5797
20
-56.4656
11
69.9003
21
-56.6507
0
LINE
8
BLACK
6
CONTINUOUS
10
69.9003
20
-56.6507
11
70.1384
21
-56.9344
0
LINE
8
BLACK
6
CONTINUOUS
10
70.1384
20
-56.9344
11
70.265
21
-57.2824
0
LINE
8
BLACK
6
CONTINUOUS
10
70.265
20
-57.2824
11
70.265
21
-57.6526
0
LINE
8
BLACK
6
CONTINUOUS
10
70.265
20
-57.6526
11
70.1384
21
-58.0006
0
LINE
8
BLACK
6
CONTINUOUS
10
70.1384
20
-58.0006
11
69.9003
21
-58.2843
0
LINE
8
BLACK
6
CONTINUOUS
10
69.9003
20
-58.2843
11
69.5797
21
-58.4694
0
LINE
8
BLACK
6
CONTINUOUS
10
69.5797
20
-58.4694
11
69.3069
21
-58.5175
0
LINE
8
BLACK
6
CONTINUOUS
10
69.3069
20
-58.5175
11
69.1231
21
-58.5175
0
LINE
8
BLACK
6
CONTINUOUS
10
69.1231
20
-58.5175
11
68.8503
21
-58.4694
0
LINE
8
BLACK
6
CONTINUOUS
10
68.8503
20
-58.4694
11
68.5297
21
-58.2843
0
LINE
8
BLACK
6
CONTINUOUS
10
68.5297
20
-58.2843
11
68.2916
21
-58.0006
0
LINE
8
BLACK
6
CONTINUOUS
10
68.2916
20
-58.0006
11
68.165
21
-57.6526
0
LINE
8
BLACK
6
CONTINUOUS
10
68.165
20
-57.6526
11
68.165
21
-57.2824
0
LINE
8
BLACK
6
CONTINUOUS
10
68.165
20
-57.2824
11
68.2916
21
-56.9344
0
LINE
8
BLACK
6
CONTINUOUS
10
68.2916
20
-56.9344
11
68.5297
21
-56.6507
0
LINE
8
BLACK
6
CONTINUOUS
10
68.5297
20
-56.6507
11
68.8503
21
-56.4656
0
LINE
8
BLACK
6
CONTINUOUS
10
68.8503
20
-56.4656
11
69.1231
21
-56.4175
0
LINE
8
BLACK
6
CONTINUOUS
10
69.1231
20
-56.4175
11
69.3069
21
-56.4175
0
LINE
8
BLACK
6
CONTINUOUS
10
69.3069
20
-56.4175
11
69.5797
21
-56.4656
0
LINE
8
BLACK
6
CONTINUOUS
10
75.9123
20
-55.2433
11
76.2177
21
-55.4196
0
LINE
8
BLACK
6
CONTINUOUS
10
76.2177
20
-55.4196
11
76.4444
21
-55.6898
0
LINE
8
BLACK
6
CONTINUOUS
10
76.4444
20
-55.6898
11
76.565
21
-56.0212
0
LINE
8
BLACK
6
CONTINUOUS
10
76.565
20
-56.0212
11
76.565
21
-56.3738
0
LINE
8
BLACK
6
CONTINUOUS
10
76.565
20
-56.3738
11
76.4444
21
-56.7052
0
LINE
8
BLACK
6
CONTINUOUS
10
76.4444
20
-56.7052
11
76.2177
21
-56.9754
0
LINE
8
BLACK
6
CONTINUOUS
10
76.2177
20
-56.9754
11
75.9123
21
-57.1517
0
LINE
8
BLACK
6
CONTINUOUS
10
75.9123
20
-57.1517
11
75.6525
21
-57.1975
0
LINE
8
BLACK
6
CONTINUOUS
10
75.6525
20
-57.1975
11
75.4775
21
-57.1975
0
LINE
8
BLACK
6
CONTINUOUS
10
75.4775
20
-57.1975
11
75.2177
21
-57.1517
0
LINE
8
BLACK
6
CONTINUOUS
10
75.2177
20
-57.1517
11
74.9123
21
-56.9754
0
LINE
8
BLACK
6
CONTINUOUS
10
74.9123
20
-56.9754
11
74.6856
21
-56.7052
0
LINE
8
BLACK
6
CONTINUOUS
10
74.6856
20
-56.7052
11
74.565
21
-56.3738
0
LINE
8
BLACK
6
CONTINUOUS
10
74.565
20
-56.3738
11
74.565
21
-56.0212
0
LINE
8
BLACK
6
CONTINUOUS
10
74.565
20
-56.0212
11
74.6856
21
-55.6898
0
LINE
8
BLACK
6
CONTINUOUS
10
74.6856
20
-55.6898
11
74.9123
21
-55.4196
0
LINE
8
BLACK
6
CONTINUOUS
10
74.9123
20
-55.4196
11
75.2177
21
-55.2433
0
LINE
8
BLACK
6
CONTINUOUS
10
75.2177
20
-55.2433
11
75.4775
21
-55.1975
0
LINE
8
BLACK
6
CONTINUOUS
10
75.4775
20
-55.1975
11
75.6525
21
-55.1975
0
LINE
8
BLACK
6
CONTINUOUS
10
75.6525
20
-55.1975
11
75.9123
21
-55.2433
0
LINE
8
BLACK
6
CONTINUOUS
10
69.5797
20
-53.9256
11
69.9003
21
-54.1107
0
LINE
8
BLACK
6
CONTINUOUS
10
69.9003
20
-54.1107
11
70.1384
21
-54.3944
0
LINE
8
BLACK
6
CONTINUOUS
10
70.1384
20
-54.3944
11
70.265
21
-54.7424
0
LINE
8
BLACK
6
CONTINUOUS
10
70.265
20
-54.7424
11
70.265
21
-55.1126
0
LINE
8
BLACK
6
CONTINUOUS
10
70.265
20
-55.1126
11
70.1384
21
-55.4606
0
LINE
8
BLACK
6
CONTINUOUS
10
70.1384
20
-55.4606
11
69.9003
21
-55.7443
0
LINE
8
BLACK
6
CONTINUOUS
10
69.9003
20
-55.7443
11
69.5797
21
-55.9294
0
LINE
8
BLACK
6
CONTINUOUS
10
69.5797
20
-55.9294
11
69.3069
21
-55.9775
0
LINE
8
BLACK
6
CONTINUOUS
10
69.3069
20
-55.9775
11
69.1231
21
-55.9775
0
LINE
8
BLACK
6
CONTINUOUS
10
69.1231
20
-55.9775
11
68.8503
21
-55.9294
0
LINE
8
BLACK
6
CONTINUOUS
10
68.8503
20
-55.9294
11
68.5297
21
-55.7443
0
LINE
8
BLACK
6
CONTINUOUS
10
68.5297
20
-55.7443
11
68.2916
21
-55.4606
0
LINE
8
BLACK
6
CONTINUOUS
10
68.2916
20
-55.4606
11
68.165
21
-55.1126
0
LINE
8
BLACK
6
CONTINUOUS
10
68.165
20
-55.1126
11
68.165
21
-54.7424
0
LINE
8
BLACK
6
CONTINUOUS
10
68.165
20
-54.7424
11
68.2916
21
-54.3944
0
LINE
8
BLACK
6
CONTINUOUS
10
68.2916
20
-54.3944
11
68.5297
21
-54.1107
0
LINE
8
BLACK
6
CONTINUOUS
10
68.5297
20
-54.1107
11
68.8503
21
-53.9256
0
LINE
8
BLACK
6
CONTINUOUS
10
68.8503
20
-53.9256
11
69.1231
21
-53.8775
0
LINE
8
BLACK
6
CONTINUOUS
10
69.1231
20
-53.8775
11
69.3069
21
-53.8775
0
LINE
8
BLACK
6
CONTINUOUS
10
69.3069
20
-53.8775
11
69.5797
21
-53.9256
0
LINE
8
BLACK
6
CONTINUOUS
10
87.3284
20
-54.0115
11
87.6216
21
-54.1808
0
LINE
8
BLACK
6
CONTINUOUS
10
87.6216
20
-54.1808
11
87.8392
21
-54.4401
0
LINE
8
BLACK
6
CONTINUOUS
10
87.8392
20
-54.4401
11
87.955
21
-54.7582
0
LINE
8
BLACK
6
CONTINUOUS
10
87.955
20
-54.7582
11
87.955
21
-55.0968
0
LINE
8
BLACK
6
CONTINUOUS
10
87.955
20
-55.0968
11
87.8392
21
-55.4149
0
LINE
8
BLACK
6
CONTINUOUS
10
87.8392
20
-55.4149
11
87.6216
21
-55.6742
0
LINE
8
BLACK
6
CONTINUOUS
10
87.6216
20
-55.6742
11
87.3284
21
-55.8435
0
LINE
8
BLACK
6
CONTINUOUS
10
87.3284
20
-55.8435
11
86.995
21
-55.9023
0
LINE
8
BLACK
6
CONTINUOUS
10
86.995
20
-55.9023
11
86.6616
21
-55.8435
0
LINE
8
BLACK
6
CONTINUOUS
10
86.6616
20
-55.8435
11
86.3684
21
-55.6742
0
LINE
8
BLACK
6
CONTINUOUS
10
86.3684
20
-55.6742
11
86.1508
21
-55.4149
0
LINE
8
BLACK
6
CONTINUOUS
10
86.1508
20
-55.4149
11
86.035
21
-55.0968
0
LINE
8
BLACK
6
CONTINUOUS
10
86.035
20
-55.0968
11
86.035
21
-54.7582
0
LINE
8
BLACK
6
CONTINUOUS
10
86.035
20
-54.7582
11
86.1508
21
-54.4401
0
LINE
8
BLACK
6
CONTINUOUS
10
86.1508
20
-54.4401
11
86.3684
21
-54.1808
0
LINE
8
BLACK
6
CONTINUOUS
10
86.3684
20
-54.1808
11
86.6616
21
-54.0115
0
LINE
8
BLACK
6
CONTINUOUS
10
86.6616
20
-54.0115
11
86.995
21
-53.9527
0
LINE
8
BLACK
6
CONTINUOUS
10
86.995
20
-53.9527
11
87.3284
21
-54.0115
0
LINE
8
BLACK
6
CONTINUOUS
10
84.7884
20
-54.0115
11
85.0816
21
-54.1808
0
LINE
8
BLACK
6
CONTINUOUS
10
85.0816
20
-54.1808
11
85.2992
21
-54.4401
0
LINE
8
BLACK
6
CONTINUOUS
10
85.2992
20
-54.4401
11
85.415
21
-54.7582
0
LINE
8
BLACK
6
CONTINUOUS
10
85.415
20
-54.7582
11
85.415
21
-55.0968
0
LINE
8
BLACK
6
CONTINUOUS
10
85.415
20
-55.0968
11
85.2992
21
-55.4149
0
LINE
8
BLACK
6
CONTINUOUS
10
85.2992
20
-55.4149
11
85.0816
21
-55.6742
0
LINE
8
BLACK
6
CONTINUOUS
10
85.0816
20
-55.6742
11
84.7884
21
-55.8435
0
LINE
8
BLACK
6
CONTINUOUS
10
84.7884
20
-55.8435
11
84.455
21
-55.9023
0
LINE
8
BLACK
6
CONTINUOUS
10
84.455
20
-55.9023
11
84.1216
21
-55.8435
0
LINE
8
BLACK
6
CONTINUOUS
10
84.1216
20
-55.8435
11
83.8284
21
-55.6742
0
LINE
8
BLACK
6
CONTINUOUS
10
83.8284
20
-55.6742
11
83.6108
21
-55.4149
0
LINE
8
BLACK
6
CONTINUOUS
10
83.6108
20
-55.4149
11
83.495
21
-55.0968
0
LINE
8
BLACK
6
CONTINUOUS
10
83.495
20
-55.0968
11
83.495
21
-54.7582
0
LINE
8
BLACK
6
CONTINUOUS
10
83.495
20
-54.7582
11
83.6108
21
-54.4401
0
LINE
8
BLACK
6
CONTINUOUS
10
83.6108
20
-54.4401
11
83.8284
21
-54.1808
0
LINE
8
BLACK
6
CONTINUOUS
10
83.8284
20
-54.1808
11
84.1216
21
-54.0115
0
LINE
8
BLACK
6
CONTINUOUS
10
84.1216
20
-54.0115
11
84.455
21
-53.9527
0
LINE
8
BLACK
6
CONTINUOUS
10
84.455
20
-53.9527
11
84.7884
21
-54.0115
0
LINE
8
BLACK
6
CONTINUOUS
10
90.495
20
-55.8875
11
88.575
21
-55.8875
0
LINE
8
BLACK
6
CONTINUOUS
10
88.575
20
-55.8875
11
88.575
21
-53.9675
0
LINE
8
BLACK
6
CONTINUOUS
10
88.575
20
-53.9675
11
90.495
21
-53.9675
0
LINE
8
BLACK
6
CONTINUOUS
10
90.495
20
-53.9675
11
90.495
21
-55.8875
0
LINE
8
BLACK
6
CONTINUOUS
10
99.475
20
-53.4375
11
97.375
21
-53.4375
0
LINE
8
BLACK
6
CONTINUOUS
10
97.375
20
-53.4375
11
97.375
21
-51.3375
0
LINE
8
BLACK
6
CONTINUOUS
10
97.375
20
-51.3375
11
99.475
21
-51.3375
0
LINE
8
BLACK
6
CONTINUOUS
10
99.475
20
-51.3375
11
99.475
21
-53.4375
0
LINE
8
BLACK
6
CONTINUOUS
10
70.265
20
-53.4375
11
68.165
21
-53.4375
0
LINE
8
BLACK
6
CONTINUOUS
10
68.165
20
-53.4375
11
68.165
21
-51.3375
0
LINE
8
BLACK
6
CONTINUOUS
10
68.165
20
-51.3375
11
70.265
21
-51.3375
0
LINE
8
BLACK
6
CONTINUOUS
10
70.265
20
-51.3375
11
70.265
21
-53.4375
0
LINE
8
BLACK
6
CONTINUOUS
10
98.7897
20
-48.8456
11
99.1103
21
-49.0307
0
LINE
8
BLACK
6
CONTINUOUS
10
99.1103
20
-49.0307
11
99.3484
21
-49.3144
0
LINE
8
BLACK
6
CONTINUOUS
10
99.3484
20
-49.3144
11
99.475
21
-49.6624
0
LINE
8
BLACK
6
CONTINUOUS
10
99.475
20
-49.6624
11
99.475
21
-50.0326
0
LINE
8
BLACK
6
CONTINUOUS
10
99.475
20
-50.0326
11
99.3484
21
-50.3806
0
LINE
8
BLACK
6
CONTINUOUS
10
99.3484
20
-50.3806
11
99.1103
21
-50.6643
0
LINE
8
BLACK
6
CONTINUOUS
10
99.1103
20
-50.6643
11
98.7897
21
-50.8494
0
LINE
8
BLACK
6
CONTINUOUS
10
98.7897
20
-50.8494
11
98.5169
21
-50.8975
0
LINE
8
BLACK
6
CONTINUOUS
10
98.5169
20
-50.8975
11
98.3331
21
-50.8975
0
LINE
8
BLACK
6
CONTINUOUS
10
98.3331
20
-50.8975
11
98.0603
21
-50.8494
0
LINE
8
BLACK
6
CONTINUOUS
10
98.0603
20
-50.8494
11
97.7397
21
-50.6643
0
LINE
8
BLACK
6
CONTINUOUS
10
97.7397
20
-50.6643
11
97.5016
21
-50.3806
0
LINE
8
BLACK
6
CONTINUOUS
10
97.5016
20
-50.3806
11
97.375
21
-50.0326
0
LINE
8
BLACK
6
CONTINUOUS
10
97.375
20
-50.0326
11
97.375
21
-49.6624
0
LINE
8
BLACK
6
CONTINUOUS
10
97.375
20
-49.6624
11
97.5016
21
-49.3144
0
LINE
8
BLACK
6
CONTINUOUS
10
97.5016
20
-49.3144
11
97.7397
21
-49.0307
0
LINE
8
BLACK
6
CONTINUOUS
10
97.7397
20
-49.0307
11
98.0603
21
-48.8456
0
LINE
8
BLACK
6
CONTINUOUS
10
98.0603
20
-48.8456
11
98.3331
21
-48.7975
0
LINE
8
BLACK
6
CONTINUOUS
10
98.3331
20
-48.7975
11
98.5169
21
-48.7975
0
LINE
8
BLACK
6
CONTINUOUS
10
98.5169
20
-48.7975
11
98.7897
21
-48.8456
0
LINE
8
BLACK
6
CONTINUOUS
10
57.565
20
-49.6275
11
55.465
21
-49.6275
0
LINE
8
BLACK
6
CONTINUOUS
10
55.465
20
-49.6275
11
55.465
21
-47.5275
0
LINE
8
BLACK
6
CONTINUOUS
10
55.465
20
-47.5275
11
57.565
21
-47.5275
0
LINE
8
BLACK
6
CONTINUOUS
10
57.565
20
-47.5275
11
57.565
21
-49.6275
0
LINE
8
BLACK
6
CONTINUOUS
10
75.9123
20
-47.6233
11
76.2177
21
-47.7996
0
LINE
8
BLACK
6
CONTINUOUS
10
76.2177
20
-47.7996
11
76.4444
21
-48.0698
0
LINE
8
BLACK
6
CONTINUOUS
10
76.4444
20
-48.0698
11
76.565
21
-48.4012
0
LINE
8
BLACK
6
CONTINUOUS
10
76.565
20
-48.4012
11
76.565
21
-48.7538
0
LINE
8
BLACK
6
CONTINUOUS
10
76.565
20
-48.7538
11
76.4444
21
-49.0852
0
LINE
8
BLACK
6
CONTINUOUS
10
76.4444
20
-49.0852
11
76.2177
21
-49.3554
0
LINE
8
BLACK
6
CONTINUOUS
10
76.2177
20
-49.3554
11
75.9123
21
-49.5317
0
LINE
8
BLACK
6
CONTINUOUS
10
75.9123
20
-49.5317
11
75.565
21
-49.5929
0
LINE
8
BLACK
6
CONTINUOUS
10
75.565
20
-49.5929
11
75.2177
21
-49.5317
0
LINE
8
BLACK
6
CONTINUOUS
10
75.2177
20
-49.5317
11
74.9123
21
-49.3554
0
LINE
8
BLACK
6
CONTINUOUS
10
74.9123
20
-49.3554
11
74.6856
21
-49.0852
0
LINE
8
BLACK
6
CONTINUOUS
10
74.6856
20
-49.0852
11
74.565
21
-48.7538
0
LINE
8
BLACK
6
CONTINUOUS
10
74.565
20
-48.7538
11
74.565
21
-48.4012
0
LINE
8
BLACK
6
CONTINUOUS
10
74.565
20
-48.4012
11
74.6856
21
-48.0698
0
LINE
8
BLACK
6
CONTINUOUS
10
74.6856
20
-48.0698
11
74.9123
21
-47.7996
0
LINE
8
BLACK
6
CONTINUOUS
10
74.9123
20
-47.7996
11
75.2177
21
-47.6233
0
LINE
8
BLACK
6
CONTINUOUS
10
75.2177
20
-47.6233
11
75.565
21
-47.5621
0
LINE
8
BLACK
6
CONTINUOUS
10
75.565
20
-47.5621
11
75.9123
21
-47.6233
0
LINE
8
BLACK
6
CONTINUOUS
10
56.8797
20
-45.0356
11
57.2003
21
-45.2207
0
LINE
8
BLACK
6
CONTINUOUS
10
57.2003
20
-45.2207
11
57.4384
21
-45.5044
0
LINE
8
BLACK
6
CONTINUOUS
10
57.4384
20
-45.5044
11
57.565
21
-45.8524
0
LINE
8
BLACK
6
CONTINUOUS
10
57.565
20
-45.8524
11
57.565
21
-46.2226
0
LINE
8
BLACK
6
CONTINUOUS
10
57.565
20
-46.2226
11
57.4384
21
-46.5706
0
LINE
8
BLACK
6
CONTINUOUS
10
57.4384
20
-46.5706
11
57.2003
21
-46.8543
0
LINE
8
BLACK
6
CONTINUOUS
10
57.2003
20
-46.8543
11
56.8797
21
-47.0394
0
LINE
8
BLACK
6
CONTINUOUS
10
56.8797
20
-47.0394
11
56.6069
21
-47.0875
0
LINE
8
BLACK
6
CONTINUOUS
10
56.6069
20
-47.0875
11
56.4231
21
-47.0875
0
LINE
8
BLACK
6
CONTINUOUS
10
56.4231
20
-47.0875
11
56.1503
21
-47.0394
0
LINE
8
BLACK
6
CONTINUOUS
10
56.1503
20
-47.0394
11
55.8297
21
-46.8543
0
LINE
8
BLACK
6
CONTINUOUS
10
55.8297
20
-46.8543
11
55.5916
21
-46.5706
0
LINE
8
BLACK
6
CONTINUOUS
10
55.5916
20
-46.5706
11
55.465
21
-46.2226
0
LINE
8
BLACK
6
CONTINUOUS
10
55.465
20
-46.2226
11
55.465
21
-45.8524
0
LINE
8
BLACK
6
CONTINUOUS
10
55.465
20
-45.8524
11
55.5916
21
-45.5044
0
LINE
8
BLACK
6
CONTINUOUS
10
55.5916
20
-45.5044
11
55.8297
21
-45.2207
0
LINE
8
BLACK
6
CONTINUOUS
10
55.8297
20
-45.2207
11
56.1503
21
-45.0356
0
LINE
8
BLACK
6
CONTINUOUS
10
56.1503
20
-45.0356
11
56.4231
21
-44.9875
0
LINE
8
BLACK
6
CONTINUOUS
10
56.4231
20
-44.9875
11
56.6069
21
-44.9875
0
LINE
8
BLACK
6
CONTINUOUS
10
56.6069
20
-44.9875
11
56.8797
21
-45.0356
0
LINE
8
BLACK
6
CONTINUOUS
10
93.175
20
-44.5975
11
90.975
21
-44.5975
0
LINE
8
BLACK
6
CONTINUOUS
10
90.975
20
-44.5975
11
90.975
21
-42.3975
0
LINE
8
BLACK
6
CONTINUOUS
10
90.975
20
-42.3975
11
93.175
21
-42.3975
0
LINE
8
BLACK
6
CONTINUOUS
10
93.175
20
-42.3975
11
93.175
21
-44.5975
0
LINE
8
BLACK
6
CONTINUOUS
10
84.837
20
-42.4479
11
85.173
21
-42.6419
0
LINE
8
BLACK
6
CONTINUOUS
10
85.173
20
-42.6419
11
85.4223
21
-42.939
0
LINE
8
BLACK
6
CONTINUOUS
10
85.4223
20
-42.939
11
85.555
21
-43.3035
0
LINE
8
BLACK
6
CONTINUOUS
10
85.555
20
-43.3035
11
85.555
21
-43.6915
0
LINE
8
BLACK
6
CONTINUOUS
10
85.555
20
-43.6915
11
85.4223
21
-44.056
0
LINE
8
BLACK
6
CONTINUOUS
10
85.4223
20
-44.056
11
85.173
21
-44.3531
0
LINE
8
BLACK
6
CONTINUOUS
10
85.173
20
-44.3531
11
84.837
21
-44.5471
0
LINE
8
BLACK
6
CONTINUOUS
10
84.837
20
-44.5471
11
84.5512
21
-44.5975
0
LINE
8
BLACK
6
CONTINUOUS
10
84.5512
20
-44.5975
11
84.3588
21
-44.5975
0
LINE
8
BLACK
6
CONTINUOUS
10
84.3588
20
-44.5975
11
84.073
21
-44.5471
0
LINE
8
BLACK
6
CONTINUOUS
10
84.073
20
-44.5471
11
83.737
21
-44.3531
0
LINE
8
BLACK
6
CONTINUOUS
10
83.737
20
-44.3531
11
83.4877
21
-44.056
0
LINE
8
BLACK
6
CONTINUOUS
10
83.4877
20
-44.056
11
83.355
21
-43.6915
0
LINE
8
BLACK
6
CONTINUOUS
10
83.355
20
-43.6915
11
83.355
21
-43.3035
0
LINE
8
BLACK
6
CONTINUOUS
10
83.355
20
-43.3035
11
83.4877
21
-42.939
0
LINE
8
BLACK
6
CONTINUOUS
10
83.4877
20
-42.939
11
83.737
21
-42.6419
0
LINE
8
BLACK
6
CONTINUOUS
10
83.737
20
-42.6419
11
84.073
21
-42.4479
0
LINE
8
BLACK
6
CONTINUOUS
10
84.073
20
-42.4479
11
84.3588
21
-42.3975
0
LINE
8
BLACK
6
CONTINUOUS
10
84.3588
20
-42.3975
11
84.5512
21
-42.3975
0
LINE
8
BLACK
6
CONTINUOUS
10
84.5512
20
-42.3975
11
84.837
21
-42.4479
0
LINE
8
BLACK
6
CONTINUOUS
10
82.297
20
-42.4479
11
82.633
21
-42.6419
0
LINE
8
BLACK
6
CONTINUOUS
10
82.633
20
-42.6419
11
82.8823
21
-42.939
0
LINE
8
BLACK
6
CONTINUOUS
10
82.8823
20
-42.939
11
83.015
21
-43.3035
0
LINE
8
BLACK
6
CONTINUOUS
10
83.015
20
-43.3035
11
83.015
21
-43.6915
0
LINE
8
BLACK
6
CONTINUOUS
10
83.015
20
-43.6915
11
82.8823
21
-44.056
0
LINE
8
BLACK
6
CONTINUOUS
10
82.8823
20
-44.056
11
82.633
21
-44.3531
0
LINE
8
BLACK
6
CONTINUOUS
10
82.633
20
-44.3531
11
82.297
21
-44.5471
0
LINE
8
BLACK
6
CONTINUOUS
10
82.297
20
-44.5471
11
82.0112
21
-44.5975
0
LINE
8
BLACK
6
CONTINUOUS
10
82.0112
20
-44.5975
11
81.8188
21
-44.5975
0
LINE
8
BLACK
6
CONTINUOUS
10
81.8188
20
-44.5975
11
81.533
21
-44.5471
0
LINE
8
BLACK
6
CONTINUOUS
10
81.533
20
-44.5471
11
81.197
21
-44.3531
0
LINE
8
BLACK
6
CONTINUOUS
10
81.197
20
-44.3531
11
80.9477
21
-44.056
0
LINE
8
BLACK
6
CONTINUOUS
10
80.9477
20
-44.056
11
80.815
21
-43.6915
0
LINE
8
BLACK
6
CONTINUOUS
10
80.815
20
-43.6915
11
80.815
21
-43.3035
0
LINE
8
BLACK
6
CONTINUOUS
10
80.815
20
-43.3035
11
80.9477
21
-42.939
0
LINE
8
BLACK
6
CONTINUOUS
10
80.9477
20
-42.939
11
81.197
21
-42.6419
0
LINE
8
BLACK
6
CONTINUOUS
10
81.197
20
-42.6419
11
81.533
21
-42.4479
0
LINE
8
BLACK
6
CONTINUOUS
10
81.533
20
-42.4479
11
81.8188
21
-42.3975
0
LINE
8
BLACK
6
CONTINUOUS
10
81.8188
20
-42.3975
11
82.0112
21
-42.3975
0
LINE
8
BLACK
6
CONTINUOUS
10
82.0112
20
-42.3975
11
82.297
21
-42.4479
0
LINE
8
BLACK
6
CONTINUOUS
10
97.537
20
-42.4479
11
97.873
21
-42.6419
0
LINE
8
BLACK
6
CONTINUOUS
10
97.873
20
-42.6419
11
98.1223
21
-42.939
0
LINE
8
BLACK
6
CONTINUOUS
10
98.1223
20
-42.939
11
98.255
21
-43.3035
0
LINE
8
BLACK
6
CONTINUOUS
10
98.255
20
-43.3035
11
98.255
21
-43.6915
0
LINE
8
BLACK
6
CONTINUOUS
10
98.255
20
-43.6915
11
98.1223
21
-44.056
0
LINE
8
BLACK
6
CONTINUOUS
10
98.1223
20
-44.056
11
97.873
21
-44.3531
0
LINE
8
BLACK
6
CONTINUOUS
10
97.873
20
-44.3531
11
97.537
21
-44.5471
0
LINE
8
BLACK
6
CONTINUOUS
10
97.537
20
-44.5471
11
97.2512
21
-44.5975
0
LINE
8
BLACK
6
CONTINUOUS
10
97.2512
20
-44.5975
11
97.0588
21
-44.5975
0
LINE
8
BLACK
6
CONTINUOUS
10
97.0588
20
-44.5975
11
96.773
21
-44.5471
0
LINE
8
BLACK
6
CONTINUOUS
10
96.773
20
-44.5471
11
96.437
21
-44.3531
0
LINE
8
BLACK
6
CONTINUOUS
10
96.437
20
-44.3531
11
96.1877
21
-44.056
0
LINE
8
BLACK
6
CONTINUOUS
10
96.1877
20
-44.056
11
96.055
21
-43.6915
0
LINE
8
BLACK
6
CONTINUOUS
10
96.055
20
-43.6915
11
96.055
21
-43.3035
0
LINE
8
BLACK
6
CONTINUOUS
10
96.055
20
-43.3035
11
96.1877
21
-42.939
0
LINE
8
BLACK
6
CONTINUOUS
10
96.1877
20
-42.939
11
96.437
21
-42.6419
0
LINE
8
BLACK
6
CONTINUOUS
10
96.437
20
-42.6419
11
96.773
21
-42.4479
0
LINE
8
BLACK
6
CONTINUOUS
10
96.773
20
-42.4479
11
97.0588
21
-42.3975
0
LINE
8
BLACK
6
CONTINUOUS
10
97.0588
20
-42.3975
11
97.2512
21
-42.3975
0
LINE
8
BLACK
6
CONTINUOUS
10
97.2512
20
-42.3975
11
97.537
21
-42.4479
0
LINE
8
BLACK
6
CONTINUOUS
10
94.997
20
-42.4479
11
95.333
21
-42.6419
0
LINE
8
BLACK
6
CONTINUOUS
10
95.333
20
-42.6419
11
95.5823
21
-42.939
0
LINE
8
BLACK
6
CONTINUOUS
10
95.5823
20
-42.939
11
95.715
21
-43.3035
0
LINE
8
BLACK
6
CONTINUOUS
10
95.715
20
-43.3035
11
95.715
21
-43.6915
0
LINE
8
BLACK
6
CONTINUOUS
10
95.715
20
-43.6915
11
95.5823
21
-44.056
0
LINE
8
BLACK
6
CONTINUOUS
10
95.5823
20
-44.056
11
95.333
21
-44.3531
0
LINE
8
BLACK
6
CONTINUOUS
10
95.333
20
-44.3531
11
94.997
21
-44.5471
0
LINE
8
BLACK
6
CONTINUOUS
10
94.997
20
-44.5471
11
94.7112
21
-44.5975
0
LINE
8
BLACK
6
CONTINUOUS
10
94.7112
20
-44.5975
11
94.5188
21
-44.5975
0
LINE
8
BLACK
6
CONTINUOUS
10
94.5188
20
-44.5975
11
94.233
21
-44.5471
0
LINE
8
BLACK
6
CONTINUOUS
10
94.233
20
-44.5471
11
93.897
21
-44.3531
0
LINE
8
BLACK
6
CONTINUOUS
10
93.897
20
-44.3531
11
93.6477
21
-44.056
0
LINE
8
BLACK
6
CONTINUOUS
10
93.6477
20
-44.056
11
93.515
21
-43.6915
0
LINE
8
BLACK
6
CONTINUOUS
10
93.515
20
-43.6915
11
93.515
21
-43.3035
0
LINE
8
BLACK
6
CONTINUOUS
10
93.515
20
-43.3035
11
93.6477
21
-42.939
0
LINE
8
BLACK
6
CONTINUOUS
10
93.6477
20
-42.939
11
93.897
21
-42.6419
0
LINE
8
BLACK
6
CONTINUOUS
10
93.897
20
-42.6419
11
94.233
21
-42.4479
0
LINE
8
BLACK
6
CONTINUOUS
10
94.233
20
-42.4479
11
94.5188
21
-42.3975
0
LINE
8
BLACK
6
CONTINUOUS
10
94.5188
20
-42.3975
11
94.7112
21
-42.3975
0
LINE
8
BLACK
6
CONTINUOUS
10
94.7112
20
-42.3975
11
94.997
21
-42.4479
0
LINE
8
BLACK
6
CONTINUOUS
10
80.475
20
-44.5975
11
78.275
21
-44.5975
0
LINE
8
BLACK
6
CONTINUOUS
10
78.275
20
-44.5975
11
78.275
21
-42.3975
0
LINE
8
BLACK
6
CONTINUOUS
10
78.275
20
-42.3975
11
80.475
21
-42.3975
0
LINE
8
BLACK
6
CONTINUOUS
10
80.475
20
-42.3975
11
80.475
21
-44.5975
0
LINE
8
BLACK
6
CONTINUOUS
10
69.5797
20
-41.2256
11
69.9003
21
-41.4107
0
LINE
8
BLACK
6
CONTINUOUS
10
69.9003
20
-41.4107
11
70.1384
21
-41.6944
0
LINE
8
BLACK
6
CONTINUOUS
10
70.1384
20
-41.6944
11
70.265
21
-42.0424
0
LINE
8
BLACK
6
CONTINUOUS
10
70.265
20
-42.0424
11
70.265
21
-42.4126
0
LINE
8
BLACK
6
CONTINUOUS
10
70.265
20
-42.4126
11
70.1384
21
-42.7606
0
LINE
8
BLACK
6
CONTINUOUS
10
70.1384
20
-42.7606
11
69.9003
21
-43.0443
0
LINE
8
BLACK
6
CONTINUOUS
10
69.9003
20
-43.0443
11
69.5797
21
-43.2294
0
LINE
8
BLACK
6
CONTINUOUS
10
69.5797
20
-43.2294
11
69.3069
21
-43.2775
0
LINE
8
BLACK
6
CONTINUOUS
10
69.3069
20
-43.2775
11
69.1231
21
-43.2775
0
LINE
8
BLACK
6
CONTINUOUS
10
69.1231
20
-43.2775
11
68.8503
21
-43.2294
0
LINE
8
BLACK
6
CONTINUOUS
10
68.8503
20
-43.2294
11
68.5297
21
-43.0443
0
LINE
8
BLACK
6
CONTINUOUS
10
68.5297
20
-43.0443
11
68.2916
21
-42.7606
0
LINE
8
BLACK
6
CONTINUOUS
10
68.2916
20
-42.7606
11
68.165
21
-42.4126
0
LINE
8
BLACK
6
CONTINUOUS
10
68.165
20
-42.4126
11
68.165
21
-42.0424
0
LINE
8
BLACK
6
CONTINUOUS
10
68.165
20
-42.0424
11
68.2916
21
-41.6944
0
LINE
8
BLACK
6
CONTINUOUS
10
68.2916
20
-41.6944
11
68.5297
21
-41.4107
0
LINE
8
BLACK
6
CONTINUOUS
10
68.5297
20
-41.4107
11
68.8503
21
-41.2256
0
LINE
8
BLACK
6
CONTINUOUS
10
68.8503
20
-41.2256
11
69.1231
21
-41.1775
0
LINE
8
BLACK
6
CONTINUOUS
10
69.1231
20
-41.1775
11
69.3069
21
-41.1775
0
LINE
8
BLACK
6
CONTINUOUS
10
69.3069
20
-41.1775
11
69.5797
21
-41.2256
0
LINE
8
BLACK
6
CONTINUOUS
10
69.5797
20
-38.6856
11
69.9003
21
-38.8707
0
LINE
8
BLACK
6
CONTINUOUS
10
69.9003
20
-38.8707
11
70.1384
21
-39.1544
0
LINE
8
BLACK
6
CONTINUOUS
10
70.1384
20
-39.1544
11
70.265
21
-39.5024
0
LINE
8
BLACK
6
CONTINUOUS
10
70.265
20
-39.5024
11
70.265
21
-39.8726
0
LINE
8
BLACK
6
CONTINUOUS
10
70.265
20
-39.8726
11
70.1384
21
-40.2206
0
LINE
8
BLACK
6
CONTINUOUS
10
70.1384
20
-40.2206
11
69.9003
21
-40.5043
0
LINE
8
BLACK
6
CONTINUOUS
10
69.9003
20
-40.5043
11
69.5797
21
-40.6894
0
LINE
8
BLACK
6
CONTINUOUS
10
69.5797
20
-40.6894
11
69.3069
21
-40.7375
0
LINE
8
BLACK
6
CONTINUOUS
10
69.3069
20
-40.7375
11
69.1231
21
-40.7375
0
LINE
8
BLACK
6
CONTINUOUS
10
69.1231
20
-40.7375
11
68.8503
21
-40.6894
0
LINE
8
BLACK
6
CONTINUOUS
10
68.8503
20
-40.6894
11
68.5297
21
-40.5043
0
LINE
8
BLACK
6
CONTINUOUS
10
68.5297
20
-40.5043
11
68.2916
21
-40.2206
0
LINE
8
BLACK
6
CONTINUOUS
10
68.2916
20
-40.2206
11
68.165
21
-39.8726
0
LINE
8
BLACK
6
CONTINUOUS
10
68.165
20
-39.8726
11
68.165
21
-39.5024
0
LINE
8
BLACK
6
CONTINUOUS
10
68.165
20
-39.5024
11
68.2916
21
-39.1544
0
LINE
8
BLACK
6
CONTINUOUS
10
68.2916
20
-39.1544
11
68.5297
21
-38.8707
0
LINE
8
BLACK
6
CONTINUOUS
10
68.5297
20
-38.8707
11
68.8503
21
-38.6856
0
LINE
8
BLACK
6
CONTINUOUS
10
68.8503
20
-38.6856
11
69.1231
21
-38.6375
0
LINE
8
BLACK
6
CONTINUOUS
10
69.1231
20
-38.6375
11
69.3069
21
-38.6375
0
LINE
8
BLACK
6
CONTINUOUS
10
69.3069
20
-38.6375
11
69.5797
21
-38.6856
0
LINE
8
BLACK
6
CONTINUOUS
10
70.265
20
-38.1975
11
68.165
21
-38.1975
0
LINE
8
BLACK
6
CONTINUOUS
10
68.165
20
-38.1975
11
68.165
21
-36.0975
0
LINE
8
BLACK
6
CONTINUOUS
10
68.165
20
-36.0975
11
70.265
21
-36.0975
0
LINE
8
BLACK
6
CONTINUOUS
10
70.265
20
-36.0975
11
70.265
21
-38.1975
0
LINE
8
BLACK
6
CONTINUOUS
10
57.565
20
-36.9275
11
55.465
21
-36.9275
0
LINE
8
BLACK
6
CONTINUOUS
10
55.465
20
-36.9275
11
55.465
21
-34.8275
0
LINE
8
BLACK
6
CONTINUOUS
10
55.465
20
-34.8275
11
57.565
21
-34.8275
0
LINE
8
BLACK
6
CONTINUOUS
10
57.565
20
-34.8275
11
57.565
21
-36.9275
0
LINE
8
BLACK
6
CONTINUOUS
10
56.8797
20
-32.3356
11
57.2003
21
-32.5207
0
LINE
8
BLACK
6
CONTINUOUS
10
57.2003
20
-32.5207
11
57.4384
21
-32.8044
0
LINE
8
BLACK
6
CONTINUOUS
10
57.4384
20
-32.8044
11
57.565
21
-33.1524
0
LINE
8
BLACK
6
CONTINUOUS
10
57.565
20
-33.1524
11
57.565
21
-33.5226
0
LINE
8
BLACK
6
CONTINUOUS
10
57.565
20
-33.5226
11
57.4384
21
-33.8706
0
LINE
8
BLACK
6
CONTINUOUS
10
57.4384
20
-33.8706
11
57.2003
21
-34.1543
0
LINE
8
BLACK
6
CONTINUOUS
10
57.2003
20
-34.1543
11
56.8797
21
-34.3394
0
LINE
8
BLACK
6
CONTINUOUS
10
56.8797
20
-34.3394
11
56.6069
21
-34.3875
0
LINE
8
BLACK
6
CONTINUOUS
10
56.6069
20
-34.3875
11
56.4231
21
-34.3875
0
LINE
8
BLACK
6
CONTINUOUS
10
56.4231
20
-34.3875
11
56.1503
21
-34.3394
0
LINE
8
BLACK
6
CONTINUOUS
10
56.1503
20
-34.3394
11
55.8297
21
-34.1543
0
LINE
8
BLACK
6
CONTINUOUS
10
55.8297
20
-34.1543
11
55.5916
21
-33.8706
0
LINE
8
BLACK
6
CONTINUOUS
10
55.5916
20
-33.8706
11
55.465
21
-33.5226
0
LINE
8
BLACK
6
CONTINUOUS
10
55.465
20
-33.5226
11
55.465
21
-33.1524
0
LINE
8
BLACK
6
CONTINUOUS
10
55.465
20
-33.1524
11
55.5916
21
-32.8044
0
LINE
8
BLACK
6
CONTINUOUS
10
55.5916
20
-32.8044
11
55.8297
21
-32.5207
0
LINE
8
BLACK
6
CONTINUOUS
10
55.8297
20
-32.5207
11
56.1503
21
-32.3356
0
LINE
8
BLACK
6
CONTINUOUS
10
56.1503
20
-32.3356
11
56.4231
21
-32.2875
0
LINE
8
BLACK
6
CONTINUOUS
10
56.4231
20
-32.2875
11
56.6069
21
-32.2875
0
LINE
8
BLACK
6
CONTINUOUS
10
56.6069
20
-32.2875
11
56.8797
21
-32.3356
0
LINE
8
BLACK
6
CONTINUOUS
10
46.5535
20
-27.5549
11
47.2865
21
-27.9781
0
LINE
8
BLACK
6
CONTINUOUS
10
47.2865
20
-27.9781
11
47.8305
21
-28.6265
0
LINE
8
BLACK
6
CONTINUOUS
10
47.8305
20
-28.6265
11
48.12
21
-29.4218
0
LINE
8
BLACK
6
CONTINUOUS
10
48.12
20
-29.4218
11
48.12
21
-30.2682
0
LINE
8
BLACK
6
CONTINUOUS
10
48.12
20
-30.2682
11
47.8305
21
-31.0635
0
LINE
8
BLACK
6
CONTINUOUS
10
47.8305
20
-31.0635
11
47.2865
21
-31.7119
0
LINE
8
BLACK
6
CONTINUOUS
10
47.2865
20
-31.7119
11
46.5535
21
-32.1351
0
LINE
8
BLACK
6
CONTINUOUS
10
46.5535
20
-32.1351
11
45.72
21
-32.282
0
LINE
8
BLACK
6
CONTINUOUS
10
45.72
20
-32.282
11
44.8865
21
-32.1351
0
LINE
8
BLACK
6
CONTINUOUS
10
44.8865
20
-32.1351
11
44.1535
21
-31.7119
0
LINE
8
BLACK
6
CONTINUOUS
10
44.1535
20
-31.7119
11
43.6095
21
-31.0635
0
LINE
8
BLACK
6
CONTINUOUS
10
43.6095
20
-31.0635
11
43.32
21
-30.2682
0
LINE
8
BLACK
6
CONTINUOUS
10
43.32
20
-30.2682
11
43.32
21
-29.4218
0
LINE
8
BLACK
6
CONTINUOUS
10
43.32
20
-29.4218
11
43.6095
21
-28.6265
0
LINE
8
BLACK
6
CONTINUOUS
10
43.6095
20
-28.6265
11
44.1535
21
-27.9781
0
LINE
8
BLACK
6
CONTINUOUS
10
44.1535
20
-27.9781
11
44.8865
21
-27.5549
0
LINE
8
BLACK
6
CONTINUOUS
10
44.8865
20
-27.5549
11
45.72
21
-27.408
0
LINE
8
BLACK
6
CONTINUOUS
10
45.72
20
-27.408
11
46.5535
21
-27.5549
0
LINE
8
BLACK
6
CONTINUOUS
10
97.3535
20
-27.5549
11
98.0865
21
-27.9781
0
LINE
8
BLACK
6
CONTINUOUS
10
98.0865
20
-27.9781
11
98.6305
21
-28.6265
0
LINE
8
BLACK
6
CONTINUOUS
10
98.6305
20
-28.6265
11
98.92
21
-29.4218
0
LINE
8
BLACK
6
CONTINUOUS
10
98.92
20
-29.4218
11
98.92
21
-30.2682
0
LINE
8
BLACK
6
CONTINUOUS
10
98.92
20
-30.2682
11
98.6305
21
-31.0635
0
LINE
8
BLACK
6
CONTINUOUS
10
98.6305
20
-31.0635
11
98.0865
21
-31.7119
0
LINE
8
BLACK
6
CONTINUOUS
10
98.0865
20
-31.7119
11
97.3535
21
-32.1351
0
LINE
8
BLACK
6
CONTINUOUS
10
97.3535
20
-32.1351
11
96.52
21
-32.282
0
LINE
8
BLACK
6
CONTINUOUS
10
96.52
20
-32.282
11
95.6865
21
-32.1351
0
LINE
8
BLACK
6
CONTINUOUS
10
95.6865
20
-32.1351
11
94.9535
21
-31.7119
0
LINE
8
BLACK
6
CONTINUOUS
10
94.9535
20
-31.7119
11
94.4095
21
-31.0635
0
LINE
8
BLACK
6
CONTINUOUS
10
94.4095
20
-31.0635
11
94.12
21
-30.2682
0
LINE
8
BLACK
6
CONTINUOUS
10
94.12
20
-30.2682
11
94.12
21
-29.4218
0
LINE
8
BLACK
6
CONTINUOUS
10
94.12
20
-29.4218
11
94.4095
21
-28.6265
0
LINE
8
BLACK
6
CONTINUOUS
10
94.4095
20
-28.6265
11
94.9535
21
-27.9781
0
LINE
8
BLACK
6
CONTINUOUS
10
94.9535
20
-27.9781
11
95.6865
21
-27.5549
0
LINE
8
BLACK
6
CONTINUOUS
10
95.6865
20
-27.5549
11
96.52
21
-27.408
0
LINE
8
BLACK
6
CONTINUOUS
10
96.52
20
-27.408
11
97.3535
21
-27.5549
  0
ENDSEC
  0
EOF
