  0
SECTION
  2
HEADER
  9
$ANGBASE
  50
0.0
  9
$ANGDIR
  70
  1
  9
$MEASUREMENT
  70
0
  0
ENDSEC
  0
SECTION
  2
TABLES
  0
TABLE
  2
LTYPE
  70
4
  0
LTYPE
  5
40F
  2
CONTINUOUS
  70
0
  3
Solid line
  72
65
  73
0
  40
0.0
  0
LTYPE
  5
410
  2
DASHDOT
 70
0
  3
Dash Dot ____ _ ____ _
 72
65
 73
4
 40
2.0
 49
1.25
 49
-0.25
 49
0.25
 49
-0.25
  0
LTYPE
  5
411
  2
DASHED
 70
0
  3
Dashed __ __ __ __ __
 72
65
 73
2
 40
0.75
 49
0.5
 49
-0.25
  0
LTYPE
  5
43B
  2
DOTTED
 70
0
  3
Dotted .  .  .  .
 72
65
 73
2
 40
0.2
 49
0.0
 49
-0.2
  0
ENDTAB
  0
TABLE
  2
STYLE
  70
4
  0
STYLE
  2
KICAD
  70
0
  40
0
  41
1
  42
1
  50
0
  71
0
  3
isocp.shx
  0
STYLE
  2
KICADB
  70
0
  40
0
  41
1
  42
1
  50
0
  71
0
  3
isocp.shx
  0
STYLE
  2
KICADI
  70
0
  40
0
  41
1
  42
1
  50
15
  71
0
  3
isocp.shx
  0
STYLE
  2
KICADBI
  70
0
  40
0
  41
1
  42
1
  50
15
  71
0
  3
isocp.shx
  0
ENDTAB
  0
TABLE
  2
LAYER
  70
30
  0
LAYER
  2
BLACK
  70
0
  62
7
  6
CONTINUOUS
  0
LAYER
  2
GRAY1
  70
0
  62
251
  6
CONTINUOUS
  0
LAYER
  2
GRAY2
  70
0
  62
8
  6
CONTINUOUS
  0
LAYER
  2
GRAY3
  70
0
  62
9
  6
CONTINUOUS
  0
LAYER
  2
WHITE
  70
0
  62
7
  6
CONTINUOUS
  0
LAYER
  2
LYELLOW
  70
0
  62
51
  6
CONTINUOUS
  0
LAYER
  2
BLUE1
  70
0
  62
178
  6
CONTINUOUS
  0
LAYER
  2
GREEN1
  70
0
  62
98
  6
CONTINUOUS
  0
LAYER
  2
CYAN1
  70
0
  62
138
  6
CONTINUOUS
  0
LAYER
  2
RED1
  70
0
  62
18
  6
CONTINUOUS
  0
LAYER
  2
MAGENTA1
  70
0
  62
228
  6
CONTINUOUS
  0
LAYER
  2
BROWN1
  70
0
  62
58
  6
CONTINUOUS
  0
LAYER
  2
BLUE2
  70
0
  62
5
  6
CONTINUOUS
  0
LAYER
  2
GREEN2
  70
0
  62
3
  6
CONTINUOUS
  0
LAYER
  2
CYAN2
  70
0
  62
4
  6
CONTINUOUS
  0
LAYER
  2
RED2
  70
0
  62
1
  6
CONTINUOUS
  0
LAYER
  2
MAGENTA2
  70
0
  62
6
  6
CONTINUOUS
  0
LAYER
  2
BROWN2
  70
0
  62
54
  6
CONTINUOUS
  0
LAYER
  2
BLUE3
  70
0
  62
171
  6
CONTINUOUS
  0
LAYER
  2
GREEN3
  70
0
  62
91
  6
CONTINUOUS
  0
LAYER
  2
CYAN3
  70
0
  62
131
  6
CONTINUOUS
  0
LAYER
  2
RED3
  70
0
  62
11
  6
CONTINUOUS
  0
LAYER
  2
MAGENTA3
  70
0
  62
221
  6
CONTINUOUS
  0
LAYER
  2
YELLOW3
  70
0
  62
2
  6
CONTINUOUS
  0
LAYER
  2
BLUE4
  70
0
  62
5
  6
CONTINUOUS
  0
LAYER
  2
GREEN4
  70
0
  62
3
  6
CONTINUOUS
  0
LAYER
  2
CYAN4
  70
0
  62
4
  6
CONTINUOUS
  0
LAYER
  2
RED4
  70
0
  62
1
  6
CONTINUOUS
  0
LAYER
  2
MAGENTA4
  70
0
  62
6
  6
CONTINUOUS
  0
LAYER
  2
YELLOW4
  70
0
  62
2
  6
CONTINUOUS
  0
ENDTAB
  0
ENDSEC
  0
SECTION
  2
ENTITIES
0
LINE
8
BLACK
6
CONTINUOUS
10
39.3634
20
-73.735
11
39.3568
21
-73.735
0
LINE
8
BLACK
6
CONTINUOUS
10
39.3568
20
-73.735
11
39.3505
21
-73.7327
0
LINE
8
BLACK
6
CONTINUOUS
10
39.3505
20
-73.7327
11
39.344
21
-73.7316
0
LINE
8
BLACK
6
CONTINUOUS
10
39.344
20
-73.7316
11
39.3382
21
-73.7282
0
LINE
8
BLACK
6
CONTINUOUS
10
39.3382
20
-73.7282
11
39.3319
21
-73.726
0
LINE
8
BLACK
6
CONTINUOUS
10
39.3319
20
-73.726
11
39.3268
21
-73.7217
0
LINE
8
BLACK
6
CONTINUOUS
10
39.3268
20
-73.7217
11
39.321
21
-73.7183
0
LINE
8
BLACK
6
CONTINUOUS
10
39.321
20
-73.7183
11
39.3168
21
-73.7132
0
LINE
8
BLACK
6
CONTINUOUS
10
39.3168
20
-73.7132
11
39.3117
21
-73.709
0
LINE
8
BLACK
6
CONTINUOUS
10
39.3117
20
-73.709
11
39.3083
21
-73.7032
0
LINE
8
BLACK
6
CONTINUOUS
10
39.3083
20
-73.7032
11
39.304
21
-73.6981
0
LINE
8
BLACK
6
CONTINUOUS
10
39.304
20
-73.6981
11
39.3018
21
-73.6918
0
LINE
8
BLACK
6
CONTINUOUS
10
39.3018
20
-73.6918
11
39.2984
21
-73.686
0
LINE
8
BLACK
6
CONTINUOUS
10
39.2984
20
-73.686
11
39.2973
21
-73.6795
0
LINE
8
BLACK
6
CONTINUOUS
10
39.2973
20
-73.6795
11
39.295
21
-73.6732
0
LINE
8
BLACK
6
CONTINUOUS
10
39.295
20
-73.6732
11
39.295
21
-73.6468
0
LINE
8
BLACK
6
CONTINUOUS
10
39.295
20
-73.6468
11
39.295
21
-24.7584
0
LINE
8
BLACK
6
CONTINUOUS
10
39.295
20
-24.7584
11
39.295
21
-24.7584
0
LINE
8
BLACK
6
CONTINUOUS
10
39.295
20
-24.7584
11
39.295
21
-24.7518
0
LINE
8
BLACK
6
CONTINUOUS
10
39.295
20
-24.7518
11
39.2973
21
-24.7455
0
LINE
8
BLACK
6
CONTINUOUS
10
39.2973
20
-24.7455
11
39.2984
21
-24.739
0
LINE
8
BLACK
6
CONTINUOUS
10
39.2984
20
-24.739
11
39.3018
21
-24.7332
0
LINE
8
BLACK
6
CONTINUOUS
10
39.3018
20
-24.7332
11
39.304
21
-24.7269
0
LINE
8
BLACK
6
CONTINUOUS
10
39.304
20
-24.7269
11
39.3083
21
-24.7218
0
LINE
8
BLACK
6
CONTINUOUS
10
39.3083
20
-24.7218
11
39.3117
21
-24.716
0
LINE
8
BLACK
6
CONTINUOUS
10
39.3117
20
-24.716
11
39.3168
21
-24.7118
0
LINE
8
BLACK
6
CONTINUOUS
10
39.3168
20
-24.7118
11
39.321
21
-24.7067
0
LINE
8
BLACK
6
CONTINUOUS
10
39.321
20
-24.7067
11
39.3268
21
-24.7033
0
LINE
8
BLACK
6
CONTINUOUS
10
39.3268
20
-24.7033
11
39.3319
21
-24.699
0
LINE
8
BLACK
6
CONTINUOUS
10
39.3319
20
-24.699
11
39.3382
21
-24.6968
0
LINE
8
BLACK
6
CONTINUOUS
10
39.3382
20
-24.6968
11
39.344
21
-24.6934
0
LINE
8
BLACK
6
CONTINUOUS
10
39.344
20
-24.6934
11
39.3505
21
-24.6923
0
LINE
8
BLACK
6
CONTINUOUS
10
39.3505
20
-24.6923
11
39.3568
21
-24.69
0
LINE
8
BLACK
6
CONTINUOUS
10
39.3568
20
-24.69
11
39.3634
21
-24.69
0
LINE
8
BLACK
6
CONTINUOUS
10
39.3634
20
-24.69
11
39.3634
21
-24.69
0
LINE
8
BLACK
6
CONTINUOUS
10
39.3634
20
-24.69
11
103.512
21
-24.69
0
LINE
8
BLACK
6
CONTINUOUS
10
103.512
20
-24.69
11
103.512
21
-24.69
0
LINE
8
BLACK
6
CONTINUOUS
10
103.512
20
-24.69
11
103.518
21
-24.69
0
LINE
8
BLACK
6
CONTINUOUS
10
103.518
20
-24.69
11
103.524
21
-24.6923
0
LINE
8
BLACK
6
CONTINUOUS
10
103.524
20
-24.6923
11
103.531
21
-24.6934
0
LINE
8
BLACK
6
CONTINUOUS
10
103.531
20
-24.6934
11
103.537
21
-24.6968
0
LINE
8
BLACK
6
CONTINUOUS
10
103.537
20
-24.6968
11
103.543
21
-24.699
0
LINE
8
BLACK
6
CONTINUOUS
10
103.543
20
-24.699
11
103.548
21
-24.7033
0
LINE
8
BLACK
6
CONTINUOUS
10
103.548
20
-24.7033
11
103.554
21
-24.7067
0
LINE
8
BLACK
6
CONTINUOUS
10
103.554
20
-24.7067
11
103.558
21
-24.7118
0
LINE
8
BLACK
6
CONTINUOUS
10
103.558
20
-24.7118
11
103.563
21
-24.716
0
LINE
8
BLACK
6
CONTINUOUS
10
103.563
20
-24.716
11
103.567
21
-24.7218
0
LINE
8
BLACK
6
CONTINUOUS
10
103.567
20
-24.7218
11
103.571
21
-24.7269
0
LINE
8
BLACK
6
CONTINUOUS
10
103.571
20
-24.7269
11
103.573
21
-24.7332
0
LINE
8
BLACK
6
CONTINUOUS
10
103.573
20
-24.7332
11
103.577
21
-24.739
0
LINE
8
BLACK
6
CONTINUOUS
10
103.577
20
-24.739
11
103.578
21
-24.7455
0
LINE
8
BLACK
6
CONTINUOUS
10
103.578
20
-24.7455
11
103.58
21
-24.7518
0
LINE
8
BLACK
6
CONTINUOUS
10
103.58
20
-24.7518
11
103.58
21
-24.7584
0
LINE
8
BLACK
6
CONTINUOUS
10
103.58
20
-24.7584
11
103.58
21
-24.7584
0
LINE
8
BLACK
6
CONTINUOUS
10
103.58
20
-24.7584
11
103.58
21
-73.6666
0
LINE
8
BLACK
6
CONTINUOUS
10
103.58
20
-73.6666
11
103.58
21
-73.6666
0
LINE
8
BLACK
6
CONTINUOUS
10
103.58
20
-73.6666
11
103.58
21
-73.6732
0
LINE
8
BLACK
6
CONTINUOUS
10
103.58
20
-73.6732
11
103.578
21
-73.6795
0
LINE
8
BLACK
6
CONTINUOUS
10
103.578
20
-73.6795
11
103.577
21
-73.686
0
LINE
8
BLACK
6
CONTINUOUS
10
103.577
20
-73.686
11
103.573
21
-73.6918
0
LINE
8
BLACK
6
CONTINUOUS
10
103.573
20
-73.6918
11
103.571
21
-73.6981
0
LINE
8
BLACK
6
CONTINUOUS
10
103.571
20
-73.6981
11
103.567
21
-73.7032
0
LINE
8
BLACK
6
CONTINUOUS
10
103.567
20
-73.7032
11
103.563
21
-73.709
0
LINE
8
BLACK
6
CONTINUOUS
10
103.563
20
-73.709
11
103.558
21
-73.7132
0
LINE
8
BLACK
6
CONTINUOUS
10
103.558
20
-73.7132
11
103.554
21
-73.7183
0
LINE
8
BLACK
6
CONTINUOUS
10
103.554
20
-73.7183
11
103.548
21
-73.7217
0
LINE
8
BLACK
6
CONTINUOUS
10
103.548
20
-73.7217
11
103.543
21
-73.726
0
LINE
8
BLACK
6
CONTINUOUS
10
103.543
20
-73.726
11
103.537
21
-73.7282
0
LINE
8
BLACK
6
CONTINUOUS
10
103.537
20
-73.7282
11
103.531
21
-73.7316
0
LINE
8
BLACK
6
CONTINUOUS
10
103.531
20
-73.7316
11
103.524
21
-73.7327
0
LINE
8
BLACK
6
CONTINUOUS
10
103.524
20
-73.7327
11
103.518
21
-73.735
0
LINE
8
BLACK
6
CONTINUOUS
10
103.518
20
-73.735
11
103.512
21
-73.735
0
LINE
8
BLACK
6
CONTINUOUS
10
103.512
20
-73.735
11
103.512
21
-73.735
0
LINE
8
BLACK
6
CONTINUOUS
10
103.512
20
-73.735
11
39.3634
21
-73.735
0
LINE
8
BLACK
6
CONTINUOUS
10
39.3634
20
-73.735
11
39.3634
21
-73.735
0
LINE
8
BLACK
6
CONTINUOUS
10
103.43
20
-24.84
11
39.445
21
-24.84
0
LINE
8
BLACK
6
CONTINUOUS
10
39.445
20
-24.84
11
39.445
21
-73.585
0
LINE
8
BLACK
6
CONTINUOUS
10
39.445
20
-73.585
11
103.43
21
-73.585
0
LINE
8
BLACK
6
CONTINUOUS
10
103.43
20
-73.585
11
103.43
21
-24.84
  0
ENDSEC
  0
EOF
