  0
SECTION
  2
HEADER
  9
$ANGBASE
  50
0.0
  9
$ANGDIR
  70
  1
  9
$MEASUREMENT
  70
0
  0
ENDSEC
  0
SECTION
  2
TABLES
  0
TABLE
  2
LTYPE
  70
4
  0
LTYPE
  5
40F
  2
CONTINUOUS
  70
0
  3
Solid line
  72
65
  73
0
  40
0.0
  0
LTYPE
  5
410
  2
DASHDOT
 70
0
  3
Dash Dot ____ _ ____ _
 72
65
 73
4
 40
2.0
 49
1.25
 49
-0.25
 49
0.25
 49
-0.25
  0
LTYPE
  5
411
  2
DASHED
 70
0
  3
Dashed __ __ __ __ __
 72
65
 73
2
 40
0.75
 49
0.5
 49
-0.25
  0
LTYPE
  5
43B
  2
DOTTED
 70
0
  3
Dotted .  .  .  .
 72
65
 73
2
 40
0.2
 49
0.0
 49
-0.2
  0
ENDTAB
  0
TABLE
  2
STYLE
  70
4
  0
STYLE
  2
KICAD
  70
0
  40
0
  41
1
  42
1
  50
0
  71
0
  3
isocp.shx
  0
STYLE
  2
KICADB
  70
0
  40
0
  41
1
  42
1
  50
0
  71
0
  3
isocp.shx
  0
STYLE
  2
KICADI
  70
0
  40
0
  41
1
  42
1
  50
15
  71
0
  3
isocp.shx
  0
STYLE
  2
KICADBI
  70
0
  40
0
  41
1
  42
1
  50
15
  71
0
  3
isocp.shx
  0
ENDTAB
  0
TABLE
  2
LAYER
  70
30
  0
LAYER
  2
BLACK
  70
0
  62
7
  6
CONTINUOUS
  0
LAYER
  2
GRAY1
  70
0
  62
251
  6
CONTINUOUS
  0
LAYER
  2
GRAY2
  70
0
  62
8
  6
CONTINUOUS
  0
LAYER
  2
GRAY3
  70
0
  62
9
  6
CONTINUOUS
  0
LAYER
  2
WHITE
  70
0
  62
7
  6
CONTINUOUS
  0
LAYER
  2
LYELLOW
  70
0
  62
51
  6
CONTINUOUS
  0
LAYER
  2
BLUE1
  70
0
  62
178
  6
CONTINUOUS
  0
LAYER
  2
GREEN1
  70
0
  62
98
  6
CONTINUOUS
  0
LAYER
  2
CYAN1
  70
0
  62
138
  6
CONTINUOUS
  0
LAYER
  2
RED1
  70
0
  62
18
  6
CONTINUOUS
  0
LAYER
  2
MAGENTA1
  70
0
  62
228
  6
CONTINUOUS
  0
LAYER
  2
BROWN1
  70
0
  62
58
  6
CONTINUOUS
  0
LAYER
  2
BLUE2
  70
0
  62
5
  6
CONTINUOUS
  0
LAYER
  2
GREEN2
  70
0
  62
3
  6
CONTINUOUS
  0
LAYER
  2
CYAN2
  70
0
  62
4
  6
CONTINUOUS
  0
LAYER
  2
RED2
  70
0
  62
1
  6
CONTINUOUS
  0
LAYER
  2
MAGENTA2
  70
0
  62
6
  6
CONTINUOUS
  0
LAYER
  2
BROWN2
  70
0
  62
54
  6
CONTINUOUS
  0
LAYER
  2
BLUE3
  70
0
  62
171
  6
CONTINUOUS
  0
LAYER
  2
GREEN3
  70
0
  62
91
  6
CONTINUOUS
  0
LAYER
  2
CYAN3
  70
0
  62
131
  6
CONTINUOUS
  0
LAYER
  2
RED3
  70
0
  62
11
  6
CONTINUOUS
  0
LAYER
  2
MAGENTA3
  70
0
  62
221
  6
CONTINUOUS
  0
LAYER
  2
YELLOW3
  70
0
  62
2
  6
CONTINUOUS
  0
LAYER
  2
BLUE4
  70
0
  62
5
  6
CONTINUOUS
  0
LAYER
  2
GREEN4
  70
0
  62
3
  6
CONTINUOUS
  0
LAYER
  2
CYAN4
  70
0
  62
4
  6
CONTINUOUS
  0
LAYER
  2
RED4
  70
0
  62
1
  6
CONTINUOUS
  0
LAYER
  2
MAGENTA4
  70
0
  62
6
  6
CONTINUOUS
  0
LAYER
  2
YELLOW4
  70
0
  62
2
  6
CONTINUOUS
  0
ENDTAB
  0
ENDSEC
  0
SECTION
  2
ENTITIES
0
LINE
8
BLACK
6
CONTINUOUS
10
46.4841
20
-65.8458
11
47.1559
21
-66.2337
0
LINE
8
BLACK
6
CONTINUOUS
10
47.1559
20
-66.2337
11
47.6546
21
-66.828
0
LINE
8
BLACK
6
CONTINUOUS
10
47.6546
20
-66.828
11
47.92
21
-67.5571
0
LINE
8
BLACK
6
CONTINUOUS
10
47.92
20
-67.5571
11
47.92
21
-68.3329
0
LINE
8
BLACK
6
CONTINUOUS
10
47.92
20
-68.3329
11
47.6546
21
-69.062
0
LINE
8
BLACK
6
CONTINUOUS
10
47.6546
20
-69.062
11
47.1559
21
-69.6563
0
LINE
8
BLACK
6
CONTINUOUS
10
47.1559
20
-69.6563
11
46.4841
21
-70.0442
0
LINE
8
BLACK
6
CONTINUOUS
10
46.4841
20
-70.0442
11
45.72
21
-70.1789
0
LINE
8
BLACK
6
CONTINUOUS
10
45.72
20
-70.1789
11
44.9559
21
-70.0442
0
LINE
8
BLACK
6
CONTINUOUS
10
44.9559
20
-70.0442
11
44.2841
21
-69.6563
0
LINE
8
BLACK
6
CONTINUOUS
10
44.2841
20
-69.6563
11
43.7854
21
-69.062
0
LINE
8
BLACK
6
CONTINUOUS
10
43.7854
20
-69.062
11
43.52
21
-68.3329
0
LINE
8
BLACK
6
CONTINUOUS
10
43.52
20
-68.3329
11
43.52
21
-67.5571
0
LINE
8
BLACK
6
CONTINUOUS
10
43.52
20
-67.5571
11
43.7854
21
-66.828
0
LINE
8
BLACK
6
CONTINUOUS
10
43.7854
20
-66.828
11
44.2841
21
-66.2337
0
LINE
8
BLACK
6
CONTINUOUS
10
44.2841
20
-66.2337
11
44.9559
21
-65.8458
0
LINE
8
BLACK
6
CONTINUOUS
10
44.9559
20
-65.8458
11
45.72
21
-65.7111
0
LINE
8
BLACK
6
CONTINUOUS
10
45.72
20
-65.7111
11
46.4841
21
-65.8458
0
LINE
8
BLACK
6
CONTINUOUS
10
97.2841
20
-65.8458
11
97.9559
21
-66.2337
0
LINE
8
BLACK
6
CONTINUOUS
10
97.9559
20
-66.2337
11
98.4546
21
-66.828
0
LINE
8
BLACK
6
CONTINUOUS
10
98.4546
20
-66.828
11
98.72
21
-67.5571
0
LINE
8
BLACK
6
CONTINUOUS
10
98.72
20
-67.5571
11
98.72
21
-68.3329
0
LINE
8
BLACK
6
CONTINUOUS
10
98.72
20
-68.3329
11
98.4546
21
-69.062
0
LINE
8
BLACK
6
CONTINUOUS
10
98.4546
20
-69.062
11
97.9559
21
-69.6563
0
LINE
8
BLACK
6
CONTINUOUS
10
97.9559
20
-69.6563
11
97.2841
21
-70.0442
0
LINE
8
BLACK
6
CONTINUOUS
10
97.2841
20
-70.0442
11
96.52
21
-70.1789
0
LINE
8
BLACK
6
CONTINUOUS
10
96.52
20
-70.1789
11
95.7559
21
-70.0442
0
LINE
8
BLACK
6
CONTINUOUS
10
95.7559
20
-70.0442
11
95.0841
21
-69.6563
0
LINE
8
BLACK
6
CONTINUOUS
10
95.0841
20
-69.6563
11
94.5854
21
-69.062
0
LINE
8
BLACK
6
CONTINUOUS
10
94.5854
20
-69.062
11
94.32
21
-68.3329
0
LINE
8
BLACK
6
CONTINUOUS
10
94.32
20
-68.3329
11
94.32
21
-67.5571
0
LINE
8
BLACK
6
CONTINUOUS
10
94.32
20
-67.5571
11
94.5854
21
-66.828
0
LINE
8
BLACK
6
CONTINUOUS
10
94.5854
20
-66.828
11
95.0841
21
-66.2337
0
LINE
8
BLACK
6
CONTINUOUS
10
95.0841
20
-66.2337
11
95.7559
21
-65.8458
0
LINE
8
BLACK
6
CONTINUOUS
10
95.7559
20
-65.8458
11
96.52
21
-65.7111
0
LINE
8
BLACK
6
CONTINUOUS
10
96.52
20
-65.7111
11
97.2841
21
-65.8458
0
LINE
8
BLACK
6
CONTINUOUS
10
69.612
20
-38.5969
11
69.961
21
-38.7984
0
LINE
8
BLACK
6
CONTINUOUS
10
69.961
20
-38.7984
11
70.2201
21
-39.1072
0
LINE
8
BLACK
6
CONTINUOUS
10
70.2201
20
-39.1072
11
70.358
21
-39.486
0
LINE
8
BLACK
6
CONTINUOUS
10
70.358
20
-39.486
11
70.358
21
-39.889
0
LINE
8
BLACK
6
CONTINUOUS
10
70.358
20
-39.889
11
70.2201
21
-40.2678
0
LINE
8
BLACK
6
CONTINUOUS
10
70.2201
20
-40.2678
11
69.961
21
-40.5766
0
LINE
8
BLACK
6
CONTINUOUS
10
69.961
20
-40.5766
11
69.612
21
-40.7781
0
LINE
8
BLACK
6
CONTINUOUS
10
69.612
20
-40.7781
11
69.315
21
-40.8305
0
LINE
8
BLACK
6
CONTINUOUS
10
69.315
20
-40.8305
11
64.008
21
-40.8305
0
LINE
8
BLACK
6
CONTINUOUS
10
64.008
20
-40.8305
11
64.008
21
-50.6441
0
LINE
8
BLACK
6
CONTINUOUS
10
64.008
20
-50.6441
11
67.1484
21
-53.7845
0
LINE
8
BLACK
6
CONTINUOUS
10
67.1484
20
-53.7845
11
69.315
21
-53.7845
0
LINE
8
BLACK
6
CONTINUOUS
10
69.315
20
-53.7845
11
69.612
21
-53.8369
0
LINE
8
BLACK
6
CONTINUOUS
10
69.612
20
-53.8369
11
69.961
21
-54.0384
0
LINE
8
BLACK
6
CONTINUOUS
10
69.961
20
-54.0384
11
70.2201
21
-54.3472
0
LINE
8
BLACK
6
CONTINUOUS
10
70.2201
20
-54.3472
11
70.358
21
-54.726
0
LINE
8
BLACK
6
CONTINUOUS
10
70.358
20
-54.726
11
70.358
21
-55.129
0
LINE
8
BLACK
6
CONTINUOUS
10
70.358
20
-55.129
11
70.2201
21
-55.5078
0
LINE
8
BLACK
6
CONTINUOUS
10
70.2201
20
-55.5078
11
69.961
21
-55.8166
0
LINE
8
BLACK
6
CONTINUOUS
10
69.961
20
-55.8166
11
69.612
21
-56.0181
0
LINE
8
BLACK
6
CONTINUOUS
10
69.612
20
-56.0181
11
69.315
21
-56.0705
0
LINE
8
BLACK
6
CONTINUOUS
10
69.315
20
-56.0705
11
66.7249
21
-56.0705
0
LINE
8
BLACK
6
CONTINUOUS
10
66.7249
20
-56.0705
11
66.5738
21
-56.0837
0
LINE
8
BLACK
6
CONTINUOUS
10
66.5738
20
-56.0837
11
66.4274
21
-56.0445
0
LINE
8
BLACK
6
CONTINUOUS
10
66.4274
20
-56.0445
11
66.278
21
-56.0181
0
LINE
8
BLACK
6
CONTINUOUS
10
66.278
20
-56.0181
11
66.2338
21
-55.9926
0
LINE
8
BLACK
6
CONTINUOUS
10
66.2338
20
-55.9926
11
66.1845
21
-55.9794
0
LINE
8
BLACK
6
CONTINUOUS
10
66.1845
20
-55.9794
11
66.0603
21
-55.8924
0
LINE
8
BLACK
6
CONTINUOUS
10
66.0603
20
-55.8924
11
65.929
21
-55.8166
0
LINE
8
BLACK
6
CONTINUOUS
10
65.929
20
-55.8166
11
65.8315
21
-55.7004
0
LINE
8
BLACK
6
CONTINUOUS
10
65.8315
20
-55.7004
11
62.0921
21
-51.961
0
LINE
8
BLACK
6
CONTINUOUS
10
62.0921
20
-51.961
11
61.9759
21
-51.8635
0
LINE
8
BLACK
6
CONTINUOUS
10
61.9759
20
-51.8635
11
61.9001
21
-51.7322
0
LINE
8
BLACK
6
CONTINUOUS
10
61.9001
20
-51.7322
11
61.8131
21
-51.608
0
LINE
8
BLACK
6
CONTINUOUS
10
61.8131
20
-51.608
11
61.7999
21
-51.5587
0
LINE
8
BLACK
6
CONTINUOUS
10
61.7999
20
-51.5587
11
61.7744
21
-51.5145
0
LINE
8
BLACK
6
CONTINUOUS
10
61.7744
20
-51.5145
11
61.748
21
-51.3651
0
LINE
8
BLACK
6
CONTINUOUS
10
61.748
20
-51.3651
11
61.7088
21
-51.2187
0
LINE
8
BLACK
6
CONTINUOUS
10
61.7088
20
-51.2187
11
61.722
21
-51.0676
0
LINE
8
BLACK
6
CONTINUOUS
10
61.722
20
-51.0676
11
61.722
21
-40.8305
0
LINE
8
BLACK
6
CONTINUOUS
10
61.722
20
-40.8305
11
58.4244
21
-40.8305
0
LINE
8
BLACK
6
CONTINUOUS
10
58.4244
20
-40.8305
11
57.658
21
-41.5969
0
LINE
8
BLACK
6
CONTINUOUS
10
57.658
20
-41.5969
11
57.658
21
-46.1375
0
LINE
8
BLACK
6
CONTINUOUS
10
57.658
20
-46.1375
11
57.6056
21
-46.4345
0
LINE
8
BLACK
6
CONTINUOUS
10
57.6056
20
-46.4345
11
57.4041
21
-46.7835
0
LINE
8
BLACK
6
CONTINUOUS
10
57.4041
20
-46.7835
11
57.0953
21
-47.0426
0
LINE
8
BLACK
6
CONTINUOUS
10
57.0953
20
-47.0426
11
56.7165
21
-47.1805
0
LINE
8
BLACK
6
CONTINUOUS
10
56.7165
20
-47.1805
11
56.3135
21
-47.1805
0
LINE
8
BLACK
6
CONTINUOUS
10
56.3135
20
-47.1805
11
55.9347
21
-47.0426
0
LINE
8
BLACK
6
CONTINUOUS
10
55.9347
20
-47.0426
11
55.6259
21
-46.7835
0
LINE
8
BLACK
6
CONTINUOUS
10
55.6259
20
-46.7835
11
55.4244
21
-46.4345
0
LINE
8
BLACK
6
CONTINUOUS
10
55.4244
20
-46.4345
11
55.372
21
-46.1375
0
LINE
8
BLACK
6
CONTINUOUS
10
55.372
20
-46.1375
11
55.372
21
-41.1769
0
LINE
8
BLACK
6
CONTINUOUS
10
55.372
20
-41.1769
11
53.848
21
-42.7009
0
LINE
8
BLACK
6
CONTINUOUS
10
53.848
20
-42.7009
11
53.848
21
-62.0741
0
LINE
8
BLACK
6
CONTINUOUS
10
53.848
20
-62.0741
11
58.2584
21
-66.4845
0
LINE
8
BLACK
6
CONTINUOUS
10
58.2584
20
-66.4845
11
85.2516
21
-66.4845
0
LINE
8
BLACK
6
CONTINUOUS
10
85.2516
20
-66.4845
11
90.932
21
-60.8041
0
LINE
8
BLACK
6
CONTINUOUS
10
90.932
20
-60.8041
11
90.932
21
-56.0705
0
LINE
8
BLACK
6
CONTINUOUS
10
90.932
20
-56.0705
11
89.435
21
-56.0705
0
LINE
8
BLACK
6
CONTINUOUS
10
89.435
20
-56.0705
11
89.138
21
-56.0181
0
LINE
8
BLACK
6
CONTINUOUS
10
89.138
20
-56.0181
11
88.789
21
-55.8166
0
LINE
8
BLACK
6
CONTINUOUS
10
88.789
20
-55.8166
11
88.5299
21
-55.5078
0
LINE
8
BLACK
6
CONTINUOUS
10
88.5299
20
-55.5078
11
88.392
21
-55.129
0
LINE
8
BLACK
6
CONTINUOUS
10
88.392
20
-55.129
11
88.392
21
-54.726
0
LINE
8
BLACK
6
CONTINUOUS
10
88.392
20
-54.726
11
88.5299
21
-54.3472
0
LINE
8
BLACK
6
CONTINUOUS
10
88.5299
20
-54.3472
11
88.789
21
-54.0384
0
LINE
8
BLACK
6
CONTINUOUS
10
88.789
20
-54.0384
11
89.138
21
-53.8369
0
LINE
8
BLACK
6
CONTINUOUS
10
89.138
20
-53.8369
11
89.435
21
-53.7845
0
LINE
8
BLACK
6
CONTINUOUS
10
89.435
20
-53.7845
11
95.4116
21
-53.7845
0
LINE
8
BLACK
6
CONTINUOUS
10
95.4116
20
-53.7845
11
97.575
21
-51.6211
0
LINE
8
BLACK
6
CONTINUOUS
10
97.575
20
-51.6211
11
97.575
21
-51.5375
0
LINE
8
BLACK
6
CONTINUOUS
10
97.575
20
-51.5375
11
97.6586
21
-51.5375
0
LINE
8
BLACK
6
CONTINUOUS
10
97.6586
20
-51.5375
11
97.6875
21
-51.5086
0
LINE
8
BLACK
6
CONTINUOUS
10
97.6875
20
-51.5086
11
97.9345
21
-51.3356
0
LINE
8
BLACK
6
CONTINUOUS
10
97.9345
20
-51.3356
11
98.3238
21
-51.2313
0
LINE
8
BLACK
6
CONTINUOUS
10
98.3238
20
-51.2313
11
98.7254
21
-51.2664
0
LINE
8
BLACK
6
CONTINUOUS
10
98.7254
20
-51.2664
11
99.0907
21
-51.4368
0
LINE
8
BLACK
6
CONTINUOUS
10
99.0907
20
-51.4368
11
99.1914
21
-51.5375
0
LINE
8
BLACK
6
CONTINUOUS
10
99.1914
20
-51.5375
11
99.275
21
-51.5375
0
LINE
8
BLACK
6
CONTINUOUS
10
99.275
20
-51.5375
11
99.275
21
-51.6211
0
LINE
8
BLACK
6
CONTINUOUS
10
99.275
20
-51.6211
11
99.3757
21
-51.7218
0
LINE
8
BLACK
6
CONTINUOUS
10
99.3757
20
-51.7218
11
99.5461
21
-52.0871
0
LINE
8
BLACK
6
CONTINUOUS
10
99.5461
20
-52.0871
11
99.5812
21
-52.4887
0
LINE
8
BLACK
6
CONTINUOUS
10
99.5812
20
-52.4887
11
99.4769
21
-52.878
0
LINE
8
BLACK
6
CONTINUOUS
10
99.4769
20
-52.878
11
99.3039
21
-53.125
0
LINE
8
BLACK
6
CONTINUOUS
10
99.3039
20
-53.125
11
99.275
21
-53.1539
0
LINE
8
BLACK
6
CONTINUOUS
10
99.275
20
-53.1539
11
99.275
21
-53.2375
0
LINE
8
BLACK
6
CONTINUOUS
10
99.275
20
-53.2375
11
99.1914
21
-53.2375
0
LINE
8
BLACK
6
CONTINUOUS
10
99.1914
20
-53.2375
11
96.7285
21
-55.7004
0
LINE
8
BLACK
6
CONTINUOUS
10
96.7285
20
-55.7004
11
96.631
21
-55.8166
0
LINE
8
BLACK
6
CONTINUOUS
10
96.631
20
-55.8166
11
96.4997
21
-55.8924
0
LINE
8
BLACK
6
CONTINUOUS
10
96.4997
20
-55.8924
11
96.3755
21
-55.9794
0
LINE
8
BLACK
6
CONTINUOUS
10
96.3755
20
-55.9794
11
96.3262
21
-55.9926
0
LINE
8
BLACK
6
CONTINUOUS
10
96.3262
20
-55.9926
11
96.282
21
-56.0181
0
LINE
8
BLACK
6
CONTINUOUS
10
96.282
20
-56.0181
11
96.1326
21
-56.0445
0
LINE
8
BLACK
6
CONTINUOUS
10
96.1326
20
-56.0445
11
95.9862
21
-56.0837
0
LINE
8
BLACK
6
CONTINUOUS
10
95.9862
20
-56.0837
11
95.8351
21
-56.0705
0
LINE
8
BLACK
6
CONTINUOUS
10
95.8351
20
-56.0705
11
93.218
21
-56.0705
0
LINE
8
BLACK
6
CONTINUOUS
10
93.218
20
-56.0705
11
93.218
21
-61.2276
0
LINE
8
BLACK
6
CONTINUOUS
10
93.218
20
-61.2276
11
93.2312
21
-61.3787
0
LINE
8
BLACK
6
CONTINUOUS
10
93.2312
20
-61.3787
11
93.192
21
-61.5251
0
LINE
8
BLACK
6
CONTINUOUS
10
93.192
20
-61.5251
11
93.1656
21
-61.6745
0
LINE
8
BLACK
6
CONTINUOUS
10
93.1656
20
-61.6745
11
93.1401
21
-61.7187
0
LINE
8
BLACK
6
CONTINUOUS
10
93.1401
20
-61.7187
11
93.1269
21
-61.768
0
LINE
8
BLACK
6
CONTINUOUS
10
93.1269
20
-61.768
11
93.0399
21
-61.8922
0
LINE
8
BLACK
6
CONTINUOUS
10
93.0399
20
-61.8922
11
92.9641
21
-62.0235
0
LINE
8
BLACK
6
CONTINUOUS
10
92.9641
20
-62.0235
11
92.8479
21
-62.121
0
LINE
8
BLACK
6
CONTINUOUS
10
92.8479
20
-62.121
11
86.5685
21
-68.4004
0
LINE
8
BLACK
6
CONTINUOUS
10
86.5685
20
-68.4004
11
86.471
21
-68.5166
0
LINE
8
BLACK
6
CONTINUOUS
10
86.471
20
-68.5166
11
86.3397
21
-68.5924
0
LINE
8
BLACK
6
CONTINUOUS
10
86.3397
20
-68.5924
11
86.2155
21
-68.6794
0
LINE
8
BLACK
6
CONTINUOUS
10
86.2155
20
-68.6794
11
86.1662
21
-68.6926
0
LINE
8
BLACK
6
CONTINUOUS
10
86.1662
20
-68.6926
11
86.122
21
-68.7181
0
LINE
8
BLACK
6
CONTINUOUS
10
86.122
20
-68.7181
11
85.9726
21
-68.7445
0
LINE
8
BLACK
6
CONTINUOUS
10
85.9726
20
-68.7445
11
85.8262
21
-68.7837
0
LINE
8
BLACK
6
CONTINUOUS
10
85.8262
20
-68.7837
11
85.6751
21
-68.7705
0
LINE
8
BLACK
6
CONTINUOUS
10
85.6751
20
-68.7705
11
57.8349
21
-68.7705
0
LINE
8
BLACK
6
CONTINUOUS
10
57.8349
20
-68.7705
11
57.6838
21
-68.7837
0
LINE
8
BLACK
6
CONTINUOUS
10
57.6838
20
-68.7837
11
57.5374
21
-68.7445
0
LINE
8
BLACK
6
CONTINUOUS
10
57.5374
20
-68.7445
11
57.388
21
-68.7181
0
LINE
8
BLACK
6
CONTINUOUS
10
57.388
20
-68.7181
11
57.3438
21
-68.6926
0
LINE
8
BLACK
6
CONTINUOUS
10
57.3438
20
-68.6926
11
57.2945
21
-68.6794
0
LINE
8
BLACK
6
CONTINUOUS
10
57.2945
20
-68.6794
11
57.1703
21
-68.5924
0
LINE
8
BLACK
6
CONTINUOUS
10
57.1703
20
-68.5924
11
57.039
21
-68.5166
0
LINE
8
BLACK
6
CONTINUOUS
10
57.039
20
-68.5166
11
56.9415
21
-68.4004
0
LINE
8
BLACK
6
CONTINUOUS
10
56.9415
20
-68.4004
11
51.9321
21
-63.391
0
LINE
8
BLACK
6
CONTINUOUS
10
51.9321
20
-63.391
11
51.8159
21
-63.2935
0
LINE
8
BLACK
6
CONTINUOUS
10
51.8159
20
-63.2935
11
51.7401
21
-63.1622
0
LINE
8
BLACK
6
CONTINUOUS
10
51.7401
20
-63.1622
11
51.6531
21
-63.038
0
LINE
8
BLACK
6
CONTINUOUS
10
51.6531
20
-63.038
11
51.6399
21
-62.9887
0
LINE
8
BLACK
6
CONTINUOUS
10
51.6399
20
-62.9887
11
51.6144
21
-62.9445
0
LINE
8
BLACK
6
CONTINUOUS
10
51.6144
20
-62.9445
11
51.588
21
-62.7951
0
LINE
8
BLACK
6
CONTINUOUS
10
51.588
20
-62.7951
11
51.5488
21
-62.6487
0
LINE
8
BLACK
6
CONTINUOUS
10
51.5488
20
-62.6487
11
51.562
21
-62.4976
0
LINE
8
BLACK
6
CONTINUOUS
10
51.562
20
-62.4976
11
51.562
21
-42.2774
0
LINE
8
BLACK
6
CONTINUOUS
10
51.562
20
-42.2774
11
51.5488
21
-42.1263
0
LINE
8
BLACK
6
CONTINUOUS
10
51.5488
20
-42.1263
11
51.588
21
-41.9799
0
LINE
8
BLACK
6
CONTINUOUS
10
51.588
20
-41.9799
11
51.6144
21
-41.8305
0
LINE
8
BLACK
6
CONTINUOUS
10
51.6144
20
-41.8305
11
51.6399
21
-41.7863
0
LINE
8
BLACK
6
CONTINUOUS
10
51.6399
20
-41.7863
11
51.6531
21
-41.737
0
LINE
8
BLACK
6
CONTINUOUS
10
51.6531
20
-41.737
11
51.7401
21
-41.6128
0
LINE
8
BLACK
6
CONTINUOUS
10
51.7401
20
-41.6128
11
51.8159
21
-41.4815
0
LINE
8
BLACK
6
CONTINUOUS
10
51.8159
20
-41.4815
11
51.9321
21
-41.384
0
LINE
8
BLACK
6
CONTINUOUS
10
51.9321
20
-41.384
11
54.4015
21
-38.9146
0
LINE
8
BLACK
6
CONTINUOUS
10
54.4015
20
-38.9146
11
54.499
21
-38.7984
0
LINE
8
BLACK
6
CONTINUOUS
10
54.499
20
-38.7984
11
54.6303
21
-38.7226
0
LINE
8
BLACK
6
CONTINUOUS
10
54.6303
20
-38.7226
11
54.7545
21
-38.6356
0
LINE
8
BLACK
6
CONTINUOUS
10
54.7545
20
-38.6356
11
54.8038
21
-38.6224
0
LINE
8
BLACK
6
CONTINUOUS
10
54.8038
20
-38.6224
11
54.848
21
-38.5969
0
LINE
8
BLACK
6
CONTINUOUS
10
54.848
20
-38.5969
11
54.9974
21
-38.5705
0
LINE
8
BLACK
6
CONTINUOUS
10
54.9974
20
-38.5705
11
55.1438
21
-38.5313
0
LINE
8
BLACK
6
CONTINUOUS
10
55.1438
20
-38.5313
11
55.2949
21
-38.5445
0
LINE
8
BLACK
6
CONTINUOUS
10
55.2949
20
-38.5445
11
55.406
21
-38.5445
0
LINE
8
BLACK
6
CONTINUOUS
10
55.406
20
-38.5445
11
55.398
21
-38.4991
0
LINE
8
BLACK
6
CONTINUOUS
10
55.398
20
-38.4991
11
55.3588
21
-38.3527
0
LINE
8
BLACK
6
CONTINUOUS
10
55.3588
20
-38.3527
11
55.372
21
-38.2016
0
LINE
8
BLACK
6
CONTINUOUS
10
55.372
20
-38.2016
11
55.372
21
-35.7775
0
LINE
8
BLACK
6
CONTINUOUS
10
55.372
20
-35.7775
11
55.4244
21
-35.4805
0
LINE
8
BLACK
6
CONTINUOUS
10
55.4244
20
-35.4805
11
55.6259
21
-35.1315
0
LINE
8
BLACK
6
CONTINUOUS
10
55.6259
20
-35.1315
11
55.665
21
-35.0987
0
LINE
8
BLACK
6
CONTINUOUS
10
55.665
20
-35.0987
11
55.665
21
-35.0275
0
LINE
8
BLACK
6
CONTINUOUS
10
55.665
20
-35.0275
11
55.7498
21
-35.0275
0
LINE
8
BLACK
6
CONTINUOUS
10
55.7498
20
-35.0275
11
55.9347
21
-34.8724
0
LINE
8
BLACK
6
CONTINUOUS
10
55.9347
20
-34.8724
11
56.3135
21
-34.7345
0
LINE
8
BLACK
6
CONTINUOUS
10
56.3135
20
-34.7345
11
56.7165
21
-34.7345
0
LINE
8
BLACK
6
CONTINUOUS
10
56.7165
20
-34.7345
11
57.0953
21
-34.8724
0
LINE
8
BLACK
6
CONTINUOUS
10
57.0953
20
-34.8724
11
57.2802
21
-35.0275
0
LINE
8
BLACK
6
CONTINUOUS
10
57.2802
20
-35.0275
11
57.365
21
-35.0275
0
LINE
8
BLACK
6
CONTINUOUS
10
57.365
20
-35.0275
11
57.365
21
-35.0987
0
LINE
8
BLACK
6
CONTINUOUS
10
57.365
20
-35.0987
11
57.4041
21
-35.1315
0
LINE
8
BLACK
6
CONTINUOUS
10
57.4041
20
-35.1315
11
57.6056
21
-35.4805
0
LINE
8
BLACK
6
CONTINUOUS
10
57.6056
20
-35.4805
11
57.658
21
-35.7775
0
LINE
8
BLACK
6
CONTINUOUS
10
57.658
20
-35.7775
11
57.658
21
-37.7781
0
LINE
8
BLACK
6
CONTINUOUS
10
57.658
20
-37.7781
11
58.4244
21
-38.5445
0
LINE
8
BLACK
6
CONTINUOUS
10
58.4244
20
-38.5445
11
69.315
21
-38.5445
0
LINE
8
BLACK
6
CONTINUOUS
10
69.315
20
-38.5445
11
69.612
21
-38.5969
0
LINE
8
BLACK
6
CONTINUOUS
10
59.1366
20
-56.3505
11
59.286
21
-56.3769
0
LINE
8
BLACK
6
CONTINUOUS
10
59.286
20
-56.3769
11
59.3302
21
-56.4024
0
LINE
8
BLACK
6
CONTINUOUS
10
59.3302
20
-56.4024
11
59.3795
21
-56.4156
0
LINE
8
BLACK
6
CONTINUOUS
10
59.3795
20
-56.4156
11
59.5037
21
-56.5026
0
LINE
8
BLACK
6
CONTINUOUS
10
59.5037
20
-56.5026
11
59.635
21
-56.5784
0
LINE
8
BLACK
6
CONTINUOUS
10
59.635
20
-56.5784
11
59.7325
21
-56.6946
0
LINE
8
BLACK
6
CONTINUOUS
10
59.7325
20
-56.6946
11
64.4424
21
-61.4045
0
LINE
8
BLACK
6
CONTINUOUS
10
64.4424
20
-61.4045
11
69.315
21
-61.4045
0
LINE
8
BLACK
6
CONTINUOUS
10
69.315
20
-61.4045
11
69.612
21
-61.4569
0
LINE
8
BLACK
6
CONTINUOUS
10
69.612
20
-61.4569
11
69.961
21
-61.6584
0
LINE
8
BLACK
6
CONTINUOUS
10
69.961
20
-61.6584
11
70.2201
21
-61.9672
0
LINE
8
BLACK
6
CONTINUOUS
10
70.2201
20
-61.9672
11
70.358
21
-62.346
0
LINE
8
BLACK
6
CONTINUOUS
10
70.358
20
-62.346
11
70.358
21
-62.749
0
LINE
8
BLACK
6
CONTINUOUS
10
70.358
20
-62.749
11
70.2201
21
-63.1278
0
LINE
8
BLACK
6
CONTINUOUS
10
70.2201
20
-63.1278
11
69.961
21
-63.4366
0
LINE
8
BLACK
6
CONTINUOUS
10
69.961
20
-63.4366
11
69.612
21
-63.6381
0
LINE
8
BLACK
6
CONTINUOUS
10
69.612
20
-63.6381
11
69.315
21
-63.6905
0
LINE
8
BLACK
6
CONTINUOUS
10
69.315
20
-63.6905
11
64.0189
21
-63.6905
0
LINE
8
BLACK
6
CONTINUOUS
10
64.0189
20
-63.6905
11
63.8678
21
-63.7037
0
LINE
8
BLACK
6
CONTINUOUS
10
63.8678
20
-63.7037
11
63.7214
21
-63.6645
0
LINE
8
BLACK
6
CONTINUOUS
10
63.7214
20
-63.6645
11
63.572
21
-63.6381
0
LINE
8
BLACK
6
CONTINUOUS
10
63.572
20
-63.6381
11
63.5278
21
-63.6126
0
LINE
8
BLACK
6
CONTINUOUS
10
63.5278
20
-63.6126
11
63.4785
21
-63.5994
0
LINE
8
BLACK
6
CONTINUOUS
10
63.4785
20
-63.5994
11
63.3543
21
-63.5124
0
LINE
8
BLACK
6
CONTINUOUS
10
63.3543
20
-63.5124
11
63.223
21
-63.4366
0
LINE
8
BLACK
6
CONTINUOUS
10
63.223
20
-63.4366
11
63.1255
21
-63.3204
0
LINE
8
BLACK
6
CONTINUOUS
10
63.1255
20
-63.3204
11
58.4156
21
-58.6105
0
LINE
8
BLACK
6
CONTINUOUS
10
58.4156
20
-58.6105
11
56.415
21
-58.6105
0
LINE
8
BLACK
6
CONTINUOUS
10
56.415
20
-58.6105
11
56.118
21
-58.5581
0
LINE
8
BLACK
6
CONTINUOUS
10
56.118
20
-58.5581
11
55.769
21
-58.3566
0
LINE
8
BLACK
6
CONTINUOUS
10
55.769
20
-58.3566
11
55.7362
21
-58.3175
0
LINE
8
BLACK
6
CONTINUOUS
10
55.7362
20
-58.3175
11
55.665
21
-58.3175
0
LINE
8
BLACK
6
CONTINUOUS
10
55.665
20
-58.3175
11
55.665
21
-58.2327
0
LINE
8
BLACK
6
CONTINUOUS
10
55.665
20
-58.2327
11
55.5099
21
-58.0478
0
LINE
8
BLACK
6
CONTINUOUS
10
55.5099
20
-58.0478
11
55.372
21
-57.669
0
LINE
8
BLACK
6
CONTINUOUS
10
55.372
20
-57.669
11
55.372
21
-57.266
0
LINE
8
BLACK
6
CONTINUOUS
10
55.372
20
-57.266
11
55.5099
21
-56.8872
0
LINE
8
BLACK
6
CONTINUOUS
10
55.5099
20
-56.8872
11
55.665
21
-56.7023
0
LINE
8
BLACK
6
CONTINUOUS
10
55.665
20
-56.7023
11
55.665
21
-56.6175
0
LINE
8
BLACK
6
CONTINUOUS
10
55.665
20
-56.6175
11
55.7362
21
-56.6175
0
LINE
8
BLACK
6
CONTINUOUS
10
55.7362
20
-56.6175
11
55.769
21
-56.5784
0
LINE
8
BLACK
6
CONTINUOUS
10
55.769
20
-56.5784
11
56.118
21
-56.3769
0
LINE
8
BLACK
6
CONTINUOUS
10
56.118
20
-56.3769
11
56.415
21
-56.3245
0
LINE
8
BLACK
6
CONTINUOUS
10
56.415
20
-56.3245
11
58.8391
21
-56.3245
0
LINE
8
BLACK
6
CONTINUOUS
10
58.8391
20
-56.3245
11
58.9902
21
-56.3113
0
LINE
8
BLACK
6
CONTINUOUS
10
58.9902
20
-56.3113
11
59.1366
21
-56.3505
0
LINE
8
BLACK
6
CONTINUOUS
10
88.1512
20
-61.3787
11
88.112
21
-61.5251
0
LINE
8
BLACK
6
CONTINUOUS
10
88.112
20
-61.5251
11
88.0856
21
-61.6745
0
LINE
8
BLACK
6
CONTINUOUS
10
88.0856
20
-61.6745
11
88.0601
21
-61.7187
0
LINE
8
BLACK
6
CONTINUOUS
10
88.0601
20
-61.7187
11
88.0469
21
-61.768
0
LINE
8
BLACK
6
CONTINUOUS
10
88.0469
20
-61.768
11
87.9599
21
-61.8922
0
LINE
8
BLACK
6
CONTINUOUS
10
87.9599
20
-61.8922
11
87.8841
21
-62.0235
0
LINE
8
BLACK
6
CONTINUOUS
10
87.8841
20
-62.0235
11
87.7679
21
-62.121
0
LINE
8
BLACK
6
CONTINUOUS
10
87.7679
20
-62.121
11
86.5685
21
-63.3204
0
LINE
8
BLACK
6
CONTINUOUS
10
86.5685
20
-63.3204
11
86.471
21
-63.4366
0
LINE
8
BLACK
6
CONTINUOUS
10
86.471
20
-63.4366
11
86.3397
21
-63.5124
0
LINE
8
BLACK
6
CONTINUOUS
10
86.3397
20
-63.5124
11
86.2155
21
-63.5994
0
LINE
8
BLACK
6
CONTINUOUS
10
86.2155
20
-63.5994
11
86.1662
21
-63.6126
0
LINE
8
BLACK
6
CONTINUOUS
10
86.1662
20
-63.6126
11
86.122
21
-63.6381
0
LINE
8
BLACK
6
CONTINUOUS
10
86.122
20
-63.6381
11
85.9726
21
-63.6645
0
LINE
8
BLACK
6
CONTINUOUS
10
85.9726
20
-63.6645
11
85.8262
21
-63.7037
0
LINE
8
BLACK
6
CONTINUOUS
10
85.8262
20
-63.7037
11
85.6751
21
-63.6905
0
LINE
8
BLACK
6
CONTINUOUS
10
85.6751
20
-63.6905
11
83.085
21
-63.6905
0
LINE
8
BLACK
6
CONTINUOUS
10
83.085
20
-63.6905
11
82.788
21
-63.6381
0
LINE
8
BLACK
6
CONTINUOUS
10
82.788
20
-63.6381
11
82.439
21
-63.4366
0
LINE
8
BLACK
6
CONTINUOUS
10
82.439
20
-63.4366
11
82.1799
21
-63.1278
0
LINE
8
BLACK
6
CONTINUOUS
10
82.1799
20
-63.1278
11
82.042
21
-62.749
0
LINE
8
BLACK
6
CONTINUOUS
10
82.042
20
-62.749
11
82.042
21
-62.346
0
LINE
8
BLACK
6
CONTINUOUS
10
82.042
20
-62.346
11
82.1799
21
-61.9672
0
LINE
8
BLACK
6
CONTINUOUS
10
82.1799
20
-61.9672
11
82.439
21
-61.6584
0
LINE
8
BLACK
6
CONTINUOUS
10
82.439
20
-61.6584
11
82.788
21
-61.4569
0
LINE
8
BLACK
6
CONTINUOUS
10
82.788
20
-61.4569
11
83.085
21
-61.4045
0
LINE
8
BLACK
6
CONTINUOUS
10
83.085
20
-61.4045
11
85.2516
21
-61.4045
0
LINE
8
BLACK
6
CONTINUOUS
10
85.2516
20
-61.4045
11
85.852
21
-60.8041
0
LINE
8
BLACK
6
CONTINUOUS
10
85.852
20
-60.8041
11
85.852
21
-59.9075
0
LINE
8
BLACK
6
CONTINUOUS
10
85.852
20
-59.9075
11
85.852
21
-54.8275
0
LINE
8
BLACK
6
CONTINUOUS
10
85.852
20
-54.8275
11
85.9044
21
-54.5305
0
LINE
8
BLACK
6
CONTINUOUS
10
85.9044
20
-54.5305
11
86.1059
21
-54.1815
0
LINE
8
BLACK
6
CONTINUOUS
10
86.1059
20
-54.1815
11
86.4147
21
-53.9224
0
LINE
8
BLACK
6
CONTINUOUS
10
86.4147
20
-53.9224
11
86.7935
21
-53.7845
0
LINE
8
BLACK
6
CONTINUOUS
10
86.7935
20
-53.7845
11
87.1965
21
-53.7845
0
LINE
8
BLACK
6
CONTINUOUS
10
87.1965
20
-53.7845
11
87.5753
21
-53.9224
0
LINE
8
BLACK
6
CONTINUOUS
10
87.5753
20
-53.9224
11
87.8841
21
-54.1815
0
LINE
8
BLACK
6
CONTINUOUS
10
87.8841
20
-54.1815
11
88.0856
21
-54.5305
0
LINE
8
BLACK
6
CONTINUOUS
10
88.0856
20
-54.5305
11
88.138
21
-54.8275
0
LINE
8
BLACK
6
CONTINUOUS
10
88.138
20
-54.8275
11
88.138
21
-61.2276
0
LINE
8
BLACK
6
CONTINUOUS
10
88.138
20
-61.2276
11
88.1512
21
-61.3787
0
LINE
8
BLACK
6
CONTINUOUS
10
73.2726
20
-58.8905
11
73.422
21
-58.9169
0
LINE
8
BLACK
6
CONTINUOUS
10
73.422
20
-58.9169
11
73.4662
21
-58.9424
0
LINE
8
BLACK
6
CONTINUOUS
10
73.4662
20
-58.9424
11
73.5155
21
-58.9556
0
LINE
8
BLACK
6
CONTINUOUS
10
73.5155
20
-58.9556
11
73.6397
21
-59.0426
0
LINE
8
BLACK
6
CONTINUOUS
10
73.6397
20
-59.0426
11
73.771
21
-59.1184
0
LINE
8
BLACK
6
CONTINUOUS
10
73.771
20
-59.1184
11
73.8685
21
-59.2346
0
LINE
8
BLACK
6
CONTINUOUS
10
73.8685
20
-59.2346
11
76.4439
21
-61.81
0
LINE
8
BLACK
6
CONTINUOUS
10
76.4439
20
-61.81
11
76.6169
21
-62.057
0
LINE
8
BLACK
6
CONTINUOUS
10
76.6169
20
-62.057
11
76.7212
21
-62.4463
0
LINE
8
BLACK
6
CONTINUOUS
10
76.7212
20
-62.4463
11
76.6861
21
-62.8479
0
LINE
8
BLACK
6
CONTINUOUS
10
76.6861
20
-62.8479
11
76.5157
21
-63.2132
0
LINE
8
BLACK
6
CONTINUOUS
10
76.5157
20
-63.2132
11
76.2307
21
-63.4982
0
LINE
8
BLACK
6
CONTINUOUS
10
76.2307
20
-63.4982
11
75.8654
21
-63.6686
0
LINE
8
BLACK
6
CONTINUOUS
10
75.8654
20
-63.6686
11
75.4638
21
-63.7037
0
LINE
8
BLACK
6
CONTINUOUS
10
75.4638
20
-63.7037
11
75.0745
21
-63.5994
0
LINE
8
BLACK
6
CONTINUOUS
10
75.0745
20
-63.5994
11
74.8275
21
-63.4264
0
LINE
8
BLACK
6
CONTINUOUS
10
74.8275
20
-63.4264
11
72.5516
21
-61.1505
0
LINE
8
BLACK
6
CONTINUOUS
10
72.5516
20
-61.1505
11
69.115
21
-61.1505
0
LINE
8
BLACK
6
CONTINUOUS
10
69.115
20
-61.1505
11
68.818
21
-61.0981
0
LINE
8
BLACK
6
CONTINUOUS
10
68.818
20
-61.0981
11
68.469
21
-60.8966
0
LINE
8
BLACK
6
CONTINUOUS
10
68.469
20
-60.8966
11
68.2099
21
-60.5878
0
LINE
8
BLACK
6
CONTINUOUS
10
68.2099
20
-60.5878
11
68.072
21
-60.209
0
LINE
8
BLACK
6
CONTINUOUS
10
68.072
20
-60.209
11
68.072
21
-59.806
0
LINE
8
BLACK
6
CONTINUOUS
10
68.072
20
-59.806
11
68.2099
21
-59.4272
0
LINE
8
BLACK
6
CONTINUOUS
10
68.2099
20
-59.4272
11
68.469
21
-59.1184
0
LINE
8
BLACK
6
CONTINUOUS
10
68.469
20
-59.1184
11
68.818
21
-58.9169
0
LINE
8
BLACK
6
CONTINUOUS
10
68.818
20
-58.9169
11
69.115
21
-58.8645
0
LINE
8
BLACK
6
CONTINUOUS
10
69.115
20
-58.8645
11
72.9751
21
-58.8645
0
LINE
8
BLACK
6
CONTINUOUS
10
72.9751
20
-58.8645
11
73.1262
21
-58.8513
0
LINE
8
BLACK
6
CONTINUOUS
10
73.1262
20
-58.8513
11
73.2726
21
-58.8905
0
LINE
8
BLACK
6
CONTINUOUS
10
57.0953
20
-47.5724
11
57.2802
21
-47.7275
0
LINE
8
BLACK
6
CONTINUOUS
10
57.2802
20
-47.7275
11
57.365
21
-47.7275
0
LINE
8
BLACK
6
CONTINUOUS
10
57.365
20
-47.7275
11
57.365
21
-47.7987
0
LINE
8
BLACK
6
CONTINUOUS
10
57.365
20
-47.7987
11
57.4041
21
-47.8315
0
LINE
8
BLACK
6
CONTINUOUS
10
57.4041
20
-47.8315
11
57.6056
21
-48.1805
0
LINE
8
BLACK
6
CONTINUOUS
10
57.6056
20
-48.1805
11
57.658
21
-48.4775
0
LINE
8
BLACK
6
CONTINUOUS
10
57.658
20
-48.4775
11
57.658
21
-50.4781
0
LINE
8
BLACK
6
CONTINUOUS
10
57.658
20
-50.4781
11
58.4244
21
-51.2445
0
LINE
8
BLACK
6
CONTINUOUS
10
58.4244
20
-51.2445
11
59.0051
21
-51.2445
0
LINE
8
BLACK
6
CONTINUOUS
10
59.0051
20
-51.2445
11
59.1562
21
-51.2313
0
LINE
8
BLACK
6
CONTINUOUS
10
59.1562
20
-51.2313
11
59.3026
21
-51.2705
0
LINE
8
BLACK
6
CONTINUOUS
10
59.3026
20
-51.2705
11
59.452
21
-51.2969
0
LINE
8
BLACK
6
CONTINUOUS
10
59.452
20
-51.2969
11
59.4962
21
-51.3224
0
LINE
8
BLACK
6
CONTINUOUS
10
59.4962
20
-51.3224
11
59.5455
21
-51.3356
0
LINE
8
BLACK
6
CONTINUOUS
10
59.5455
20
-51.3356
11
59.6697
21
-51.4226
0
LINE
8
BLACK
6
CONTINUOUS
10
59.6697
20
-51.4226
11
59.801
21
-51.4984
0
LINE
8
BLACK
6
CONTINUOUS
10
59.801
20
-51.4984
11
59.8985
21
-51.6146
0
LINE
8
BLACK
6
CONTINUOUS
10
59.8985
20
-51.6146
11
65.8784
21
-57.5945
0
LINE
8
BLACK
6
CONTINUOUS
10
65.8784
20
-57.5945
11
66.2016
21
-57.5945
0
LINE
8
BLACK
6
CONTINUOUS
10
66.2016
20
-57.5945
11
67.1015
21
-56.6946
0
LINE
8
BLACK
6
CONTINUOUS
10
67.1015
20
-56.6946
11
67.199
21
-56.5784
0
LINE
8
BLACK
6
CONTINUOUS
10
67.199
20
-56.5784
11
67.3303
21
-56.5026
0
LINE
8
BLACK
6
CONTINUOUS
10
67.3303
20
-56.5026
11
67.4545
21
-56.4156
0
LINE
8
BLACK
6
CONTINUOUS
10
67.4545
20
-56.4156
11
67.5038
21
-56.4024
0
LINE
8
BLACK
6
CONTINUOUS
10
67.5038
20
-56.4024
11
67.548
21
-56.3769
0
LINE
8
BLACK
6
CONTINUOUS
10
67.548
20
-56.3769
11
67.6974
21
-56.3505
0
LINE
8
BLACK
6
CONTINUOUS
10
67.6974
20
-56.3505
11
67.8438
21
-56.3113
0
LINE
8
BLACK
6
CONTINUOUS
10
67.8438
20
-56.3113
11
67.9949
21
-56.3245
0
LINE
8
BLACK
6
CONTINUOUS
10
67.9949
20
-56.3245
11
69.315
21
-56.3245
0
LINE
8
BLACK
6
CONTINUOUS
10
69.315
20
-56.3245
11
69.612
21
-56.3769
0
LINE
8
BLACK
6
CONTINUOUS
10
69.612
20
-56.3769
11
69.961
21
-56.5784
0
LINE
8
BLACK
6
CONTINUOUS
10
69.961
20
-56.5784
11
70.2201
21
-56.8872
0
LINE
8
BLACK
6
CONTINUOUS
10
70.2201
20
-56.8872
11
70.358
21
-57.266
0
LINE
8
BLACK
6
CONTINUOUS
10
70.358
20
-57.266
11
70.358
21
-57.669
0
LINE
8
BLACK
6
CONTINUOUS
10
70.358
20
-57.669
11
70.2201
21
-58.0478
0
LINE
8
BLACK
6
CONTINUOUS
10
70.2201
20
-58.0478
11
69.961
21
-58.3566
0
LINE
8
BLACK
6
CONTINUOUS
10
69.961
20
-58.3566
11
69.612
21
-58.5581
0
LINE
8
BLACK
6
CONTINUOUS
10
69.612
20
-58.5581
11
69.315
21
-58.6105
0
LINE
8
BLACK
6
CONTINUOUS
10
69.315
20
-58.6105
11
68.4184
21
-58.6105
0
LINE
8
BLACK
6
CONTINUOUS
10
68.4184
20
-58.6105
11
67.5185
21
-59.5104
0
LINE
8
BLACK
6
CONTINUOUS
10
67.5185
20
-59.5104
11
67.421
21
-59.6266
0
LINE
8
BLACK
6
CONTINUOUS
10
67.421
20
-59.6266
11
67.2897
21
-59.7024
0
LINE
8
BLACK
6
CONTINUOUS
10
67.2897
20
-59.7024
11
67.1655
21
-59.7894
0
LINE
8
BLACK
6
CONTINUOUS
10
67.1655
20
-59.7894
11
67.1162
21
-59.8026
0
LINE
8
BLACK
6
CONTINUOUS
10
67.1162
20
-59.8026
11
67.072
21
-59.8281
0
LINE
8
BLACK
6
CONTINUOUS
10
67.072
20
-59.8281
11
66.9226
21
-59.8545
0
LINE
8
BLACK
6
CONTINUOUS
10
66.9226
20
-59.8545
11
66.7762
21
-59.8937
0
LINE
8
BLACK
6
CONTINUOUS
10
66.7762
20
-59.8937
11
66.6251
21
-59.8805
0
LINE
8
BLACK
6
CONTINUOUS
10
66.6251
20
-59.8805
11
65.4549
21
-59.8805
0
LINE
8
BLACK
6
CONTINUOUS
10
65.4549
20
-59.8805
11
65.3038
21
-59.8937
0
LINE
8
BLACK
6
CONTINUOUS
10
65.3038
20
-59.8937
11
65.1574
21
-59.8545
0
LINE
8
BLACK
6
CONTINUOUS
10
65.1574
20
-59.8545
11
65.008
21
-59.8281
0
LINE
8
BLACK
6
CONTINUOUS
10
65.008
20
-59.8281
11
64.9638
21
-59.8026
0
LINE
8
BLACK
6
CONTINUOUS
10
64.9638
20
-59.8026
11
64.9145
21
-59.7894
0
LINE
8
BLACK
6
CONTINUOUS
10
64.9145
20
-59.7894
11
64.7903
21
-59.7024
0
LINE
8
BLACK
6
CONTINUOUS
10
64.7903
20
-59.7024
11
64.659
21
-59.6266
0
LINE
8
BLACK
6
CONTINUOUS
10
64.659
20
-59.6266
11
64.5615
21
-59.5104
0
LINE
8
BLACK
6
CONTINUOUS
10
64.5615
20
-59.5104
11
58.5816
21
-53.5305
0
LINE
8
BLACK
6
CONTINUOUS
10
58.5816
20
-53.5305
11
58.0009
21
-53.5305
0
LINE
8
BLACK
6
CONTINUOUS
10
58.0009
20
-53.5305
11
57.8498
21
-53.5437
0
LINE
8
BLACK
6
CONTINUOUS
10
57.8498
20
-53.5437
11
57.7034
21
-53.5045
0
LINE
8
BLACK
6
CONTINUOUS
10
57.7034
20
-53.5045
11
57.554
21
-53.4781
0
LINE
8
BLACK
6
CONTINUOUS
10
57.554
20
-53.4781
11
57.5098
21
-53.4526
0
LINE
8
BLACK
6
CONTINUOUS
10
57.5098
20
-53.4526
11
57.4605
21
-53.4394
0
LINE
8
BLACK
6
CONTINUOUS
10
57.4605
20
-53.4394
11
57.3363
21
-53.3524
0
LINE
8
BLACK
6
CONTINUOUS
10
57.3363
20
-53.3524
11
57.205
21
-53.2766
0
LINE
8
BLACK
6
CONTINUOUS
10
57.205
20
-53.2766
11
57.1075
21
-53.1604
0
LINE
8
BLACK
6
CONTINUOUS
10
57.1075
20
-53.1604
11
55.7421
21
-51.795
0
LINE
8
BLACK
6
CONTINUOUS
10
55.7421
20
-51.795
11
55.6259
21
-51.6975
0
LINE
8
BLACK
6
CONTINUOUS
10
55.6259
20
-51.6975
11
55.5501
21
-51.5662
0
LINE
8
BLACK
6
CONTINUOUS
10
55.5501
20
-51.5662
11
55.4631
21
-51.442
0
LINE
8
BLACK
6
CONTINUOUS
10
55.4631
20
-51.442
11
55.4499
21
-51.3927
0
LINE
8
BLACK
6
CONTINUOUS
10
55.4499
20
-51.3927
11
55.4244
21
-51.3485
0
LINE
8
BLACK
6
CONTINUOUS
10
55.4244
20
-51.3485
11
55.398
21
-51.1991
0
LINE
8
BLACK
6
CONTINUOUS
10
55.398
20
-51.1991
11
55.3588
21
-51.0527
0
LINE
8
BLACK
6
CONTINUOUS
10
55.3588
20
-51.0527
11
55.372
21
-50.9016
0
LINE
8
BLACK
6
CONTINUOUS
10
55.372
20
-50.9016
11
55.372
21
-48.4775
0
LINE
8
BLACK
6
CONTINUOUS
10
55.372
20
-48.4775
11
55.4244
21
-48.1805
0
LINE
8
BLACK
6
CONTINUOUS
10
55.4244
20
-48.1805
11
55.6259
21
-47.8315
0
LINE
8
BLACK
6
CONTINUOUS
10
55.6259
20
-47.8315
11
55.665
21
-47.7987
0
LINE
8
BLACK
6
CONTINUOUS
10
55.665
20
-47.7987
11
55.665
21
-47.7275
0
LINE
8
BLACK
6
CONTINUOUS
10
55.665
20
-47.7275
11
55.7498
21
-47.7275
0
LINE
8
BLACK
6
CONTINUOUS
10
55.7498
20
-47.7275
11
55.9347
21
-47.5724
0
LINE
8
BLACK
6
CONTINUOUS
10
55.9347
20
-47.5724
11
56.3135
21
-47.4345
0
LINE
8
BLACK
6
CONTINUOUS
10
56.3135
20
-47.4345
11
56.7165
21
-47.4345
0
LINE
8
BLACK
6
CONTINUOUS
10
56.7165
20
-47.4345
11
57.0953
21
-47.5724
0
LINE
8
BLACK
6
CONTINUOUS
10
90.2199
20
-42.3545
11
92.175
21
-42.3545
0
LINE
8
BLACK
6
CONTINUOUS
10
92.175
20
-42.3545
11
92.472
21
-42.4069
0
LINE
8
BLACK
6
CONTINUOUS
10
92.472
20
-42.4069
11
92.8022
21
-42.5975
0
LINE
8
BLACK
6
CONTINUOUS
10
92.8022
20
-42.5975
11
92.975
21
-42.5975
0
LINE
8
BLACK
6
CONTINUOUS
10
92.975
20
-42.5975
11
92.975
21
-42.7919
0
LINE
8
BLACK
6
CONTINUOUS
10
92.975
20
-42.7919
11
93.0801
21
-42.9172
0
LINE
8
BLACK
6
CONTINUOUS
10
93.0801
20
-42.9172
11
93.218
21
-43.296
0
LINE
8
BLACK
6
CONTINUOUS
10
93.218
20
-43.296
11
93.218
21
-43.699
0
LINE
8
BLACK
6
CONTINUOUS
10
93.218
20
-43.699
11
93.0801
21
-44.0778
0
LINE
8
BLACK
6
CONTINUOUS
10
93.0801
20
-44.0778
11
92.975
21
-44.2031
0
LINE
8
BLACK
6
CONTINUOUS
10
92.975
20
-44.2031
11
92.975
21
-44.3975
0
LINE
8
BLACK
6
CONTINUOUS
10
92.975
20
-44.3975
11
92.8022
21
-44.3975
0
LINE
8
BLACK
6
CONTINUOUS
10
92.8022
20
-44.3975
11
92.472
21
-44.5881
0
LINE
8
BLACK
6
CONTINUOUS
10
92.472
20
-44.5881
11
92.175
21
-44.6405
0
LINE
8
BLACK
6
CONTINUOUS
10
92.175
20
-44.6405
11
90.6434
21
-44.6405
0
LINE
8
BLACK
6
CONTINUOUS
10
90.6434
20
-44.6405
11
87.2035
21
-48.0804
0
LINE
8
BLACK
6
CONTINUOUS
10
87.2035
20
-48.0804
11
87.106
21
-48.1966
0
LINE
8
BLACK
6
CONTINUOUS
10
87.106
20
-48.1966
11
86.9747
21
-48.2724
0
LINE
8
BLACK
6
CONTINUOUS
10
86.9747
20
-48.2724
11
86.8505
21
-48.3594
0
LINE
8
BLACK
6
CONTINUOUS
10
86.8505
20
-48.3594
11
86.8012
21
-48.3726
0
LINE
8
BLACK
6
CONTINUOUS
10
86.8012
20
-48.3726
11
86.757
21
-48.3981
0
LINE
8
BLACK
6
CONTINUOUS
10
86.757
20
-48.3981
11
86.6076
21
-48.4245
0
LINE
8
BLACK
6
CONTINUOUS
10
86.6076
20
-48.4245
11
86.4612
21
-48.4637
0
LINE
8
BLACK
6
CONTINUOUS
10
86.4612
20
-48.4637
11
86.3101
21
-48.4505
0
LINE
8
BLACK
6
CONTINUOUS
10
86.3101
20
-48.4505
11
81.9649
21
-48.4505
0
LINE
8
BLACK
6
CONTINUOUS
10
81.9649
20
-48.4505
11
81.8138
21
-48.4637
0
LINE
8
BLACK
6
CONTINUOUS
10
81.8138
20
-48.4637
11
81.6674
21
-48.4245
0
LINE
8
BLACK
6
CONTINUOUS
10
81.6674
20
-48.4245
11
81.518
21
-48.3981
0
LINE
8
BLACK
6
CONTINUOUS
10
81.518
20
-48.3981
11
81.4738
21
-48.3726
0
LINE
8
BLACK
6
CONTINUOUS
10
81.4738
20
-48.3726
11
81.4245
21
-48.3594
0
LINE
8
BLACK
6
CONTINUOUS
10
81.4245
20
-48.3594
11
81.3003
21
-48.2724
0
LINE
8
BLACK
6
CONTINUOUS
10
81.3003
20
-48.2724
11
81.169
21
-48.1966
0
LINE
8
BLACK
6
CONTINUOUS
10
81.169
20
-48.1966
11
81.0715
21
-48.0804
0
LINE
8
BLACK
6
CONTINUOUS
10
81.0715
20
-48.0804
11
80.518
21
-47.5269
0
LINE
8
BLACK
6
CONTINUOUS
10
80.518
20
-47.5269
11
80.518
21
-53.1841
0
LINE
8
BLACK
6
CONTINUOUS
10
80.518
20
-53.1841
11
82.3884
21
-55.0545
0
LINE
8
BLACK
6
CONTINUOUS
10
82.3884
20
-55.0545
11
82.7116
21
-55.0545
0
LINE
8
BLACK
6
CONTINUOUS
10
82.7116
20
-55.0545
11
83.7175
21
-54.0486
0
LINE
8
BLACK
6
CONTINUOUS
10
83.7175
20
-54.0486
11
83.9645
21
-53.8756
0
LINE
8
BLACK
6
CONTINUOUS
10
83.9645
20
-53.8756
11
84.3538
21
-53.7713
0
LINE
8
BLACK
6
CONTINUOUS
10
84.3538
20
-53.7713
11
84.7554
21
-53.8064
0
LINE
8
BLACK
6
CONTINUOUS
10
84.7554
20
-53.8064
11
85.1207
21
-53.9768
0
LINE
8
BLACK
6
CONTINUOUS
10
85.1207
20
-53.9768
11
85.4057
21
-54.2618
0
LINE
8
BLACK
6
CONTINUOUS
10
85.4057
20
-54.2618
11
85.5761
21
-54.6271
0
LINE
8
BLACK
6
CONTINUOUS
10
85.5761
20
-54.6271
11
85.6112
21
-55.0287
0
LINE
8
BLACK
6
CONTINUOUS
10
85.6112
20
-55.0287
11
85.5069
21
-55.418
0
LINE
8
BLACK
6
CONTINUOUS
10
85.5069
20
-55.418
11
85.3339
21
-55.665
0
LINE
8
BLACK
6
CONTINUOUS
10
85.3339
20
-55.665
11
84.0285
21
-56.9704
0
LINE
8
BLACK
6
CONTINUOUS
10
84.0285
20
-56.9704
11
83.931
21
-57.0866
0
LINE
8
BLACK
6
CONTINUOUS
10
83.931
20
-57.0866
11
83.7997
21
-57.1624
0
LINE
8
BLACK
6
CONTINUOUS
10
83.7997
20
-57.1624
11
83.6755
21
-57.2494
0
LINE
8
BLACK
6
CONTINUOUS
10
83.6755
20
-57.2494
11
83.6262
21
-57.2626
0
LINE
8
BLACK
6
CONTINUOUS
10
83.6262
20
-57.2626
11
83.582
21
-57.2881
0
LINE
8
BLACK
6
CONTINUOUS
10
83.582
20
-57.2881
11
83.4326
21
-57.3145
0
LINE
8
BLACK
6
CONTINUOUS
10
83.4326
20
-57.3145
11
83.2862
21
-57.3537
0
LINE
8
BLACK
6
CONTINUOUS
10
83.2862
20
-57.3537
11
83.1351
21
-57.3405
0
LINE
8
BLACK
6
CONTINUOUS
10
83.1351
20
-57.3405
11
82.3884
21
-57.3405
0
LINE
8
BLACK
6
CONTINUOUS
10
82.3884
20
-57.3405
11
81.4885
21
-58.2404
0
LINE
8
BLACK
6
CONTINUOUS
10
81.4885
20
-58.2404
11
81.391
21
-58.3566
0
LINE
8
BLACK
6
CONTINUOUS
10
81.391
20
-58.3566
11
81.2597
21
-58.4324
0
LINE
8
BLACK
6
CONTINUOUS
10
81.2597
20
-58.4324
11
81.1355
21
-58.5194
0
LINE
8
BLACK
6
CONTINUOUS
10
81.1355
20
-58.5194
11
81.0862
21
-58.5326
0
LINE
8
BLACK
6
CONTINUOUS
10
81.0862
20
-58.5326
11
81.042
21
-58.5581
0
LINE
8
BLACK
6
CONTINUOUS
10
81.042
20
-58.5581
11
80.8926
21
-58.5845
0
LINE
8
BLACK
6
CONTINUOUS
10
80.8926
20
-58.5845
11
80.7462
21
-58.6237
0
LINE
8
BLACK
6
CONTINUOUS
10
80.7462
20
-58.6237
11
80.5951
21
-58.6105
0
LINE
8
BLACK
6
CONTINUOUS
10
80.5951
20
-58.6105
11
76.8849
21
-58.6105
0
LINE
8
BLACK
6
CONTINUOUS
10
76.8849
20
-58.6105
11
76.7338
21
-58.6237
0
LINE
8
BLACK
6
CONTINUOUS
10
76.7338
20
-58.6237
11
76.5874
21
-58.5845
0
LINE
8
BLACK
6
CONTINUOUS
10
76.5874
20
-58.5845
11
76.438
21
-58.5581
0
LINE
8
BLACK
6
CONTINUOUS
10
76.438
20
-58.5581
11
76.3938
21
-58.5326
0
LINE
8
BLACK
6
CONTINUOUS
10
76.3938
20
-58.5326
11
76.3445
21
-58.5194
0
LINE
8
BLACK
6
CONTINUOUS
10
76.3445
20
-58.5194
11
76.2203
21
-58.4324
0
LINE
8
BLACK
6
CONTINUOUS
10
76.2203
20
-58.4324
11
76.089
21
-58.3566
0
LINE
8
BLACK
6
CONTINUOUS
10
76.089
20
-58.3566
11
75.9915
21
-58.2404
0
LINE
8
BLACK
6
CONTINUOUS
10
75.9915
20
-58.2404
11
74.6861
21
-56.935
0
LINE
8
BLACK
6
CONTINUOUS
10
74.6861
20
-56.935
11
74.5131
21
-56.688
0
LINE
8
BLACK
6
CONTINUOUS
10
74.5131
20
-56.688
11
74.4088
21
-56.2987
0
LINE
8
BLACK
6
CONTINUOUS
10
74.4088
20
-56.2987
11
74.4439
21
-55.8971
0
LINE
8
BLACK
6
CONTINUOUS
10
74.4439
20
-55.8971
11
74.6143
21
-55.5318
0
LINE
8
BLACK
6
CONTINUOUS
10
74.6143
20
-55.5318
11
74.8993
21
-55.2468
0
LINE
8
BLACK
6
CONTINUOUS
10
74.8993
20
-55.2468
11
75.2646
21
-55.0764
0
LINE
8
BLACK
6
CONTINUOUS
10
75.2646
20
-55.0764
11
75.6662
21
-55.0413
0
LINE
8
BLACK
6
CONTINUOUS
10
75.6662
20
-55.0413
11
76.0555
21
-55.1456
0
LINE
8
BLACK
6
CONTINUOUS
10
76.0555
20
-55.1456
11
76.3025
21
-55.3186
0
LINE
8
BLACK
6
CONTINUOUS
10
76.3025
20
-55.3186
11
77.3084
21
-56.3245
0
LINE
8
BLACK
6
CONTINUOUS
10
77.3084
20
-56.3245
11
80.1716
21
-56.3245
0
LINE
8
BLACK
6
CONTINUOUS
10
80.1716
20
-56.3245
11
80.2986
21
-56.1975
0
LINE
8
BLACK
6
CONTINUOUS
10
80.2986
20
-56.1975
11
78.6021
21
-54.501
0
LINE
8
BLACK
6
CONTINUOUS
10
78.6021
20
-54.501
11
78.4859
21
-54.4035
0
LINE
8
BLACK
6
CONTINUOUS
10
78.4859
20
-54.4035
11
78.4101
21
-54.2722
0
LINE
8
BLACK
6
CONTINUOUS
10
78.4101
20
-54.2722
11
78.3231
21
-54.148
0
LINE
8
BLACK
6
CONTINUOUS
10
78.3231
20
-54.148
11
78.3099
21
-54.0987
0
LINE
8
BLACK
6
CONTINUOUS
10
78.3099
20
-54.0987
11
78.2844
21
-54.0545
0
LINE
8
BLACK
6
CONTINUOUS
10
78.2844
20
-54.0545
11
78.258
21
-53.9051
0
LINE
8
BLACK
6
CONTINUOUS
10
78.258
20
-53.9051
11
78.2188
21
-53.7587
0
LINE
8
BLACK
6
CONTINUOUS
10
78.2188
20
-53.7587
11
78.232
21
-53.6076
0
LINE
8
BLACK
6
CONTINUOUS
10
78.232
20
-53.6076
11
78.232
21
-45.9375
0
LINE
8
BLACK
6
CONTINUOUS
10
78.232
20
-45.9375
11
78.232
21
-45.9375
0
LINE
8
BLACK
6
CONTINUOUS
10
78.232
20
-45.9375
11
78.232
21
-43.3975
0
LINE
8
BLACK
6
CONTINUOUS
10
78.232
20
-43.3975
11
78.2844
21
-43.1005
0
LINE
8
BLACK
6
CONTINUOUS
10
78.2844
20
-43.1005
11
78.475
21
-42.7703
0
LINE
8
BLACK
6
CONTINUOUS
10
78.475
20
-42.7703
11
78.475
21
-42.5975
0
LINE
8
BLACK
6
CONTINUOUS
10
78.475
20
-42.5975
11
78.6694
21
-42.5975
0
LINE
8
BLACK
6
CONTINUOUS
10
78.6694
20
-42.5975
11
78.7947
21
-42.4924
0
LINE
8
BLACK
6
CONTINUOUS
10
78.7947
20
-42.4924
11
79.1735
21
-42.3545
0
LINE
8
BLACK
6
CONTINUOUS
10
79.1735
20
-42.3545
11
79.5765
21
-42.3545
0
LINE
8
BLACK
6
CONTINUOUS
10
79.5765
20
-42.3545
11
79.9553
21
-42.4924
0
LINE
8
BLACK
6
CONTINUOUS
10
79.9553
20
-42.4924
11
80.0806
21
-42.5975
0
LINE
8
BLACK
6
CONTINUOUS
10
80.0806
20
-42.5975
11
80.275
21
-42.5975
0
LINE
8
BLACK
6
CONTINUOUS
10
80.275
20
-42.5975
11
80.275
21
-42.7703
0
LINE
8
BLACK
6
CONTINUOUS
10
80.275
20
-42.7703
11
80.4656
21
-43.1005
0
LINE
8
BLACK
6
CONTINUOUS
10
80.4656
20
-43.1005
11
80.518
21
-43.3975
0
LINE
8
BLACK
6
CONTINUOUS
10
80.518
20
-43.3975
11
80.518
21
-44.9012
0
LINE
8
BLACK
6
CONTINUOUS
10
80.518
20
-44.9012
11
80.7462
21
-44.8813
0
LINE
8
BLACK
6
CONTINUOUS
10
80.7462
20
-44.8813
11
81.1355
21
-44.9856
0
LINE
8
BLACK
6
CONTINUOUS
10
81.1355
20
-44.9856
11
81.3825
21
-45.1586
0
LINE
8
BLACK
6
CONTINUOUS
10
81.3825
20
-45.1586
11
82.3884
21
-46.1645
0
LINE
8
BLACK
6
CONTINUOUS
10
82.3884
20
-46.1645
11
85.8866
21
-46.1645
0
LINE
8
BLACK
6
CONTINUOUS
10
85.8866
20
-46.1645
11
89.3265
21
-42.7246
0
LINE
8
BLACK
6
CONTINUOUS
10
89.3265
20
-42.7246
11
89.424
21
-42.6084
0
LINE
8
BLACK
6
CONTINUOUS
10
89.424
20
-42.6084
11
89.5553
21
-42.5326
0
LINE
8
BLACK
6
CONTINUOUS
10
89.5553
20
-42.5326
11
89.6795
21
-42.4456
0
LINE
8
BLACK
6
CONTINUOUS
10
89.6795
20
-42.4456
11
89.7288
21
-42.4324
0
LINE
8
BLACK
6
CONTINUOUS
10
89.7288
20
-42.4324
11
89.773
21
-42.4069
0
LINE
8
BLACK
6
CONTINUOUS
10
89.773
20
-42.4069
11
89.9224
21
-42.3805
0
LINE
8
BLACK
6
CONTINUOUS
10
89.9224
20
-42.3805
11
90.0688
21
-42.3413
0
LINE
8
BLACK
6
CONTINUOUS
10
90.0688
20
-42.3413
11
90.2199
21
-42.3545
0
LINE
8
BLACK
6
CONTINUOUS
10
69.7953
20
-41.2224
11
70.1041
21
-41.4815
0
LINE
8
BLACK
6
CONTINUOUS
10
70.1041
20
-41.4815
11
70.3056
21
-41.8305
0
LINE
8
BLACK
6
CONTINUOUS
10
70.3056
20
-41.8305
11
70.358
21
-42.1275
0
LINE
8
BLACK
6
CONTINUOUS
10
70.358
20
-42.1275
11
70.358
21
-52.4875
0
LINE
8
BLACK
6
CONTINUOUS
10
70.358
20
-52.4875
11
70.3056
21
-52.7845
0
LINE
8
BLACK
6
CONTINUOUS
10
70.3056
20
-52.7845
11
70.1041
21
-53.1335
0
LINE
8
BLACK
6
CONTINUOUS
10
70.1041
20
-53.1335
11
70.065
21
-53.1663
0
LINE
8
BLACK
6
CONTINUOUS
10
70.065
20
-53.1663
11
70.065
21
-53.2375
0
LINE
8
BLACK
6
CONTINUOUS
10
70.065
20
-53.2375
11
69.9802
21
-53.2375
0
LINE
8
BLACK
6
CONTINUOUS
10
69.9802
20
-53.2375
11
69.7953
21
-53.3926
0
LINE
8
BLACK
6
CONTINUOUS
10
69.7953
20
-53.3926
11
69.4165
21
-53.5305
0
LINE
8
BLACK
6
CONTINUOUS
10
69.4165
20
-53.5305
11
69.0135
21
-53.5305
0
LINE
8
BLACK
6
CONTINUOUS
10
69.0135
20
-53.5305
11
68.6347
21
-53.3926
0
LINE
8
BLACK
6
CONTINUOUS
10
68.6347
20
-53.3926
11
68.4498
21
-53.2375
0
LINE
8
BLACK
6
CONTINUOUS
10
68.4498
20
-53.2375
11
68.365
21
-53.2375
0
LINE
8
BLACK
6
CONTINUOUS
10
68.365
20
-53.2375
11
68.365
21
-53.1663
0
LINE
8
BLACK
6
CONTINUOUS
10
68.365
20
-53.1663
11
68.3259
21
-53.1335
0
LINE
8
BLACK
6
CONTINUOUS
10
68.3259
20
-53.1335
11
68.1244
21
-52.7845
0
LINE
8
BLACK
6
CONTINUOUS
10
68.1244
20
-52.7845
11
68.072
21
-52.4875
0
LINE
8
BLACK
6
CONTINUOUS
10
68.072
20
-52.4875
11
68.072
21
-42.1275
0
LINE
8
BLACK
6
CONTINUOUS
10
68.072
20
-42.1275
11
68.1244
21
-41.8305
0
LINE
8
BLACK
6
CONTINUOUS
10
68.1244
20
-41.8305
11
68.3259
21
-41.4815
0
LINE
8
BLACK
6
CONTINUOUS
10
68.3259
20
-41.4815
11
68.6347
21
-41.2224
0
LINE
8
BLACK
6
CONTINUOUS
10
68.6347
20
-41.2224
11
69.0135
21
-41.0845
0
LINE
8
BLACK
6
CONTINUOUS
10
69.0135
20
-41.0845
11
69.4165
21
-41.0845
0
LINE
8
BLACK
6
CONTINUOUS
10
69.4165
20
-41.0845
11
69.7953
21
-41.2224
0
LINE
8
BLACK
6
CONTINUOUS
10
95.1953
20
-42.4924
11
95.5041
21
-42.7515
0
LINE
8
BLACK
6
CONTINUOUS
10
95.5041
20
-42.7515
11
95.7056
21
-43.1005
0
LINE
8
BLACK
6
CONTINUOUS
10
95.7056
20
-43.1005
11
95.758
21
-43.3975
0
LINE
8
BLACK
6
CONTINUOUS
10
95.758
20
-43.3975
11
95.758
21
-45.5641
0
LINE
8
BLACK
6
CONTINUOUS
10
95.758
20
-45.5641
11
99.3039
21
-49.11
0
LINE
8
BLACK
6
CONTINUOUS
10
99.3039
20
-49.11
11
99.4769
21
-49.357
0
LINE
8
BLACK
6
CONTINUOUS
10
99.4769
20
-49.357
11
99.5812
21
-49.7463
0
LINE
8
BLACK
6
CONTINUOUS
10
99.5812
20
-49.7463
11
99.5461
21
-50.1479
0
LINE
8
BLACK
6
CONTINUOUS
10
99.5461
20
-50.1479
11
99.3757
21
-50.5132
0
LINE
8
BLACK
6
CONTINUOUS
10
99.3757
20
-50.5132
11
99.0907
21
-50.7982
0
LINE
8
BLACK
6
CONTINUOUS
10
99.0907
20
-50.7982
11
98.7254
21
-50.9686
0
LINE
8
BLACK
6
CONTINUOUS
10
98.7254
20
-50.9686
11
98.3238
21
-51.0037
0
LINE
8
BLACK
6
CONTINUOUS
10
98.3238
20
-51.0037
11
97.9345
21
-50.8994
0
LINE
8
BLACK
6
CONTINUOUS
10
97.9345
20
-50.8994
11
97.6875
21
-50.7264
0
LINE
8
BLACK
6
CONTINUOUS
10
97.6875
20
-50.7264
11
93.8421
21
-46.881
0
LINE
8
BLACK
6
CONTINUOUS
10
93.8421
20
-46.881
11
93.7259
21
-46.7835
0
LINE
8
BLACK
6
CONTINUOUS
10
93.7259
20
-46.7835
11
93.6501
21
-46.6522
0
LINE
8
BLACK
6
CONTINUOUS
10
93.6501
20
-46.6522
11
93.5631
21
-46.528
0
LINE
8
BLACK
6
CONTINUOUS
10
93.5631
20
-46.528
11
93.5499
21
-46.4787
0
LINE
8
BLACK
6
CONTINUOUS
10
93.5499
20
-46.4787
11
93.5244
21
-46.4345
0
LINE
8
BLACK
6
CONTINUOUS
10
93.5244
20
-46.4345
11
93.498
21
-46.2851
0
LINE
8
BLACK
6
CONTINUOUS
10
93.498
20
-46.2851
11
93.4588
21
-46.1387
0
LINE
8
BLACK
6
CONTINUOUS
10
93.4588
20
-46.1387
11
93.472
21
-45.9876
0
LINE
8
BLACK
6
CONTINUOUS
10
93.472
20
-45.9876
11
93.472
21
-43.3975
0
LINE
8
BLACK
6
CONTINUOUS
10
93.472
20
-43.3975
11
93.5244
21
-43.1005
0
LINE
8
BLACK
6
CONTINUOUS
10
93.5244
20
-43.1005
11
93.7259
21
-42.7515
0
LINE
8
BLACK
6
CONTINUOUS
10
93.7259
20
-42.7515
11
94.0347
21
-42.4924
0
LINE
8
BLACK
6
CONTINUOUS
10
94.0347
20
-42.4924
11
94.4135
21
-42.3545
0
LINE
8
BLACK
6
CONTINUOUS
10
94.4135
20
-42.3545
11
94.8165
21
-42.3545
0
LINE
8
BLACK
6
CONTINUOUS
10
94.8165
20
-42.3545
11
95.1953
21
-42.4924
0
LINE
8
BLACK
6
CONTINUOUS
10
68.0266
20
-32.2205
11
68.176
21
-32.2469
0
LINE
8
BLACK
6
CONTINUOUS
10
68.176
20
-32.2469
11
68.2202
21
-32.2724
0
LINE
8
BLACK
6
CONTINUOUS
10
68.2202
20
-32.2724
11
68.2695
21
-32.2856
0
LINE
8
BLACK
6
CONTINUOUS
10
68.2695
20
-32.2856
11
68.3937
21
-32.3726
0
LINE
8
BLACK
6
CONTINUOUS
10
68.3937
20
-32.3726
11
68.525
21
-32.4484
0
LINE
8
BLACK
6
CONTINUOUS
10
68.525
20
-32.4484
11
68.6225
21
-32.5646
0
LINE
8
BLACK
6
CONTINUOUS
10
68.6225
20
-32.5646
11
69.9879
21
-33.93
0
LINE
8
BLACK
6
CONTINUOUS
10
69.9879
20
-33.93
11
70.1041
21
-34.0275
0
LINE
8
BLACK
6
CONTINUOUS
10
70.1041
20
-34.0275
11
70.1799
21
-34.1588
0
LINE
8
BLACK
6
CONTINUOUS
10
70.1799
20
-34.1588
11
70.2669
21
-34.283
0
LINE
8
BLACK
6
CONTINUOUS
10
70.2669
20
-34.283
11
70.2801
21
-34.3323
0
LINE
8
BLACK
6
CONTINUOUS
10
70.2801
20
-34.3323
11
70.3056
21
-34.3765
0
LINE
8
BLACK
6
CONTINUOUS
10
70.3056
20
-34.3765
11
70.332
21
-34.5259
0
LINE
8
BLACK
6
CONTINUOUS
10
70.332
20
-34.5259
11
70.3712
21
-34.6723
0
LINE
8
BLACK
6
CONTINUOUS
10
70.3712
20
-34.6723
11
70.358
21
-34.8234
0
LINE
8
BLACK
6
CONTINUOUS
10
70.358
20
-34.8234
11
70.358
21
-36.0045
0
LINE
8
BLACK
6
CONTINUOUS
10
70.358
20
-36.0045
11
71.7051
21
-36.0045
0
LINE
8
BLACK
6
CONTINUOUS
10
71.7051
20
-36.0045
11
71.8562
21
-35.9913
0
LINE
8
BLACK
6
CONTINUOUS
10
71.8562
20
-35.9913
11
72.0026
21
-36.0305
0
LINE
8
BLACK
6
CONTINUOUS
10
72.0026
20
-36.0305
11
72.152
21
-36.0569
0
LINE
8
BLACK
6
CONTINUOUS
10
72.152
20
-36.0569
11
72.1962
21
-36.0824
0
LINE
8
BLACK
6
CONTINUOUS
10
72.1962
20
-36.0824
11
72.2455
21
-36.0956
0
LINE
8
BLACK
6
CONTINUOUS
10
72.2455
20
-36.0956
11
72.3697
21
-36.1826
0
LINE
8
BLACK
6
CONTINUOUS
10
72.3697
20
-36.1826
11
72.501
21
-36.2584
0
LINE
8
BLACK
6
CONTINUOUS
10
72.501
20
-36.2584
11
72.5985
21
-36.3746
0
LINE
8
BLACK
6
CONTINUOUS
10
72.5985
20
-36.3746
11
73.4984
21
-37.2745
0
LINE
8
BLACK
6
CONTINUOUS
10
73.4984
20
-37.2745
11
82.015
21
-37.2745
0
LINE
8
BLACK
6
CONTINUOUS
10
82.015
20
-37.2745
11
82.015
21
-37.2745
0
LINE
8
BLACK
6
CONTINUOUS
10
82.015
20
-37.2745
11
82.1165
21
-37.2745
0
LINE
8
BLACK
6
CONTINUOUS
10
82.1165
20
-37.2745
11
82.212
21
-37.3092
0
LINE
8
BLACK
6
CONTINUOUS
10
82.212
20
-37.3092
11
82.312
21
-37.3269
0
LINE
8
BLACK
6
CONTINUOUS
10
82.312
20
-37.3269
11
82.3999
21
-37.3776
0
LINE
8
BLACK
6
CONTINUOUS
10
82.3999
20
-37.3776
11
82.4953
21
-37.4124
0
LINE
8
BLACK
6
CONTINUOUS
10
82.4953
20
-37.4124
11
82.5731
21
-37.4776
0
LINE
8
BLACK
6
CONTINUOUS
10
82.5731
20
-37.4776
11
82.661
21
-37.5284
0
LINE
8
BLACK
6
CONTINUOUS
10
82.661
20
-37.5284
11
82.7263
21
-37.6062
0
LINE
8
BLACK
6
CONTINUOUS
10
82.7263
20
-37.6062
11
82.8041
21
-37.6715
0
LINE
8
BLACK
6
CONTINUOUS
10
82.8041
20
-37.6715
11
82.8549
21
-37.7594
0
LINE
8
BLACK
6
CONTINUOUS
10
82.8549
20
-37.7594
11
82.9201
21
-37.8372
0
LINE
8
BLACK
6
CONTINUOUS
10
82.9201
20
-37.8372
11
82.9549
21
-37.9326
0
LINE
8
BLACK
6
CONTINUOUS
10
82.9549
20
-37.9326
11
83.0056
21
-38.0205
0
LINE
8
BLACK
6
CONTINUOUS
10
83.0056
20
-38.0205
11
83.0233
21
-38.1205
0
LINE
8
BLACK
6
CONTINUOUS
10
83.0233
20
-38.1205
11
83.058
21
-38.216
0
LINE
8
BLACK
6
CONTINUOUS
10
83.058
20
-38.216
11
83.058
21
-38.3175
0
LINE
8
BLACK
6
CONTINUOUS
10
83.058
20
-38.3175
11
83.058
21
-38.3175
0
LINE
8
BLACK
6
CONTINUOUS
10
83.058
20
-38.3175
11
83.058
21
-43.5975
0
LINE
8
BLACK
6
CONTINUOUS
10
83.058
20
-43.5975
11
83.0056
21
-43.8945
0
LINE
8
BLACK
6
CONTINUOUS
10
83.0056
20
-43.8945
11
82.8041
21
-44.2435
0
LINE
8
BLACK
6
CONTINUOUS
10
82.8041
20
-44.2435
11
82.4953
21
-44.5026
0
LINE
8
BLACK
6
CONTINUOUS
10
82.4953
20
-44.5026
11
82.1165
21
-44.6405
0
LINE
8
BLACK
6
CONTINUOUS
10
82.1165
20
-44.6405
11
81.7135
21
-44.6405
0
LINE
8
BLACK
6
CONTINUOUS
10
81.7135
20
-44.6405
11
81.3347
21
-44.5026
0
LINE
8
BLACK
6
CONTINUOUS
10
81.3347
20
-44.5026
11
81.0259
21
-44.2435
0
LINE
8
BLACK
6
CONTINUOUS
10
81.0259
20
-44.2435
11
80.8244
21
-43.8945
0
LINE
8
BLACK
6
CONTINUOUS
10
80.8244
20
-43.8945
11
80.772
21
-43.5975
0
LINE
8
BLACK
6
CONTINUOUS
10
80.772
20
-43.5975
11
80.772
21
-39.5605
0
LINE
8
BLACK
6
CONTINUOUS
10
80.772
20
-39.5605
11
75.4443
21
-39.5605
0
LINE
8
BLACK
6
CONTINUOUS
10
75.4443
20
-39.5605
11
75.4512
21
-39.5863
0
LINE
8
BLACK
6
CONTINUOUS
10
75.4512
20
-39.5863
11
75.438
21
-39.7374
0
LINE
8
BLACK
6
CONTINUOUS
10
75.438
20
-39.7374
11
75.438
21
-46.8341
0
LINE
8
BLACK
6
CONTINUOUS
10
75.438
20
-46.8341
11
76.4439
21
-47.84
0
LINE
8
BLACK
6
CONTINUOUS
10
76.4439
20
-47.84
11
76.6169
21
-48.087
0
LINE
8
BLACK
6
CONTINUOUS
10
76.6169
20
-48.087
11
76.7212
21
-48.4763
0
LINE
8
BLACK
6
CONTINUOUS
10
76.7212
20
-48.4763
11
76.6861
21
-48.8779
0
LINE
8
BLACK
6
CONTINUOUS
10
76.6861
20
-48.8779
11
76.5157
21
-49.2432
0
LINE
8
BLACK
6
CONTINUOUS
10
76.5157
20
-49.2432
11
76.2307
21
-49.5282
0
LINE
8
BLACK
6
CONTINUOUS
10
76.2307
20
-49.5282
11
75.8654
21
-49.6986
0
LINE
8
BLACK
6
CONTINUOUS
10
75.8654
20
-49.6986
11
75.4638
21
-49.7337
0
LINE
8
BLACK
6
CONTINUOUS
10
75.4638
20
-49.7337
11
75.0745
21
-49.6294
0
LINE
8
BLACK
6
CONTINUOUS
10
75.0745
20
-49.6294
11
74.8275
21
-49.4564
0
LINE
8
BLACK
6
CONTINUOUS
10
74.8275
20
-49.4564
11
73.5221
21
-48.151
0
LINE
8
BLACK
6
CONTINUOUS
10
73.5221
20
-48.151
11
73.4059
21
-48.0535
0
LINE
8
BLACK
6
CONTINUOUS
10
73.4059
20
-48.0535
11
73.3301
21
-47.9222
0
LINE
8
BLACK
6
CONTINUOUS
10
73.3301
20
-47.9222
11
73.2431
21
-47.798
0
LINE
8
BLACK
6
CONTINUOUS
10
73.2431
20
-47.798
11
73.2299
21
-47.7487
0
LINE
8
BLACK
6
CONTINUOUS
10
73.2299
20
-47.7487
11
73.2044
21
-47.7045
0
LINE
8
BLACK
6
CONTINUOUS
10
73.2044
20
-47.7045
11
73.178
21
-47.5551
0
LINE
8
BLACK
6
CONTINUOUS
10
73.178
20
-47.5551
11
73.1388
21
-47.4087
0
LINE
8
BLACK
6
CONTINUOUS
10
73.1388
20
-47.4087
11
73.152
21
-47.2576
0
LINE
8
BLACK
6
CONTINUOUS
10
73.152
20
-47.2576
11
73.152
21
-40.1609
0
LINE
8
BLACK
6
CONTINUOUS
10
73.152
20
-40.1609
11
72.3232
21
-39.3321
0
LINE
8
BLACK
6
CONTINUOUS
10
72.3232
20
-39.3321
11
72.279
21
-39.3066
0
LINE
8
BLACK
6
CONTINUOUS
10
72.279
20
-39.3066
11
72.1815
21
-39.1904
0
LINE
8
BLACK
6
CONTINUOUS
10
72.1815
20
-39.1904
11
71.2816
21
-38.2905
0
LINE
8
BLACK
6
CONTINUOUS
10
71.2816
20
-38.2905
11
69.115
21
-38.2905
0
LINE
8
BLACK
6
CONTINUOUS
10
69.115
20
-38.2905
11
69.115
21
-38.2905
0
LINE
8
BLACK
6
CONTINUOUS
10
69.115
20
-38.2905
11
69.0135
21
-38.2905
0
LINE
8
BLACK
6
CONTINUOUS
10
69.0135
20
-38.2905
11
68.918
21
-38.2558
0
LINE
8
BLACK
6
CONTINUOUS
10
68.918
20
-38.2558
11
68.818
21
-38.2381
0
LINE
8
BLACK
6
CONTINUOUS
10
68.818
20
-38.2381
11
68.7301
21
-38.1874
0
LINE
8
BLACK
6
CONTINUOUS
10
68.7301
20
-38.1874
11
68.6347
21
-38.1526
0
LINE
8
BLACK
6
CONTINUOUS
10
68.6347
20
-38.1526
11
68.5569
21
-38.0874
0
LINE
8
BLACK
6
CONTINUOUS
10
68.5569
20
-38.0874
11
68.469
21
-38.0366
0
LINE
8
BLACK
6
CONTINUOUS
10
68.469
20
-38.0366
11
68.4362
21
-37.9975
0
LINE
8
BLACK
6
CONTINUOUS
10
68.4362
20
-37.9975
11
68.365
21
-37.9975
0
LINE
8
BLACK
6
CONTINUOUS
10
68.365
20
-37.9975
11
68.365
21
-37.9263
0
LINE
8
BLACK
6
CONTINUOUS
10
68.365
20
-37.9263
11
68.3259
21
-37.8935
0
LINE
8
BLACK
6
CONTINUOUS
10
68.3259
20
-37.8935
11
68.2751
21
-37.8056
0
LINE
8
BLACK
6
CONTINUOUS
10
68.2751
20
-37.8056
11
68.2099
21
-37.7278
0
LINE
8
BLACK
6
CONTINUOUS
10
68.2099
20
-37.7278
11
68.1751
21
-37.6324
0
LINE
8
BLACK
6
CONTINUOUS
10
68.1751
20
-37.6324
11
68.1244
21
-37.5445
0
LINE
8
BLACK
6
CONTINUOUS
10
68.1244
20
-37.5445
11
68.1067
21
-37.4445
0
LINE
8
BLACK
6
CONTINUOUS
10
68.1067
20
-37.4445
11
68.072
21
-37.349
0
LINE
8
BLACK
6
CONTINUOUS
10
68.072
20
-37.349
11
68.072
21
-36.946
0
LINE
8
BLACK
6
CONTINUOUS
10
68.072
20
-36.946
11
68.072
21
-35.2469
0
LINE
8
BLACK
6
CONTINUOUS
10
68.072
20
-35.2469
11
67.3056
21
-34.4805
0
LINE
8
BLACK
6
CONTINUOUS
10
67.3056
20
-34.4805
11
56.415
21
-34.4805
0
LINE
8
BLACK
6
CONTINUOUS
10
56.415
20
-34.4805
11
56.118
21
-34.4281
0
LINE
8
BLACK
6
CONTINUOUS
10
56.118
20
-34.4281
11
55.769
21
-34.2266
0
LINE
8
BLACK
6
CONTINUOUS
10
55.769
20
-34.2266
11
55.5099
21
-33.9178
0
LINE
8
BLACK
6
CONTINUOUS
10
55.5099
20
-33.9178
11
55.372
21
-33.539
0
LINE
8
BLACK
6
CONTINUOUS
10
55.372
20
-33.539
11
55.372
21
-33.136
0
LINE
8
BLACK
6
CONTINUOUS
10
55.372
20
-33.136
11
55.5099
21
-32.7572
0
LINE
8
BLACK
6
CONTINUOUS
10
55.5099
20
-32.7572
11
55.769
21
-32.4484
0
LINE
8
BLACK
6
CONTINUOUS
10
55.769
20
-32.4484
11
56.118
21
-32.2469
0
LINE
8
BLACK
6
CONTINUOUS
10
56.118
20
-32.2469
11
56.415
21
-32.1945
0
LINE
8
BLACK
6
CONTINUOUS
10
56.415
20
-32.1945
11
67.7291
21
-32.1945
0
LINE
8
BLACK
6
CONTINUOUS
10
67.7291
20
-32.1945
11
67.8802
21
-32.1813
0
LINE
8
BLACK
6
CONTINUOUS
10
67.8802
20
-32.1813
11
68.0266
21
-32.2205
0
LINE
8
BLACK
6
CONTINUOUS
10
94.8626
20
-37.3005
11
95.012
21
-37.3269
0
LINE
8
BLACK
6
CONTINUOUS
10
95.012
20
-37.3269
11
95.0562
21
-37.3524
0
LINE
8
BLACK
6
CONTINUOUS
10
95.0562
20
-37.3524
11
95.1055
21
-37.3656
0
LINE
8
BLACK
6
CONTINUOUS
10
95.1055
20
-37.3656
11
95.2297
21
-37.4526
0
LINE
8
BLACK
6
CONTINUOUS
10
95.2297
20
-37.4526
11
95.361
21
-37.5284
0
LINE
8
BLACK
6
CONTINUOUS
10
95.361
20
-37.5284
11
95.4585
21
-37.6446
0
LINE
8
BLACK
6
CONTINUOUS
10
95.4585
20
-37.6446
11
97.9279
21
-40.114
0
LINE
8
BLACK
6
CONTINUOUS
10
97.9279
20
-40.114
11
98.0441
21
-40.2115
0
LINE
8
BLACK
6
CONTINUOUS
10
98.0441
20
-40.2115
11
98.1199
21
-40.3428
0
LINE
8
BLACK
6
CONTINUOUS
10
98.1199
20
-40.3428
11
98.2069
21
-40.467
0
LINE
8
BLACK
6
CONTINUOUS
10
98.2069
20
-40.467
11
98.2201
21
-40.5163
0
LINE
8
BLACK
6
CONTINUOUS
10
98.2201
20
-40.5163
11
98.2456
21
-40.5605
0
LINE
8
BLACK
6
CONTINUOUS
10
98.2456
20
-40.5605
11
98.272
21
-40.7099
0
LINE
8
BLACK
6
CONTINUOUS
10
98.272
20
-40.7099
11
98.3112
21
-40.8563
0
LINE
8
BLACK
6
CONTINUOUS
10
98.3112
20
-40.8563
11
98.298
21
-41.0074
0
LINE
8
BLACK
6
CONTINUOUS
10
98.298
20
-41.0074
11
98.298
21
-43.5975
0
LINE
8
BLACK
6
CONTINUOUS
10
98.298
20
-43.5975
11
98.2456
21
-43.8945
0
LINE
8
BLACK
6
CONTINUOUS
10
98.2456
20
-43.8945
11
98.0441
21
-44.2435
0
LINE
8
BLACK
6
CONTINUOUS
10
98.0441
20
-44.2435
11
97.7353
21
-44.5026
0
LINE
8
BLACK
6
CONTINUOUS
10
97.7353
20
-44.5026
11
97.3565
21
-44.6405
0
LINE
8
BLACK
6
CONTINUOUS
10
97.3565
20
-44.6405
11
96.9535
21
-44.6405
0
LINE
8
BLACK
6
CONTINUOUS
10
96.9535
20
-44.6405
11
96.5747
21
-44.5026
0
LINE
8
BLACK
6
CONTINUOUS
10
96.5747
20
-44.5026
11
96.2659
21
-44.2435
0
LINE
8
BLACK
6
CONTINUOUS
10
96.2659
20
-44.2435
11
96.0644
21
-43.8945
0
LINE
8
BLACK
6
CONTINUOUS
10
96.0644
20
-43.8945
11
96.012
21
-43.5975
0
LINE
8
BLACK
6
CONTINUOUS
10
96.012
20
-43.5975
11
96.012
21
-41.4309
0
LINE
8
BLACK
6
CONTINUOUS
10
96.012
20
-41.4309
11
94.1416
21
-39.5605
0
LINE
8
BLACK
6
CONTINUOUS
10
94.1416
20
-39.5605
11
89.3734
21
-39.5605
0
LINE
8
BLACK
6
CONTINUOUS
10
89.3734
20
-39.5605
11
86.498
21
-42.4359
0
LINE
8
BLACK
6
CONTINUOUS
10
86.498
20
-42.4359
11
86.498
21
-42.5476
0
LINE
8
BLACK
6
CONTINUOUS
10
86.498
20
-42.5476
11
86.5112
21
-42.6987
0
LINE
8
BLACK
6
CONTINUOUS
10
86.5112
20
-42.6987
11
86.472
21
-42.8451
0
LINE
8
BLACK
6
CONTINUOUS
10
86.472
20
-42.8451
11
86.4456
21
-42.9945
0
LINE
8
BLACK
6
CONTINUOUS
10
86.4456
20
-42.9945
11
86.4201
21
-43.0387
0
LINE
8
BLACK
6
CONTINUOUS
10
86.4201
20
-43.0387
11
86.4069
21
-43.088
0
LINE
8
BLACK
6
CONTINUOUS
10
86.4069
20
-43.088
11
86.3199
21
-43.2122
0
LINE
8
BLACK
6
CONTINUOUS
10
86.3199
20
-43.2122
11
86.2441
21
-43.3435
0
LINE
8
BLACK
6
CONTINUOUS
10
86.2441
20
-43.3435
11
86.1279
21
-43.441
0
LINE
8
BLACK
6
CONTINUOUS
10
86.1279
20
-43.441
11
85.1925
21
-44.3764
0
LINE
8
BLACK
6
CONTINUOUS
10
85.1925
20
-44.3764
11
84.9455
21
-44.5494
0
LINE
8
BLACK
6
CONTINUOUS
10
84.9455
20
-44.5494
11
84.5562
21
-44.6537
0
LINE
8
BLACK
6
CONTINUOUS
10
84.5562
20
-44.6537
11
84.1546
21
-44.6186
0
LINE
8
BLACK
6
CONTINUOUS
10
84.1546
20
-44.6186
11
83.7893
21
-44.4482
0
LINE
8
BLACK
6
CONTINUOUS
10
83.7893
20
-44.4482
11
83.5043
21
-44.1632
0
LINE
8
BLACK
6
CONTINUOUS
10
83.5043
20
-44.1632
11
83.3339
21
-43.7979
0
LINE
8
BLACK
6
CONTINUOUS
10
83.3339
20
-43.7979
11
83.2988
21
-43.3963
0
LINE
8
BLACK
6
CONTINUOUS
10
83.2988
20
-43.3963
11
83.4031
21
-43.007
0
LINE
8
BLACK
6
CONTINUOUS
10
83.4031
20
-43.007
11
83.5761
21
-42.76
0
LINE
8
BLACK
6
CONTINUOUS
10
83.5761
20
-42.76
11
84.212
21
-42.1241
0
LINE
8
BLACK
6
CONTINUOUS
10
84.212
20
-42.1241
11
84.212
21
-42.0124
0
LINE
8
BLACK
6
CONTINUOUS
10
84.212
20
-42.0124
11
84.1988
21
-41.8613
0
LINE
8
BLACK
6
CONTINUOUS
10
84.1988
20
-41.8613
11
84.238
21
-41.7149
0
LINE
8
BLACK
6
CONTINUOUS
10
84.238
20
-41.7149
11
84.2644
21
-41.5655
0
LINE
8
BLACK
6
CONTINUOUS
10
84.2644
20
-41.5655
11
84.2899
21
-41.5213
0
LINE
8
BLACK
6
CONTINUOUS
10
84.2899
20
-41.5213
11
84.3031
21
-41.472
0
LINE
8
BLACK
6
CONTINUOUS
10
84.3031
20
-41.472
11
84.3901
21
-41.3478
0
LINE
8
BLACK
6
CONTINUOUS
10
84.3901
20
-41.3478
11
84.4659
21
-41.2165
0
LINE
8
BLACK
6
CONTINUOUS
10
84.4659
20
-41.2165
11
84.5821
21
-41.119
0
LINE
8
BLACK
6
CONTINUOUS
10
84.5821
20
-41.119
11
88.0565
21
-37.6446
0
LINE
8
BLACK
6
CONTINUOUS
10
88.0565
20
-37.6446
11
88.154
21
-37.5284
0
LINE
8
BLACK
6
CONTINUOUS
10
88.154
20
-37.5284
11
88.2853
21
-37.4526
0
LINE
8
BLACK
6
CONTINUOUS
10
88.2853
20
-37.4526
11
88.4095
21
-37.3656
0
LINE
8
BLACK
6
CONTINUOUS
10
88.4095
20
-37.3656
11
88.4588
21
-37.3524
0
LINE
8
BLACK
6
CONTINUOUS
10
88.4588
20
-37.3524
11
88.503
21
-37.3269
0
LINE
8
BLACK
6
CONTINUOUS
10
88.503
20
-37.3269
11
88.6524
21
-37.3005
0
LINE
8
BLACK
6
CONTINUOUS
10
88.6524
20
-37.3005
11
88.7988
21
-37.2613
0
LINE
8
BLACK
6
CONTINUOUS
10
88.7988
20
-37.2613
11
88.9499
21
-37.2745
0
LINE
8
BLACK
6
CONTINUOUS
10
88.9499
20
-37.2745
11
94.5651
21
-37.2745
0
LINE
8
BLACK
6
CONTINUOUS
10
94.5651
20
-37.2745
11
94.7162
21
-37.2613
0
LINE
8
BLACK
6
CONTINUOUS
10
94.7162
20
-37.2613
11
94.8626
21
-37.3005
0
LINE
8
BLACK
6
CONTINUOUS
10
46.4841
20
-27.7458
11
47.1559
21
-28.1337
0
LINE
8
BLACK
6
CONTINUOUS
10
47.1559
20
-28.1337
11
47.6546
21
-28.728
0
LINE
8
BLACK
6
CONTINUOUS
10
47.6546
20
-28.728
11
47.92
21
-29.4571
0
LINE
8
BLACK
6
CONTINUOUS
10
47.92
20
-29.4571
11
47.92
21
-30.2329
0
LINE
8
BLACK
6
CONTINUOUS
10
47.92
20
-30.2329
11
47.6546
21
-30.962
0
LINE
8
BLACK
6
CONTINUOUS
10
47.6546
20
-30.962
11
47.1559
21
-31.5563
0
LINE
8
BLACK
6
CONTINUOUS
10
47.1559
20
-31.5563
11
46.4841
21
-31.9442
0
LINE
8
BLACK
6
CONTINUOUS
10
46.4841
20
-31.9442
11
45.72
21
-32.0789
0
LINE
8
BLACK
6
CONTINUOUS
10
45.72
20
-32.0789
11
44.9559
21
-31.9442
0
LINE
8
BLACK
6
CONTINUOUS
10
44.9559
20
-31.9442
11
44.2841
21
-31.5563
0
LINE
8
BLACK
6
CONTINUOUS
10
44.2841
20
-31.5563
11
43.7854
21
-30.962
0
LINE
8
BLACK
6
CONTINUOUS
10
43.7854
20
-30.962
11
43.52
21
-30.2329
0
LINE
8
BLACK
6
CONTINUOUS
10
43.52
20
-30.2329
11
43.52
21
-29.4571
0
LINE
8
BLACK
6
CONTINUOUS
10
43.52
20
-29.4571
11
43.7854
21
-28.728
0
LINE
8
BLACK
6
CONTINUOUS
10
43.7854
20
-28.728
11
44.2841
21
-28.1337
0
LINE
8
BLACK
6
CONTINUOUS
10
44.2841
20
-28.1337
11
44.9559
21
-27.7458
0
LINE
8
BLACK
6
CONTINUOUS
10
44.9559
20
-27.7458
11
45.72
21
-27.6111
0
LINE
8
BLACK
6
CONTINUOUS
10
45.72
20
-27.6111
11
46.4841
21
-27.7458
0
LINE
8
BLACK
6
CONTINUOUS
10
97.2841
20
-27.7458
11
97.9559
21
-28.1337
0
LINE
8
BLACK
6
CONTINUOUS
10
97.9559
20
-28.1337
11
98.4546
21
-28.728
0
LINE
8
BLACK
6
CONTINUOUS
10
98.4546
20
-28.728
11
98.72
21
-29.4571
0
LINE
8
BLACK
6
CONTINUOUS
10
98.72
20
-29.4571
11
98.72
21
-30.2329
0
LINE
8
BLACK
6
CONTINUOUS
10
98.72
20
-30.2329
11
98.4546
21
-30.962
0
LINE
8
BLACK
6
CONTINUOUS
10
98.4546
20
-30.962
11
97.9559
21
-31.5563
0
LINE
8
BLACK
6
CONTINUOUS
10
97.9559
20
-31.5563
11
97.2841
21
-31.9442
0
LINE
8
BLACK
6
CONTINUOUS
10
97.2841
20
-31.9442
11
96.52
21
-32.0789
0
LINE
8
BLACK
6
CONTINUOUS
10
96.52
20
-32.0789
11
95.7559
21
-31.9442
0
LINE
8
BLACK
6
CONTINUOUS
10
95.7559
20
-31.9442
11
95.0841
21
-31.5563
0
LINE
8
BLACK
6
CONTINUOUS
10
95.0841
20
-31.5563
11
94.5854
21
-30.962
0
LINE
8
BLACK
6
CONTINUOUS
10
94.5854
20
-30.962
11
94.32
21
-30.2329
0
LINE
8
BLACK
6
CONTINUOUS
10
94.32
20
-30.2329
11
94.32
21
-29.4571
0
LINE
8
BLACK
6
CONTINUOUS
10
94.32
20
-29.4571
11
94.5854
21
-28.728
0
LINE
8
BLACK
6
CONTINUOUS
10
94.5854
20
-28.728
11
95.0841
21
-28.1337
0
LINE
8
BLACK
6
CONTINUOUS
10
95.0841
20
-28.1337
11
95.7559
21
-27.7458
0
LINE
8
BLACK
6
CONTINUOUS
10
95.7559
20
-27.7458
11
96.52
21
-27.6111
0
LINE
8
BLACK
6
CONTINUOUS
10
96.52
20
-27.6111
11
97.2841
21
-27.7458
  0
ENDSEC
  0
EOF
