  0
SECTION
  2
HEADER
  9
$ANGBASE
  50
0.0
  9
$ANGDIR
  70
  1
  9
$MEASUREMENT
  70
0
  0
ENDSEC
  0
SECTION
  2
TABLES
  0
TABLE
  2
LTYPE
  70
4
  0
LTYPE
  5
40F
  2
CONTINUOUS
  70
0
  3
Solid line
  72
65
  73
0
  40
0.0
  0
LTYPE
  5
410
  2
DASHDOT
 70
0
  3
Dash Dot ____ _ ____ _
 72
65
 73
4
 40
2.0
 49
1.25
 49
-0.25
 49
0.25
 49
-0.25
  0
LTYPE
  5
411
  2
DASHED
 70
0
  3
Dashed __ __ __ __ __
 72
65
 73
2
 40
0.75
 49
0.5
 49
-0.25
  0
LTYPE
  5
43B
  2
DOTTED
 70
0
  3
Dotted .  .  .  .
 72
65
 73
2
 40
0.2
 49
0.0
 49
-0.2
  0
ENDTAB
  0
TABLE
  2
STYLE
  70
4
  0
STYLE
  2
KICAD
  70
0
  40
0
  41
1
  42
1
  50
0
  71
0
  3
isocp.shx
  0
STYLE
  2
KICADB
  70
0
  40
0
  41
1
  42
1
  50
0
  71
0
  3
isocp.shx
  0
STYLE
  2
KICADI
  70
0
  40
0
  41
1
  42
1
  50
15
  71
0
  3
isocp.shx
  0
STYLE
  2
KICADBI
  70
0
  40
0
  41
1
  42
1
  50
15
  71
0
  3
isocp.shx
  0
ENDTAB
  0
TABLE
  2
LAYER
  70
30
  0
LAYER
  2
BLACK
  70
0
  62
7
  6
CONTINUOUS
  0
LAYER
  2
GRAY1
  70
0
  62
251
  6
CONTINUOUS
  0
LAYER
  2
GRAY2
  70
0
  62
8
  6
CONTINUOUS
  0
LAYER
  2
GRAY3
  70
0
  62
9
  6
CONTINUOUS
  0
LAYER
  2
WHITE
  70
0
  62
7
  6
CONTINUOUS
  0
LAYER
  2
LYELLOW
  70
0
  62
51
  6
CONTINUOUS
  0
LAYER
  2
BLUE1
  70
0
  62
178
  6
CONTINUOUS
  0
LAYER
  2
GREEN1
  70
0
  62
98
  6
CONTINUOUS
  0
LAYER
  2
CYAN1
  70
0
  62
138
  6
CONTINUOUS
  0
LAYER
  2
RED1
  70
0
  62
18
  6
CONTINUOUS
  0
LAYER
  2
MAGENTA1
  70
0
  62
228
  6
CONTINUOUS
  0
LAYER
  2
BROWN1
  70
0
  62
58
  6
CONTINUOUS
  0
LAYER
  2
BLUE2
  70
0
  62
5
  6
CONTINUOUS
  0
LAYER
  2
GREEN2
  70
0
  62
3
  6
CONTINUOUS
  0
LAYER
  2
CYAN2
  70
0
  62
4
  6
CONTINUOUS
  0
LAYER
  2
RED2
  70
0
  62
1
  6
CONTINUOUS
  0
LAYER
  2
MAGENTA2
  70
0
  62
6
  6
CONTINUOUS
  0
LAYER
  2
BROWN2
  70
0
  62
54
  6
CONTINUOUS
  0
LAYER
  2
BLUE3
  70
0
  62
171
  6
CONTINUOUS
  0
LAYER
  2
GREEN3
  70
0
  62
91
  6
CONTINUOUS
  0
LAYER
  2
CYAN3
  70
0
  62
131
  6
CONTINUOUS
  0
LAYER
  2
RED3
  70
0
  62
11
  6
CONTINUOUS
  0
LAYER
  2
MAGENTA3
  70
0
  62
221
  6
CONTINUOUS
  0
LAYER
  2
YELLOW3
  70
0
  62
2
  6
CONTINUOUS
  0
LAYER
  2
BLUE4
  70
0
  62
5
  6
CONTINUOUS
  0
LAYER
  2
GREEN4
  70
0
  62
3
  6
CONTINUOUS
  0
LAYER
  2
CYAN4
  70
0
  62
4
  6
CONTINUOUS
  0
LAYER
  2
RED4
  70
0
  62
1
  6
CONTINUOUS
  0
LAYER
  2
MAGENTA4
  70
0
  62
6
  6
CONTINUOUS
  0
LAYER
  2
YELLOW4
  70
0
  62
2
  6
CONTINUOUS
  0
ENDTAB
  0
ENDSEC
  0
SECTION
  2
ENTITIES
0
LINE
8
BLACK
6
CONTINUOUS
10
46.4841
20
-65.8458
11
47.1559
21
-66.2337
0
LINE
8
BLACK
6
CONTINUOUS
10
47.1559
20
-66.2337
11
47.6546
21
-66.828
0
LINE
8
BLACK
6
CONTINUOUS
10
47.6546
20
-66.828
11
47.92
21
-67.5571
0
LINE
8
BLACK
6
CONTINUOUS
10
47.92
20
-67.5571
11
47.92
21
-68.3329
0
LINE
8
BLACK
6
CONTINUOUS
10
47.92
20
-68.3329
11
47.6546
21
-69.062
0
LINE
8
BLACK
6
CONTINUOUS
10
47.6546
20
-69.062
11
47.1559
21
-69.6563
0
LINE
8
BLACK
6
CONTINUOUS
10
47.1559
20
-69.6563
11
46.4841
21
-70.0442
0
LINE
8
BLACK
6
CONTINUOUS
10
46.4841
20
-70.0442
11
45.72
21
-70.1789
0
LINE
8
BLACK
6
CONTINUOUS
10
45.72
20
-70.1789
11
44.9559
21
-70.0442
0
LINE
8
BLACK
6
CONTINUOUS
10
44.9559
20
-70.0442
11
44.2841
21
-69.6563
0
LINE
8
BLACK
6
CONTINUOUS
10
44.2841
20
-69.6563
11
43.7854
21
-69.062
0
LINE
8
BLACK
6
CONTINUOUS
10
43.7854
20
-69.062
11
43.52
21
-68.3329
0
LINE
8
BLACK
6
CONTINUOUS
10
43.52
20
-68.3329
11
43.52
21
-67.5571
0
LINE
8
BLACK
6
CONTINUOUS
10
43.52
20
-67.5571
11
43.7854
21
-66.828
0
LINE
8
BLACK
6
CONTINUOUS
10
43.7854
20
-66.828
11
44.2841
21
-66.2337
0
LINE
8
BLACK
6
CONTINUOUS
10
44.2841
20
-66.2337
11
44.9559
21
-65.8458
0
LINE
8
BLACK
6
CONTINUOUS
10
44.9559
20
-65.8458
11
45.72
21
-65.7111
0
LINE
8
BLACK
6
CONTINUOUS
10
45.72
20
-65.7111
11
46.4841
21
-65.8458
0
LINE
8
BLACK
6
CONTINUOUS
10
97.2841
20
-65.8458
11
97.9559
21
-66.2337
0
LINE
8
BLACK
6
CONTINUOUS
10
97.9559
20
-66.2337
11
98.4546
21
-66.828
0
LINE
8
BLACK
6
CONTINUOUS
10
98.4546
20
-66.828
11
98.72
21
-67.5571
0
LINE
8
BLACK
6
CONTINUOUS
10
98.72
20
-67.5571
11
98.72
21
-68.3329
0
LINE
8
BLACK
6
CONTINUOUS
10
98.72
20
-68.3329
11
98.4546
21
-69.062
0
LINE
8
BLACK
6
CONTINUOUS
10
98.4546
20
-69.062
11
97.9559
21
-69.6563
0
LINE
8
BLACK
6
CONTINUOUS
10
97.9559
20
-69.6563
11
97.2841
21
-70.0442
0
LINE
8
BLACK
6
CONTINUOUS
10
97.2841
20
-70.0442
11
96.52
21
-70.1789
0
LINE
8
BLACK
6
CONTINUOUS
10
96.52
20
-70.1789
11
95.7559
21
-70.0442
0
LINE
8
BLACK
6
CONTINUOUS
10
95.7559
20
-70.0442
11
95.0841
21
-69.6563
0
LINE
8
BLACK
6
CONTINUOUS
10
95.0841
20
-69.6563
11
94.5854
21
-69.062
0
LINE
8
BLACK
6
CONTINUOUS
10
94.5854
20
-69.062
11
94.32
21
-68.3329
0
LINE
8
BLACK
6
CONTINUOUS
10
94.32
20
-68.3329
11
94.32
21
-67.5571
0
LINE
8
BLACK
6
CONTINUOUS
10
94.32
20
-67.5571
11
94.5854
21
-66.828
0
LINE
8
BLACK
6
CONTINUOUS
10
94.5854
20
-66.828
11
95.0841
21
-66.2337
0
LINE
8
BLACK
6
CONTINUOUS
10
95.0841
20
-66.2337
11
95.7559
21
-65.8458
0
LINE
8
BLACK
6
CONTINUOUS
10
95.7559
20
-65.8458
11
96.52
21
-65.7111
0
LINE
8
BLACK
6
CONTINUOUS
10
96.52
20
-65.7111
11
97.2841
21
-65.8458
0
LINE
8
BLACK
6
CONTINUOUS
10
69.5102
20
-61.7364
11
69.7698
21
-61.8863
0
LINE
8
BLACK
6
CONTINUOUS
10
69.7698
20
-61.8863
11
69.9625
21
-62.1159
0
LINE
8
BLACK
6
CONTINUOUS
10
69.9625
20
-62.1159
11
70.065
21
-62.3976
0
LINE
8
BLACK
6
CONTINUOUS
10
70.065
20
-62.3976
11
70.065
21
-62.6974
0
LINE
8
BLACK
6
CONTINUOUS
10
70.065
20
-62.6974
11
69.9625
21
-62.9791
0
LINE
8
BLACK
6
CONTINUOUS
10
69.9625
20
-62.9791
11
69.7698
21
-63.2087
0
LINE
8
BLACK
6
CONTINUOUS
10
69.7698
20
-63.2087
11
69.5102
21
-63.3586
0
LINE
8
BLACK
6
CONTINUOUS
10
69.5102
20
-63.3586
11
69.2894
21
-63.3975
0
LINE
8
BLACK
6
CONTINUOUS
10
69.2894
20
-63.3975
11
69.1406
21
-63.3975
0
LINE
8
BLACK
6
CONTINUOUS
10
69.1406
20
-63.3975
11
68.9198
21
-63.3586
0
LINE
8
BLACK
6
CONTINUOUS
10
68.9198
20
-63.3586
11
68.6602
21
-63.2087
0
LINE
8
BLACK
6
CONTINUOUS
10
68.6602
20
-63.2087
11
68.4675
21
-62.9791
0
LINE
8
BLACK
6
CONTINUOUS
10
68.4675
20
-62.9791
11
68.365
21
-62.6974
0
LINE
8
BLACK
6
CONTINUOUS
10
68.365
20
-62.6974
11
68.365
21
-62.3976
0
LINE
8
BLACK
6
CONTINUOUS
10
68.365
20
-62.3976
11
68.4675
21
-62.1159
0
LINE
8
BLACK
6
CONTINUOUS
10
68.4675
20
-62.1159
11
68.6602
21
-61.8863
0
LINE
8
BLACK
6
CONTINUOUS
10
68.6602
20
-61.8863
11
68.9198
21
-61.7364
0
LINE
8
BLACK
6
CONTINUOUS
10
68.9198
20
-61.7364
11
69.1406
21
-61.6975
0
LINE
8
BLACK
6
CONTINUOUS
10
69.1406
20
-61.6975
11
69.2894
21
-61.6975
0
LINE
8
BLACK
6
CONTINUOUS
10
69.2894
20
-61.6975
11
69.5102
21
-61.7364
0
LINE
8
BLACK
6
CONTINUOUS
10
83.4628
20
-61.7841
11
83.7072
21
-61.9252
0
LINE
8
BLACK
6
CONTINUOUS
10
83.7072
20
-61.9252
11
83.8885
21
-62.1413
0
LINE
8
BLACK
6
CONTINUOUS
10
83.8885
20
-62.1413
11
83.985
21
-62.4064
0
LINE
8
BLACK
6
CONTINUOUS
10
83.985
20
-62.4064
11
83.985
21
-62.6886
0
LINE
8
BLACK
6
CONTINUOUS
10
83.985
20
-62.6886
11
83.8885
21
-62.9537
0
LINE
8
BLACK
6
CONTINUOUS
10
83.8885
20
-62.9537
11
83.7072
21
-63.1698
0
LINE
8
BLACK
6
CONTINUOUS
10
83.7072
20
-63.1698
11
83.4628
21
-63.3109
0
LINE
8
BLACK
6
CONTINUOUS
10
83.4628
20
-63.3109
11
83.185
21
-63.3598
0
LINE
8
BLACK
6
CONTINUOUS
10
83.185
20
-63.3598
11
82.9072
21
-63.3109
0
LINE
8
BLACK
6
CONTINUOUS
10
82.9072
20
-63.3109
11
82.6628
21
-63.1698
0
LINE
8
BLACK
6
CONTINUOUS
10
82.6628
20
-63.1698
11
82.4815
21
-62.9537
0
LINE
8
BLACK
6
CONTINUOUS
10
82.4815
20
-62.9537
11
82.385
21
-62.6886
0
LINE
8
BLACK
6
CONTINUOUS
10
82.385
20
-62.6886
11
82.385
21
-62.4064
0
LINE
8
BLACK
6
CONTINUOUS
10
82.385
20
-62.4064
11
82.4815
21
-62.1413
0
LINE
8
BLACK
6
CONTINUOUS
10
82.4815
20
-62.1413
11
82.6628
21
-61.9252
0
LINE
8
BLACK
6
CONTINUOUS
10
82.6628
20
-61.9252
11
82.9072
21
-61.7841
0
LINE
8
BLACK
6
CONTINUOUS
10
82.9072
20
-61.7841
11
83.185
21
-61.7352
0
LINE
8
BLACK
6
CONTINUOUS
10
83.185
20
-61.7352
11
83.4628
21
-61.7841
0
LINE
8
BLACK
6
CONTINUOUS
10
75.8428
20
-61.7841
11
76.0872
21
-61.9252
0
LINE
8
BLACK
6
CONTINUOUS
10
76.0872
20
-61.9252
11
76.2685
21
-62.1413
0
LINE
8
BLACK
6
CONTINUOUS
10
76.2685
20
-62.1413
11
76.365
21
-62.4064
0
LINE
8
BLACK
6
CONTINUOUS
10
76.365
20
-62.4064
11
76.365
21
-62.6886
0
LINE
8
BLACK
6
CONTINUOUS
10
76.365
20
-62.6886
11
76.2685
21
-62.9537
0
LINE
8
BLACK
6
CONTINUOUS
10
76.2685
20
-62.9537
11
76.0872
21
-63.1698
0
LINE
8
BLACK
6
CONTINUOUS
10
76.0872
20
-63.1698
11
75.8428
21
-63.3109
0
LINE
8
BLACK
6
CONTINUOUS
10
75.8428
20
-63.3109
11
75.635
21
-63.3475
0
LINE
8
BLACK
6
CONTINUOUS
10
75.635
20
-63.3475
11
75.495
21
-63.3475
0
LINE
8
BLACK
6
CONTINUOUS
10
75.495
20
-63.3475
11
75.2872
21
-63.3109
0
LINE
8
BLACK
6
CONTINUOUS
10
75.2872
20
-63.3109
11
75.0428
21
-63.1698
0
LINE
8
BLACK
6
CONTINUOUS
10
75.0428
20
-63.1698
11
74.8615
21
-62.9537
0
LINE
8
BLACK
6
CONTINUOUS
10
74.8615
20
-62.9537
11
74.765
21
-62.6886
0
LINE
8
BLACK
6
CONTINUOUS
10
74.765
20
-62.6886
11
74.765
21
-62.4064
0
LINE
8
BLACK
6
CONTINUOUS
10
74.765
20
-62.4064
11
74.8615
21
-62.1413
0
LINE
8
BLACK
6
CONTINUOUS
10
74.8615
20
-62.1413
11
75.0428
21
-61.9252
0
LINE
8
BLACK
6
CONTINUOUS
10
75.0428
20
-61.9252
11
75.2872
21
-61.7841
0
LINE
8
BLACK
6
CONTINUOUS
10
75.2872
20
-61.7841
11
75.495
21
-61.7475
0
LINE
8
BLACK
6
CONTINUOUS
10
75.495
20
-61.7475
11
75.635
21
-61.7475
0
LINE
8
BLACK
6
CONTINUOUS
10
75.635
20
-61.7475
11
75.8428
21
-61.7841
0
LINE
8
BLACK
6
CONTINUOUS
10
69.5102
20
-59.1964
11
69.7698
21
-59.3463
0
LINE
8
BLACK
6
CONTINUOUS
10
69.7698
20
-59.3463
11
69.9625
21
-59.5759
0
LINE
8
BLACK
6
CONTINUOUS
10
69.9625
20
-59.5759
11
70.065
21
-59.8576
0
LINE
8
BLACK
6
CONTINUOUS
10
70.065
20
-59.8576
11
70.065
21
-60.1574
0
LINE
8
BLACK
6
CONTINUOUS
10
70.065
20
-60.1574
11
69.9625
21
-60.4391
0
LINE
8
BLACK
6
CONTINUOUS
10
69.9625
20
-60.4391
11
69.7698
21
-60.6687
0
LINE
8
BLACK
6
CONTINUOUS
10
69.7698
20
-60.6687
11
69.5102
21
-60.8186
0
LINE
8
BLACK
6
CONTINUOUS
10
69.5102
20
-60.8186
11
69.2894
21
-60.8575
0
LINE
8
BLACK
6
CONTINUOUS
10
69.2894
20
-60.8575
11
69.1406
21
-60.8575
0
LINE
8
BLACK
6
CONTINUOUS
10
69.1406
20
-60.8575
11
68.9198
21
-60.8186
0
LINE
8
BLACK
6
CONTINUOUS
10
68.9198
20
-60.8186
11
68.6602
21
-60.6687
0
LINE
8
BLACK
6
CONTINUOUS
10
68.6602
20
-60.6687
11
68.4675
21
-60.4391
0
LINE
8
BLACK
6
CONTINUOUS
10
68.4675
20
-60.4391
11
68.365
21
-60.1574
0
LINE
8
BLACK
6
CONTINUOUS
10
68.365
20
-60.1574
11
68.365
21
-59.8576
0
LINE
8
BLACK
6
CONTINUOUS
10
68.365
20
-59.8576
11
68.4675
21
-59.5759
0
LINE
8
BLACK
6
CONTINUOUS
10
68.4675
20
-59.5759
11
68.6602
21
-59.3463
0
LINE
8
BLACK
6
CONTINUOUS
10
68.6602
20
-59.3463
11
68.9198
21
-59.1964
0
LINE
8
BLACK
6
CONTINUOUS
10
68.9198
20
-59.1964
11
69.1406
21
-59.1575
0
LINE
8
BLACK
6
CONTINUOUS
10
69.1406
20
-59.1575
11
69.2894
21
-59.1575
0
LINE
8
BLACK
6
CONTINUOUS
10
69.2894
20
-59.1575
11
69.5102
21
-59.1964
0
LINE
8
BLACK
6
CONTINUOUS
10
57.365
20
-58.3175
11
55.665
21
-58.3175
0
LINE
8
BLACK
6
CONTINUOUS
10
55.665
20
-58.3175
11
55.665
21
-56.6175
0
LINE
8
BLACK
6
CONTINUOUS
10
55.665
20
-56.6175
11
57.365
21
-56.6175
0
LINE
8
BLACK
6
CONTINUOUS
10
57.365
20
-56.6175
11
57.365
21
-58.3175
0
LINE
8
BLACK
6
CONTINUOUS
10
69.5102
20
-56.6564
11
69.7698
21
-56.8063
0
LINE
8
BLACK
6
CONTINUOUS
10
69.7698
20
-56.8063
11
69.9625
21
-57.0359
0
LINE
8
BLACK
6
CONTINUOUS
10
69.9625
20
-57.0359
11
70.065
21
-57.3176
0
LINE
8
BLACK
6
CONTINUOUS
10
70.065
20
-57.3176
11
70.065
21
-57.6174
0
LINE
8
BLACK
6
CONTINUOUS
10
70.065
20
-57.6174
11
69.9625
21
-57.8991
0
LINE
8
BLACK
6
CONTINUOUS
10
69.9625
20
-57.8991
11
69.7698
21
-58.1287
0
LINE
8
BLACK
6
CONTINUOUS
10
69.7698
20
-58.1287
11
69.5102
21
-58.2786
0
LINE
8
BLACK
6
CONTINUOUS
10
69.5102
20
-58.2786
11
69.2894
21
-58.3175
0
LINE
8
BLACK
6
CONTINUOUS
10
69.2894
20
-58.3175
11
69.1406
21
-58.3175
0
LINE
8
BLACK
6
CONTINUOUS
10
69.1406
20
-58.3175
11
68.9198
21
-58.2786
0
LINE
8
BLACK
6
CONTINUOUS
10
68.9198
20
-58.2786
11
68.6602
21
-58.1287
0
LINE
8
BLACK
6
CONTINUOUS
10
68.6602
20
-58.1287
11
68.4675
21
-57.8991
0
LINE
8
BLACK
6
CONTINUOUS
10
68.4675
20
-57.8991
11
68.365
21
-57.6174
0
LINE
8
BLACK
6
CONTINUOUS
10
68.365
20
-57.6174
11
68.365
21
-57.3176
0
LINE
8
BLACK
6
CONTINUOUS
10
68.365
20
-57.3176
11
68.4675
21
-57.0359
0
LINE
8
BLACK
6
CONTINUOUS
10
68.4675
20
-57.0359
11
68.6602
21
-56.8063
0
LINE
8
BLACK
6
CONTINUOUS
10
68.6602
20
-56.8063
11
68.9198
21
-56.6564
0
LINE
8
BLACK
6
CONTINUOUS
10
68.9198
20
-56.6564
11
69.1406
21
-56.6175
0
LINE
8
BLACK
6
CONTINUOUS
10
69.1406
20
-56.6175
11
69.2894
21
-56.6175
0
LINE
8
BLACK
6
CONTINUOUS
10
69.2894
20
-56.6175
11
69.5102
21
-56.6564
0
LINE
8
BLACK
6
CONTINUOUS
10
75.8428
20
-55.4341
11
76.0872
21
-55.5752
0
LINE
8
BLACK
6
CONTINUOUS
10
76.0872
20
-55.5752
11
76.2685
21
-55.7913
0
LINE
8
BLACK
6
CONTINUOUS
10
76.2685
20
-55.7913
11
76.365
21
-56.0564
0
LINE
8
BLACK
6
CONTINUOUS
10
76.365
20
-56.0564
11
76.365
21
-56.3386
0
LINE
8
BLACK
6
CONTINUOUS
10
76.365
20
-56.3386
11
76.2685
21
-56.6037
0
LINE
8
BLACK
6
CONTINUOUS
10
76.2685
20
-56.6037
11
76.0872
21
-56.8198
0
LINE
8
BLACK
6
CONTINUOUS
10
76.0872
20
-56.8198
11
75.8428
21
-56.9609
0
LINE
8
BLACK
6
CONTINUOUS
10
75.8428
20
-56.9609
11
75.635
21
-56.9975
0
LINE
8
BLACK
6
CONTINUOUS
10
75.635
20
-56.9975
11
75.495
21
-56.9975
0
LINE
8
BLACK
6
CONTINUOUS
10
75.495
20
-56.9975
11
75.2872
21
-56.9609
0
LINE
8
BLACK
6
CONTINUOUS
10
75.2872
20
-56.9609
11
75.0428
21
-56.8198
0
LINE
8
BLACK
6
CONTINUOUS
10
75.0428
20
-56.8198
11
74.8615
21
-56.6037
0
LINE
8
BLACK
6
CONTINUOUS
10
74.8615
20
-56.6037
11
74.765
21
-56.3386
0
LINE
8
BLACK
6
CONTINUOUS
10
74.765
20
-56.3386
11
74.765
21
-56.0564
0
LINE
8
BLACK
6
CONTINUOUS
10
74.765
20
-56.0564
11
74.8615
21
-55.7913
0
LINE
8
BLACK
6
CONTINUOUS
10
74.8615
20
-55.7913
11
75.0428
21
-55.5752
0
LINE
8
BLACK
6
CONTINUOUS
10
75.0428
20
-55.5752
11
75.2872
21
-55.4341
0
LINE
8
BLACK
6
CONTINUOUS
10
75.2872
20
-55.4341
11
75.495
21
-55.3975
0
LINE
8
BLACK
6
CONTINUOUS
10
75.495
20
-55.3975
11
75.635
21
-55.3975
0
LINE
8
BLACK
6
CONTINUOUS
10
75.635
20
-55.3975
11
75.8428
21
-55.4341
0
LINE
8
BLACK
6
CONTINUOUS
10
69.5102
20
-54.1164
11
69.7698
21
-54.2663
0
LINE
8
BLACK
6
CONTINUOUS
10
69.7698
20
-54.2663
11
69.9625
21
-54.4959
0
LINE
8
BLACK
6
CONTINUOUS
10
69.9625
20
-54.4959
11
70.065
21
-54.7776
0
LINE
8
BLACK
6
CONTINUOUS
10
70.065
20
-54.7776
11
70.065
21
-55.0774
0
LINE
8
BLACK
6
CONTINUOUS
10
70.065
20
-55.0774
11
69.9625
21
-55.3591
0
LINE
8
BLACK
6
CONTINUOUS
10
69.9625
20
-55.3591
11
69.7698
21
-55.5887
0
LINE
8
BLACK
6
CONTINUOUS
10
69.7698
20
-55.5887
11
69.5102
21
-55.7386
0
LINE
8
BLACK
6
CONTINUOUS
10
69.5102
20
-55.7386
11
69.2894
21
-55.7775
0
LINE
8
BLACK
6
CONTINUOUS
10
69.2894
20
-55.7775
11
69.1406
21
-55.7775
0
LINE
8
BLACK
6
CONTINUOUS
10
69.1406
20
-55.7775
11
68.9198
21
-55.7386
0
LINE
8
BLACK
6
CONTINUOUS
10
68.9198
20
-55.7386
11
68.6602
21
-55.5887
0
LINE
8
BLACK
6
CONTINUOUS
10
68.6602
20
-55.5887
11
68.4675
21
-55.3591
0
LINE
8
BLACK
6
CONTINUOUS
10
68.4675
20
-55.3591
11
68.365
21
-55.0774
0
LINE
8
BLACK
6
CONTINUOUS
10
68.365
20
-55.0774
11
68.365
21
-54.7776
0
LINE
8
BLACK
6
CONTINUOUS
10
68.365
20
-54.7776
11
68.4675
21
-54.4959
0
LINE
8
BLACK
6
CONTINUOUS
10
68.4675
20
-54.4959
11
68.6602
21
-54.2663
0
LINE
8
BLACK
6
CONTINUOUS
10
68.6602
20
-54.2663
11
68.9198
21
-54.1164
0
LINE
8
BLACK
6
CONTINUOUS
10
68.9198
20
-54.1164
11
69.1406
21
-54.0775
0
LINE
8
BLACK
6
CONTINUOUS
10
69.1406
20
-54.0775
11
69.2894
21
-54.0775
0
LINE
8
BLACK
6
CONTINUOUS
10
69.2894
20
-54.0775
11
69.5102
21
-54.1164
0
LINE
8
BLACK
6
CONTINUOUS
10
87.2589
20
-54.2023
11
87.4911
21
-54.3363
0
LINE
8
BLACK
6
CONTINUOUS
10
87.4911
20
-54.3363
11
87.6633
21
-54.5416
0
LINE
8
BLACK
6
CONTINUOUS
10
87.6633
20
-54.5416
11
87.755
21
-54.7935
0
LINE
8
BLACK
6
CONTINUOUS
10
87.755
20
-54.7935
11
87.755
21
-55.0615
0
LINE
8
BLACK
6
CONTINUOUS
10
87.755
20
-55.0615
11
87.6633
21
-55.3134
0
LINE
8
BLACK
6
CONTINUOUS
10
87.6633
20
-55.3134
11
87.4911
21
-55.5187
0
LINE
8
BLACK
6
CONTINUOUS
10
87.4911
20
-55.5187
11
87.2589
21
-55.6527
0
LINE
8
BLACK
6
CONTINUOUS
10
87.2589
20
-55.6527
11
86.995
21
-55.6992
0
LINE
8
BLACK
6
CONTINUOUS
10
86.995
20
-55.6992
11
86.7311
21
-55.6527
0
LINE
8
BLACK
6
CONTINUOUS
10
86.7311
20
-55.6527
11
86.4989
21
-55.5187
0
LINE
8
BLACK
6
CONTINUOUS
10
86.4989
20
-55.5187
11
86.3267
21
-55.3134
0
LINE
8
BLACK
6
CONTINUOUS
10
86.3267
20
-55.3134
11
86.235
21
-55.0615
0
LINE
8
BLACK
6
CONTINUOUS
10
86.235
20
-55.0615
11
86.235
21
-54.7935
0
LINE
8
BLACK
6
CONTINUOUS
10
86.235
20
-54.7935
11
86.3267
21
-54.5416
0
LINE
8
BLACK
6
CONTINUOUS
10
86.3267
20
-54.5416
11
86.4989
21
-54.3363
0
LINE
8
BLACK
6
CONTINUOUS
10
86.4989
20
-54.3363
11
86.7311
21
-54.2023
0
LINE
8
BLACK
6
CONTINUOUS
10
86.7311
20
-54.2023
11
86.995
21
-54.1558
0
LINE
8
BLACK
6
CONTINUOUS
10
86.995
20
-54.1558
11
87.2589
21
-54.2023
0
LINE
8
BLACK
6
CONTINUOUS
10
84.7189
20
-54.2023
11
84.9511
21
-54.3363
0
LINE
8
BLACK
6
CONTINUOUS
10
84.9511
20
-54.3363
11
85.1233
21
-54.5416
0
LINE
8
BLACK
6
CONTINUOUS
10
85.1233
20
-54.5416
11
85.215
21
-54.7935
0
LINE
8
BLACK
6
CONTINUOUS
10
85.215
20
-54.7935
11
85.215
21
-55.0615
0
LINE
8
BLACK
6
CONTINUOUS
10
85.215
20
-55.0615
11
85.1233
21
-55.3134
0
LINE
8
BLACK
6
CONTINUOUS
10
85.1233
20
-55.3134
11
84.9511
21
-55.5187
0
LINE
8
BLACK
6
CONTINUOUS
10
84.9511
20
-55.5187
11
84.7189
21
-55.6527
0
LINE
8
BLACK
6
CONTINUOUS
10
84.7189
20
-55.6527
11
84.455
21
-55.6992
0
LINE
8
BLACK
6
CONTINUOUS
10
84.455
20
-55.6992
11
84.1911
21
-55.6527
0
LINE
8
BLACK
6
CONTINUOUS
10
84.1911
20
-55.6527
11
83.9589
21
-55.5187
0
LINE
8
BLACK
6
CONTINUOUS
10
83.9589
20
-55.5187
11
83.7867
21
-55.3134
0
LINE
8
BLACK
6
CONTINUOUS
10
83.7867
20
-55.3134
11
83.695
21
-55.0615
0
LINE
8
BLACK
6
CONTINUOUS
10
83.695
20
-55.0615
11
83.695
21
-54.7935
0
LINE
8
BLACK
6
CONTINUOUS
10
83.695
20
-54.7935
11
83.7867
21
-54.5416
0
LINE
8
BLACK
6
CONTINUOUS
10
83.7867
20
-54.5416
11
83.9589
21
-54.3363
0
LINE
8
BLACK
6
CONTINUOUS
10
83.9589
20
-54.3363
11
84.1911
21
-54.2023
0
LINE
8
BLACK
6
CONTINUOUS
10
84.1911
20
-54.2023
11
84.455
21
-54.1558
0
LINE
8
BLACK
6
CONTINUOUS
10
84.455
20
-54.1558
11
84.7189
21
-54.2023
0
LINE
8
BLACK
6
CONTINUOUS
10
90.295
20
-55.6875
11
88.775
21
-55.6875
0
LINE
8
BLACK
6
CONTINUOUS
10
88.775
20
-55.6875
11
88.775
21
-54.1675
0
LINE
8
BLACK
6
CONTINUOUS
10
88.775
20
-54.1675
11
90.295
21
-54.1675
0
LINE
8
BLACK
6
CONTINUOUS
10
90.295
20
-54.1675
11
90.295
21
-55.6875
0
LINE
8
BLACK
6
CONTINUOUS
10
99.275
20
-53.2375
11
97.575
21
-53.2375
0
LINE
8
BLACK
6
CONTINUOUS
10
97.575
20
-53.2375
11
97.575
21
-51.5375
0
LINE
8
BLACK
6
CONTINUOUS
10
97.575
20
-51.5375
11
99.275
21
-51.5375
0
LINE
8
BLACK
6
CONTINUOUS
10
99.275
20
-51.5375
11
99.275
21
-53.2375
0
LINE
8
BLACK
6
CONTINUOUS
10
70.065
20
-53.2375
11
68.365
21
-53.2375
0
LINE
8
BLACK
6
CONTINUOUS
10
68.365
20
-53.2375
11
68.365
21
-51.5375
0
LINE
8
BLACK
6
CONTINUOUS
10
68.365
20
-51.5375
11
70.065
21
-51.5375
0
LINE
8
BLACK
6
CONTINUOUS
10
70.065
20
-51.5375
11
70.065
21
-53.2375
0
LINE
8
BLACK
6
CONTINUOUS
10
98.7202
20
-49.0364
11
98.9798
21
-49.1863
0
LINE
8
BLACK
6
CONTINUOUS
10
98.9798
20
-49.1863
11
99.1725
21
-49.4159
0
LINE
8
BLACK
6
CONTINUOUS
10
99.1725
20
-49.4159
11
99.275
21
-49.6976
0
LINE
8
BLACK
6
CONTINUOUS
10
99.275
20
-49.6976
11
99.275
21
-49.9974
0
LINE
8
BLACK
6
CONTINUOUS
10
99.275
20
-49.9974
11
99.1725
21
-50.2791
0
LINE
8
BLACK
6
CONTINUOUS
10
99.1725
20
-50.2791
11
98.9798
21
-50.5087
0
LINE
8
BLACK
6
CONTINUOUS
10
98.9798
20
-50.5087
11
98.7202
21
-50.6586
0
LINE
8
BLACK
6
CONTINUOUS
10
98.7202
20
-50.6586
11
98.4994
21
-50.6975
0
LINE
8
BLACK
6
CONTINUOUS
10
98.4994
20
-50.6975
11
98.3506
21
-50.6975
0
LINE
8
BLACK
6
CONTINUOUS
10
98.3506
20
-50.6975
11
98.1298
21
-50.6586
0
LINE
8
BLACK
6
CONTINUOUS
10
98.1298
20
-50.6586
11
97.8702
21
-50.5087
0
LINE
8
BLACK
6
CONTINUOUS
10
97.8702
20
-50.5087
11
97.6775
21
-50.2791
0
LINE
8
BLACK
6
CONTINUOUS
10
97.6775
20
-50.2791
11
97.575
21
-49.9974
0
LINE
8
BLACK
6
CONTINUOUS
10
97.575
20
-49.9974
11
97.575
21
-49.6976
0
LINE
8
BLACK
6
CONTINUOUS
10
97.575
20
-49.6976
11
97.6775
21
-49.4159
0
LINE
8
BLACK
6
CONTINUOUS
10
97.6775
20
-49.4159
11
97.8702
21
-49.1863
0
LINE
8
BLACK
6
CONTINUOUS
10
97.8702
20
-49.1863
11
98.1298
21
-49.0364
0
LINE
8
BLACK
6
CONTINUOUS
10
98.1298
20
-49.0364
11
98.3506
21
-48.9975
0
LINE
8
BLACK
6
CONTINUOUS
10
98.3506
20
-48.9975
11
98.4994
21
-48.9975
0
LINE
8
BLACK
6
CONTINUOUS
10
98.4994
20
-48.9975
11
98.7202
21
-49.0364
0
LINE
8
BLACK
6
CONTINUOUS
10
57.365
20
-49.4275
11
55.665
21
-49.4275
0
LINE
8
BLACK
6
CONTINUOUS
10
55.665
20
-49.4275
11
55.665
21
-47.7275
0
LINE
8
BLACK
6
CONTINUOUS
10
55.665
20
-47.7275
11
57.365
21
-47.7275
0
LINE
8
BLACK
6
CONTINUOUS
10
57.365
20
-47.7275
11
57.365
21
-49.4275
0
LINE
8
BLACK
6
CONTINUOUS
10
75.8428
20
-47.8141
11
76.0872
21
-47.9552
0
LINE
8
BLACK
6
CONTINUOUS
10
76.0872
20
-47.9552
11
76.2685
21
-48.1713
0
LINE
8
BLACK
6
CONTINUOUS
10
76.2685
20
-48.1713
11
76.365
21
-48.4364
0
LINE
8
BLACK
6
CONTINUOUS
10
76.365
20
-48.4364
11
76.365
21
-48.7186
0
LINE
8
BLACK
6
CONTINUOUS
10
76.365
20
-48.7186
11
76.2685
21
-48.9837
0
LINE
8
BLACK
6
CONTINUOUS
10
76.2685
20
-48.9837
11
76.0872
21
-49.1998
0
LINE
8
BLACK
6
CONTINUOUS
10
76.0872
20
-49.1998
11
75.8428
21
-49.3409
0
LINE
8
BLACK
6
CONTINUOUS
10
75.8428
20
-49.3409
11
75.565
21
-49.3898
0
LINE
8
BLACK
6
CONTINUOUS
10
75.565
20
-49.3898
11
75.2872
21
-49.3409
0
LINE
8
BLACK
6
CONTINUOUS
10
75.2872
20
-49.3409
11
75.0428
21
-49.1998
0
LINE
8
BLACK
6
CONTINUOUS
10
75.0428
20
-49.1998
11
74.8615
21
-48.9837
0
LINE
8
BLACK
6
CONTINUOUS
10
74.8615
20
-48.9837
11
74.765
21
-48.7186
0
LINE
8
BLACK
6
CONTINUOUS
10
74.765
20
-48.7186
11
74.765
21
-48.4364
0
LINE
8
BLACK
6
CONTINUOUS
10
74.765
20
-48.4364
11
74.8615
21
-48.1713
0
LINE
8
BLACK
6
CONTINUOUS
10
74.8615
20
-48.1713
11
75.0428
21
-47.9552
0
LINE
8
BLACK
6
CONTINUOUS
10
75.0428
20
-47.9552
11
75.2872
21
-47.8141
0
LINE
8
BLACK
6
CONTINUOUS
10
75.2872
20
-47.8141
11
75.565
21
-47.7652
0
LINE
8
BLACK
6
CONTINUOUS
10
75.565
20
-47.7652
11
75.8428
21
-47.8141
0
LINE
8
BLACK
6
CONTINUOUS
10
56.8102
20
-45.2264
11
57.0698
21
-45.3763
0
LINE
8
BLACK
6
CONTINUOUS
10
57.0698
20
-45.3763
11
57.2625
21
-45.6059
0
LINE
8
BLACK
6
CONTINUOUS
10
57.2625
20
-45.6059
11
57.365
21
-45.8876
0
LINE
8
BLACK
6
CONTINUOUS
10
57.365
20
-45.8876
11
57.365
21
-46.1874
0
LINE
8
BLACK
6
CONTINUOUS
10
57.365
20
-46.1874
11
57.2625
21
-46.4691
0
LINE
8
BLACK
6
CONTINUOUS
10
57.2625
20
-46.4691
11
57.0698
21
-46.6987
0
LINE
8
BLACK
6
CONTINUOUS
10
57.0698
20
-46.6987
11
56.8102
21
-46.8486
0
LINE
8
BLACK
6
CONTINUOUS
10
56.8102
20
-46.8486
11
56.5894
21
-46.8875
0
LINE
8
BLACK
6
CONTINUOUS
10
56.5894
20
-46.8875
11
56.4406
21
-46.8875
0
LINE
8
BLACK
6
CONTINUOUS
10
56.4406
20
-46.8875
11
56.2198
21
-46.8486
0
LINE
8
BLACK
6
CONTINUOUS
10
56.2198
20
-46.8486
11
55.9602
21
-46.6987
0
LINE
8
BLACK
6
CONTINUOUS
10
55.9602
20
-46.6987
11
55.7675
21
-46.4691
0
LINE
8
BLACK
6
CONTINUOUS
10
55.7675
20
-46.4691
11
55.665
21
-46.1874
0
LINE
8
BLACK
6
CONTINUOUS
10
55.665
20
-46.1874
11
55.665
21
-45.8876
0
LINE
8
BLACK
6
CONTINUOUS
10
55.665
20
-45.8876
11
55.7675
21
-45.6059
0
LINE
8
BLACK
6
CONTINUOUS
10
55.7675
20
-45.6059
11
55.9602
21
-45.3763
0
LINE
8
BLACK
6
CONTINUOUS
10
55.9602
20
-45.3763
11
56.2198
21
-45.2264
0
LINE
8
BLACK
6
CONTINUOUS
10
56.2198
20
-45.2264
11
56.4406
21
-45.1875
0
LINE
8
BLACK
6
CONTINUOUS
10
56.4406
20
-45.1875
11
56.5894
21
-45.1875
0
LINE
8
BLACK
6
CONTINUOUS
10
56.5894
20
-45.1875
11
56.8102
21
-45.2264
0
LINE
8
BLACK
6
CONTINUOUS
10
92.975
20
-44.3975
11
91.175
21
-44.3975
0
LINE
8
BLACK
6
CONTINUOUS
10
91.175
20
-44.3975
11
91.175
21
-42.5975
0
LINE
8
BLACK
6
CONTINUOUS
10
91.175
20
-42.5975
11
92.975
21
-42.5975
0
LINE
8
BLACK
6
CONTINUOUS
10
92.975
20
-42.5975
11
92.975
21
-44.3975
0
LINE
8
BLACK
6
CONTINUOUS
10
84.7676
20
-42.6387
11
85.0424
21
-42.7974
0
LINE
8
BLACK
6
CONTINUOUS
10
85.0424
20
-42.7974
11
85.2464
21
-43.0406
0
LINE
8
BLACK
6
CONTINUOUS
10
85.2464
20
-43.0406
11
85.355
21
-43.3388
0
LINE
8
BLACK
6
CONTINUOUS
10
85.355
20
-43.3388
11
85.355
21
-43.6562
0
LINE
8
BLACK
6
CONTINUOUS
10
85.355
20
-43.6562
11
85.2464
21
-43.9544
0
LINE
8
BLACK
6
CONTINUOUS
10
85.2464
20
-43.9544
11
85.0424
21
-44.1976
0
LINE
8
BLACK
6
CONTINUOUS
10
85.0424
20
-44.1976
11
84.7676
21
-44.3563
0
LINE
8
BLACK
6
CONTINUOUS
10
84.7676
20
-44.3563
11
84.5337
21
-44.3975
0
LINE
8
BLACK
6
CONTINUOUS
10
84.5337
20
-44.3975
11
84.3763
21
-44.3975
0
LINE
8
BLACK
6
CONTINUOUS
10
84.3763
20
-44.3975
11
84.1424
21
-44.3563
0
LINE
8
BLACK
6
CONTINUOUS
10
84.1424
20
-44.3563
11
83.8676
21
-44.1976
0
LINE
8
BLACK
6
CONTINUOUS
10
83.8676
20
-44.1976
11
83.6636
21
-43.9544
0
LINE
8
BLACK
6
CONTINUOUS
10
83.6636
20
-43.9544
11
83.555
21
-43.6562
0
LINE
8
BLACK
6
CONTINUOUS
10
83.555
20
-43.6562
11
83.555
21
-43.3388
0
LINE
8
BLACK
6
CONTINUOUS
10
83.555
20
-43.3388
11
83.6636
21
-43.0406
0
LINE
8
BLACK
6
CONTINUOUS
10
83.6636
20
-43.0406
11
83.8676
21
-42.7974
0
LINE
8
BLACK
6
CONTINUOUS
10
83.8676
20
-42.7974
11
84.1424
21
-42.6387
0
LINE
8
BLACK
6
CONTINUOUS
10
84.1424
20
-42.6387
11
84.3763
21
-42.5975
0
LINE
8
BLACK
6
CONTINUOUS
10
84.3763
20
-42.5975
11
84.5337
21
-42.5975
0
LINE
8
BLACK
6
CONTINUOUS
10
84.5337
20
-42.5975
11
84.7676
21
-42.6387
0
LINE
8
BLACK
6
CONTINUOUS
10
82.2276
20
-42.6387
11
82.5024
21
-42.7974
0
LINE
8
BLACK
6
CONTINUOUS
10
82.5024
20
-42.7974
11
82.7064
21
-43.0406
0
LINE
8
BLACK
6
CONTINUOUS
10
82.7064
20
-43.0406
11
82.815
21
-43.3388
0
LINE
8
BLACK
6
CONTINUOUS
10
82.815
20
-43.3388
11
82.815
21
-43.6562
0
LINE
8
BLACK
6
CONTINUOUS
10
82.815
20
-43.6562
11
82.7064
21
-43.9544
0
LINE
8
BLACK
6
CONTINUOUS
10
82.7064
20
-43.9544
11
82.5024
21
-44.1976
0
LINE
8
BLACK
6
CONTINUOUS
10
82.5024
20
-44.1976
11
82.2276
21
-44.3563
0
LINE
8
BLACK
6
CONTINUOUS
10
82.2276
20
-44.3563
11
81.9937
21
-44.3975
0
LINE
8
BLACK
6
CONTINUOUS
10
81.9937
20
-44.3975
11
81.8363
21
-44.3975
0
LINE
8
BLACK
6
CONTINUOUS
10
81.8363
20
-44.3975
11
81.6024
21
-44.3563
0
LINE
8
BLACK
6
CONTINUOUS
10
81.6024
20
-44.3563
11
81.3276
21
-44.1976
0
LINE
8
BLACK
6
CONTINUOUS
10
81.3276
20
-44.1976
11
81.1236
21
-43.9544
0
LINE
8
BLACK
6
CONTINUOUS
10
81.1236
20
-43.9544
11
81.015
21
-43.6562
0
LINE
8
BLACK
6
CONTINUOUS
10
81.015
20
-43.6562
11
81.015
21
-43.3388
0
LINE
8
BLACK
6
CONTINUOUS
10
81.015
20
-43.3388
11
81.1236
21
-43.0406
0
LINE
8
BLACK
6
CONTINUOUS
10
81.1236
20
-43.0406
11
81.3276
21
-42.7974
0
LINE
8
BLACK
6
CONTINUOUS
10
81.3276
20
-42.7974
11
81.6024
21
-42.6387
0
LINE
8
BLACK
6
CONTINUOUS
10
81.6024
20
-42.6387
11
81.8363
21
-42.5975
0
LINE
8
BLACK
6
CONTINUOUS
10
81.8363
20
-42.5975
11
81.9937
21
-42.5975
0
LINE
8
BLACK
6
CONTINUOUS
10
81.9937
20
-42.5975
11
82.2276
21
-42.6387
0
LINE
8
BLACK
6
CONTINUOUS
10
97.4676
20
-42.6387
11
97.7424
21
-42.7974
0
LINE
8
BLACK
6
CONTINUOUS
10
97.7424
20
-42.7974
11
97.9464
21
-43.0406
0
LINE
8
BLACK
6
CONTINUOUS
10
97.9464
20
-43.0406
11
98.055
21
-43.3388
0
LINE
8
BLACK
6
CONTINUOUS
10
98.055
20
-43.3388
11
98.055
21
-43.6562
0
LINE
8
BLACK
6
CONTINUOUS
10
98.055
20
-43.6562
11
97.9464
21
-43.9544
0
LINE
8
BLACK
6
CONTINUOUS
10
97.9464
20
-43.9544
11
97.7424
21
-44.1976
0
LINE
8
BLACK
6
CONTINUOUS
10
97.7424
20
-44.1976
11
97.4676
21
-44.3563
0
LINE
8
BLACK
6
CONTINUOUS
10
97.4676
20
-44.3563
11
97.2337
21
-44.3975
0
LINE
8
BLACK
6
CONTINUOUS
10
97.2337
20
-44.3975
11
97.0763
21
-44.3975
0
LINE
8
BLACK
6
CONTINUOUS
10
97.0763
20
-44.3975
11
96.8424
21
-44.3563
0
LINE
8
BLACK
6
CONTINUOUS
10
96.8424
20
-44.3563
11
96.5676
21
-44.1976
0
LINE
8
BLACK
6
CONTINUOUS
10
96.5676
20
-44.1976
11
96.3636
21
-43.9544
0
LINE
8
BLACK
6
CONTINUOUS
10
96.3636
20
-43.9544
11
96.255
21
-43.6562
0
LINE
8
BLACK
6
CONTINUOUS
10
96.255
20
-43.6562
11
96.255
21
-43.3388
0
LINE
8
BLACK
6
CONTINUOUS
10
96.255
20
-43.3388
11
96.3636
21
-43.0406
0
LINE
8
BLACK
6
CONTINUOUS
10
96.3636
20
-43.0406
11
96.5676
21
-42.7974
0
LINE
8
BLACK
6
CONTINUOUS
10
96.5676
20
-42.7974
11
96.8424
21
-42.6387
0
LINE
8
BLACK
6
CONTINUOUS
10
96.8424
20
-42.6387
11
97.0763
21
-42.5975
0
LINE
8
BLACK
6
CONTINUOUS
10
97.0763
20
-42.5975
11
97.2337
21
-42.5975
0
LINE
8
BLACK
6
CONTINUOUS
10
97.2337
20
-42.5975
11
97.4676
21
-42.6387
0
LINE
8
BLACK
6
CONTINUOUS
10
94.9276
20
-42.6387
11
95.2024
21
-42.7974
0
LINE
8
BLACK
6
CONTINUOUS
10
95.2024
20
-42.7974
11
95.4064
21
-43.0406
0
LINE
8
BLACK
6
CONTINUOUS
10
95.4064
20
-43.0406
11
95.515
21
-43.3388
0
LINE
8
BLACK
6
CONTINUOUS
10
95.515
20
-43.3388
11
95.515
21
-43.6562
0
LINE
8
BLACK
6
CONTINUOUS
10
95.515
20
-43.6562
11
95.4064
21
-43.9544
0
LINE
8
BLACK
6
CONTINUOUS
10
95.4064
20
-43.9544
11
95.2024
21
-44.1976
0
LINE
8
BLACK
6
CONTINUOUS
10
95.2024
20
-44.1976
11
94.9276
21
-44.3563
0
LINE
8
BLACK
6
CONTINUOUS
10
94.9276
20
-44.3563
11
94.6937
21
-44.3975
0
LINE
8
BLACK
6
CONTINUOUS
10
94.6937
20
-44.3975
11
94.5363
21
-44.3975
0
LINE
8
BLACK
6
CONTINUOUS
10
94.5363
20
-44.3975
11
94.3024
21
-44.3563
0
LINE
8
BLACK
6
CONTINUOUS
10
94.3024
20
-44.3563
11
94.0276
21
-44.1976
0
LINE
8
BLACK
6
CONTINUOUS
10
94.0276
20
-44.1976
11
93.8236
21
-43.9544
0
LINE
8
BLACK
6
CONTINUOUS
10
93.8236
20
-43.9544
11
93.715
21
-43.6562
0
LINE
8
BLACK
6
CONTINUOUS
10
93.715
20
-43.6562
11
93.715
21
-43.3388
0
LINE
8
BLACK
6
CONTINUOUS
10
93.715
20
-43.3388
11
93.8236
21
-43.0406
0
LINE
8
BLACK
6
CONTINUOUS
10
93.8236
20
-43.0406
11
94.0276
21
-42.7974
0
LINE
8
BLACK
6
CONTINUOUS
10
94.0276
20
-42.7974
11
94.3024
21
-42.6387
0
LINE
8
BLACK
6
CONTINUOUS
10
94.3024
20
-42.6387
11
94.5363
21
-42.5975
0
LINE
8
BLACK
6
CONTINUOUS
10
94.5363
20
-42.5975
11
94.6937
21
-42.5975
0
LINE
8
BLACK
6
CONTINUOUS
10
94.6937
20
-42.5975
11
94.9276
21
-42.6387
0
LINE
8
BLACK
6
CONTINUOUS
10
80.275
20
-44.3975
11
78.475
21
-44.3975
0
LINE
8
BLACK
6
CONTINUOUS
10
78.475
20
-44.3975
11
78.475
21
-42.5975
0
LINE
8
BLACK
6
CONTINUOUS
10
78.475
20
-42.5975
11
80.275
21
-42.5975
0
LINE
8
BLACK
6
CONTINUOUS
10
80.275
20
-42.5975
11
80.275
21
-44.3975
0
LINE
8
BLACK
6
CONTINUOUS
10
69.5102
20
-41.4164
11
69.7698
21
-41.5663
0
LINE
8
BLACK
6
CONTINUOUS
10
69.7698
20
-41.5663
11
69.9625
21
-41.7959
0
LINE
8
BLACK
6
CONTINUOUS
10
69.9625
20
-41.7959
11
70.065
21
-42.0776
0
LINE
8
BLACK
6
CONTINUOUS
10
70.065
20
-42.0776
11
70.065
21
-42.3774
0
LINE
8
BLACK
6
CONTINUOUS
10
70.065
20
-42.3774
11
69.9625
21
-42.6591
0
LINE
8
BLACK
6
CONTINUOUS
10
69.9625
20
-42.6591
11
69.7698
21
-42.8887
0
LINE
8
BLACK
6
CONTINUOUS
10
69.7698
20
-42.8887
11
69.5102
21
-43.0386
0
LINE
8
BLACK
6
CONTINUOUS
10
69.5102
20
-43.0386
11
69.2894
21
-43.0775
0
LINE
8
BLACK
6
CONTINUOUS
10
69.2894
20
-43.0775
11
69.1406
21
-43.0775
0
LINE
8
BLACK
6
CONTINUOUS
10
69.1406
20
-43.0775
11
68.9198
21
-43.0386
0
LINE
8
BLACK
6
CONTINUOUS
10
68.9198
20
-43.0386
11
68.6602
21
-42.8887
0
LINE
8
BLACK
6
CONTINUOUS
10
68.6602
20
-42.8887
11
68.4675
21
-42.6591
0
LINE
8
BLACK
6
CONTINUOUS
10
68.4675
20
-42.6591
11
68.365
21
-42.3774
0
LINE
8
BLACK
6
CONTINUOUS
10
68.365
20
-42.3774
11
68.365
21
-42.0776
0
LINE
8
BLACK
6
CONTINUOUS
10
68.365
20
-42.0776
11
68.4675
21
-41.7959
0
LINE
8
BLACK
6
CONTINUOUS
10
68.4675
20
-41.7959
11
68.6602
21
-41.5663
0
LINE
8
BLACK
6
CONTINUOUS
10
68.6602
20
-41.5663
11
68.9198
21
-41.4164
0
LINE
8
BLACK
6
CONTINUOUS
10
68.9198
20
-41.4164
11
69.1406
21
-41.3775
0
LINE
8
BLACK
6
CONTINUOUS
10
69.1406
20
-41.3775
11
69.2894
21
-41.3775
0
LINE
8
BLACK
6
CONTINUOUS
10
69.2894
20
-41.3775
11
69.5102
21
-41.4164
0
LINE
8
BLACK
6
CONTINUOUS
10
69.5102
20
-38.8764
11
69.7698
21
-39.0263
0
LINE
8
BLACK
6
CONTINUOUS
10
69.7698
20
-39.0263
11
69.9625
21
-39.2559
0
LINE
8
BLACK
6
CONTINUOUS
10
69.9625
20
-39.2559
11
70.065
21
-39.5376
0
LINE
8
BLACK
6
CONTINUOUS
10
70.065
20
-39.5376
11
70.065
21
-39.8374
0
LINE
8
BLACK
6
CONTINUOUS
10
70.065
20
-39.8374
11
69.9625
21
-40.1191
0
LINE
8
BLACK
6
CONTINUOUS
10
69.9625
20
-40.1191
11
69.7698
21
-40.3487
0
LINE
8
BLACK
6
CONTINUOUS
10
69.7698
20
-40.3487
11
69.5102
21
-40.4986
0
LINE
8
BLACK
6
CONTINUOUS
10
69.5102
20
-40.4986
11
69.2894
21
-40.5375
0
LINE
8
BLACK
6
CONTINUOUS
10
69.2894
20
-40.5375
11
69.1406
21
-40.5375
0
LINE
8
BLACK
6
CONTINUOUS
10
69.1406
20
-40.5375
11
68.9198
21
-40.4986
0
LINE
8
BLACK
6
CONTINUOUS
10
68.9198
20
-40.4986
11
68.6602
21
-40.3487
0
LINE
8
BLACK
6
CONTINUOUS
10
68.6602
20
-40.3487
11
68.4675
21
-40.1191
0
LINE
8
BLACK
6
CONTINUOUS
10
68.4675
20
-40.1191
11
68.365
21
-39.8374
0
LINE
8
BLACK
6
CONTINUOUS
10
68.365
20
-39.8374
11
68.365
21
-39.5376
0
LINE
8
BLACK
6
CONTINUOUS
10
68.365
20
-39.5376
11
68.4675
21
-39.2559
0
LINE
8
BLACK
6
CONTINUOUS
10
68.4675
20
-39.2559
11
68.6602
21
-39.0263
0
LINE
8
BLACK
6
CONTINUOUS
10
68.6602
20
-39.0263
11
68.9198
21
-38.8764
0
LINE
8
BLACK
6
CONTINUOUS
10
68.9198
20
-38.8764
11
69.1406
21
-38.8375
0
LINE
8
BLACK
6
CONTINUOUS
10
69.1406
20
-38.8375
11
69.2894
21
-38.8375
0
LINE
8
BLACK
6
CONTINUOUS
10
69.2894
20
-38.8375
11
69.5102
21
-38.8764
0
LINE
8
BLACK
6
CONTINUOUS
10
70.065
20
-37.9975
11
68.365
21
-37.9975
0
LINE
8
BLACK
6
CONTINUOUS
10
68.365
20
-37.9975
11
68.365
21
-36.2975
0
LINE
8
BLACK
6
CONTINUOUS
10
68.365
20
-36.2975
11
70.065
21
-36.2975
0
LINE
8
BLACK
6
CONTINUOUS
10
70.065
20
-36.2975
11
70.065
21
-37.9975
0
LINE
8
BLACK
6
CONTINUOUS
10
57.365
20
-36.7275
11
55.665
21
-36.7275
0
LINE
8
BLACK
6
CONTINUOUS
10
55.665
20
-36.7275
11
55.665
21
-35.0275
0
LINE
8
BLACK
6
CONTINUOUS
10
55.665
20
-35.0275
11
57.365
21
-35.0275
0
LINE
8
BLACK
6
CONTINUOUS
10
57.365
20
-35.0275
11
57.365
21
-36.7275
0
LINE
8
BLACK
6
CONTINUOUS
10
56.8102
20
-32.5264
11
57.0698
21
-32.6763
0
LINE
8
BLACK
6
CONTINUOUS
10
57.0698
20
-32.6763
11
57.2625
21
-32.9059
0
LINE
8
BLACK
6
CONTINUOUS
10
57.2625
20
-32.9059
11
57.365
21
-33.1876
0
LINE
8
BLACK
6
CONTINUOUS
10
57.365
20
-33.1876
11
57.365
21
-33.4874
0
LINE
8
BLACK
6
CONTINUOUS
10
57.365
20
-33.4874
11
57.2625
21
-33.7691
0
LINE
8
BLACK
6
CONTINUOUS
10
57.2625
20
-33.7691
11
57.0698
21
-33.9987
0
LINE
8
BLACK
6
CONTINUOUS
10
57.0698
20
-33.9987
11
56.8102
21
-34.1486
0
LINE
8
BLACK
6
CONTINUOUS
10
56.8102
20
-34.1486
11
56.5894
21
-34.1875
0
LINE
8
BLACK
6
CONTINUOUS
10
56.5894
20
-34.1875
11
56.4406
21
-34.1875
0
LINE
8
BLACK
6
CONTINUOUS
10
56.4406
20
-34.1875
11
56.2198
21
-34.1486
0
LINE
8
BLACK
6
CONTINUOUS
10
56.2198
20
-34.1486
11
55.9602
21
-33.9987
0
LINE
8
BLACK
6
CONTINUOUS
10
55.9602
20
-33.9987
11
55.7675
21
-33.7691
0
LINE
8
BLACK
6
CONTINUOUS
10
55.7675
20
-33.7691
11
55.665
21
-33.4874
0
LINE
8
BLACK
6
CONTINUOUS
10
55.665
20
-33.4874
11
55.665
21
-33.1876
0
LINE
8
BLACK
6
CONTINUOUS
10
55.665
20
-33.1876
11
55.7675
21
-32.9059
0
LINE
8
BLACK
6
CONTINUOUS
10
55.7675
20
-32.9059
11
55.9602
21
-32.6763
0
LINE
8
BLACK
6
CONTINUOUS
10
55.9602
20
-32.6763
11
56.2198
21
-32.5264
0
LINE
8
BLACK
6
CONTINUOUS
10
56.2198
20
-32.5264
11
56.4406
21
-32.4875
0
LINE
8
BLACK
6
CONTINUOUS
10
56.4406
20
-32.4875
11
56.5894
21
-32.4875
0
LINE
8
BLACK
6
CONTINUOUS
10
56.5894
20
-32.4875
11
56.8102
21
-32.5264
0
LINE
8
BLACK
6
CONTINUOUS
10
46.4841
20
-27.7458
11
47.1559
21
-28.1337
0
LINE
8
BLACK
6
CONTINUOUS
10
47.1559
20
-28.1337
11
47.6546
21
-28.728
0
LINE
8
BLACK
6
CONTINUOUS
10
47.6546
20
-28.728
11
47.92
21
-29.4571
0
LINE
8
BLACK
6
CONTINUOUS
10
47.92
20
-29.4571
11
47.92
21
-30.2329
0
LINE
8
BLACK
6
CONTINUOUS
10
47.92
20
-30.2329
11
47.6546
21
-30.962
0
LINE
8
BLACK
6
CONTINUOUS
10
47.6546
20
-30.962
11
47.1559
21
-31.5563
0
LINE
8
BLACK
6
CONTINUOUS
10
47.1559
20
-31.5563
11
46.4841
21
-31.9442
0
LINE
8
BLACK
6
CONTINUOUS
10
46.4841
20
-31.9442
11
45.72
21
-32.0789
0
LINE
8
BLACK
6
CONTINUOUS
10
45.72
20
-32.0789
11
44.9559
21
-31.9442
0
LINE
8
BLACK
6
CONTINUOUS
10
44.9559
20
-31.9442
11
44.2841
21
-31.5563
0
LINE
8
BLACK
6
CONTINUOUS
10
44.2841
20
-31.5563
11
43.7854
21
-30.962
0
LINE
8
BLACK
6
CONTINUOUS
10
43.7854
20
-30.962
11
43.52
21
-30.2329
0
LINE
8
BLACK
6
CONTINUOUS
10
43.52
20
-30.2329
11
43.52
21
-29.4571
0
LINE
8
BLACK
6
CONTINUOUS
10
43.52
20
-29.4571
11
43.7854
21
-28.728
0
LINE
8
BLACK
6
CONTINUOUS
10
43.7854
20
-28.728
11
44.2841
21
-28.1337
0
LINE
8
BLACK
6
CONTINUOUS
10
44.2841
20
-28.1337
11
44.9559
21
-27.7458
0
LINE
8
BLACK
6
CONTINUOUS
10
44.9559
20
-27.7458
11
45.72
21
-27.6111
0
LINE
8
BLACK
6
CONTINUOUS
10
45.72
20
-27.6111
11
46.4841
21
-27.7458
0
LINE
8
BLACK
6
CONTINUOUS
10
97.2841
20
-27.7458
11
97.9559
21
-28.1337
0
LINE
8
BLACK
6
CONTINUOUS
10
97.9559
20
-28.1337
11
98.4546
21
-28.728
0
LINE
8
BLACK
6
CONTINUOUS
10
98.4546
20
-28.728
11
98.72
21
-29.4571
0
LINE
8
BLACK
6
CONTINUOUS
10
98.72
20
-29.4571
11
98.72
21
-30.2329
0
LINE
8
BLACK
6
CONTINUOUS
10
98.72
20
-30.2329
11
98.4546
21
-30.962
0
LINE
8
BLACK
6
CONTINUOUS
10
98.4546
20
-30.962
11
97.9559
21
-31.5563
0
LINE
8
BLACK
6
CONTINUOUS
10
97.9559
20
-31.5563
11
97.2841
21
-31.9442
0
LINE
8
BLACK
6
CONTINUOUS
10
97.2841
20
-31.9442
11
96.52
21
-32.0789
0
LINE
8
BLACK
6
CONTINUOUS
10
96.52
20
-32.0789
11
95.7559
21
-31.9442
0
LINE
8
BLACK
6
CONTINUOUS
10
95.7559
20
-31.9442
11
95.0841
21
-31.5563
0
LINE
8
BLACK
6
CONTINUOUS
10
95.0841
20
-31.5563
11
94.5854
21
-30.962
0
LINE
8
BLACK
6
CONTINUOUS
10
94.5854
20
-30.962
11
94.32
21
-30.2329
0
LINE
8
BLACK
6
CONTINUOUS
10
94.32
20
-30.2329
11
94.32
21
-29.4571
0
LINE
8
BLACK
6
CONTINUOUS
10
94.32
20
-29.4571
11
94.5854
21
-28.728
0
LINE
8
BLACK
6
CONTINUOUS
10
94.5854
20
-28.728
11
95.0841
21
-28.1337
0
LINE
8
BLACK
6
CONTINUOUS
10
95.0841
20
-28.1337
11
95.7559
21
-27.7458
0
LINE
8
BLACK
6
CONTINUOUS
10
95.7559
20
-27.7458
11
96.52
21
-27.6111
0
LINE
8
BLACK
6
CONTINUOUS
10
96.52
20
-27.6111
11
97.2841
21
-27.7458
  0
ENDSEC
  0
EOF
