<?xml version="1.0" standalone="no"?>
 <!DOCTYPE svg PUBLIC "-//W3C//DTD SVG 1.1//EN" 
 "http://www.w3.org/Graphics/SVG/1.1/DTD/svg11.dtd"> 
<svg xmlns="http://www.w3.org/2000/svg" version="1.1" 
    width="29.7002cm" height="21.0007cm" viewBox="0 0 116930 82680 ">
<title>SVG Picture created as resetter-F.SilkS.svg date 2018/12/30 15:55:50 </title>
  <desc>Picture generated by PCBNEW </desc>
<g style="fill:#000000; fill-opacity:1;stroke:#000000; stroke-opacity:1;
stroke-linecap:round; stroke-linejoin:round; "
 transform="translate(0 0) scale(1 1)">
</g>
<g style="fill:#000000; fill-opacity:0.0; 
stroke:#000000; stroke-width:-0.000393701; stroke-opacity:1; 
stroke-linecap:round; stroke-linejoin:round;">
</g>
<g style="fill:#000000; fill-opacity:0.0; 
stroke:#000000; stroke-width:47.2441; stroke-opacity:1; 
stroke-linecap:round; stroke-linejoin:round;">
<path d="M22773 19648
L22250 19648
" />
<path d="M22773 19125
L22773 19648
" />
<path d="M22773 18625
L21726 18625
" />
<path d="M21726 18625
L21726 17601
" />
<path d="M22773 18625
L22773 17601
" />
<path d="M22773 17601
L21726 17601
" />
<path d="M21726 22101
L22250 22101
" />
<path d="M21726 22625
L21726 22101
" />
<path d="M21726 23125
L22773 23125
" />
<path d="M22773 23125
L22773 23148
" />
<path d="M21726 23125
L21726 23148
" />
<path d="M21726 23148
L22773 23148
" />
<path d="M39273 19101
L38226 19101
" />
<path d="M39273 20125
L39273 19101
" />
<path d="M38226 20125
L38226 19101
" />
<path d="M39273 20125
L38226 20125
" />
<path d="M39273 20625
L39273 21148
" />
<path d="M39273 21148
L38750 21148
" />
<path d="M22773 14648
L22250 14648
" />
<path d="M22773 14125
L22773 14648
" />
<path d="M22773 13625
L21726 13625
" />
<path d="M21726 13625
L21726 12601
" />
<path d="M22773 13625
L22773 12601
" />
<path d="M22773 12601
L21726 12601
" />
<path d="M32978 16093
L32978 16687
" />
<path d="M31521 16093
L31521 16687
" />
<path d="M30234 16687
L34265 16687
" />
<path d="M34265 16093
L34265 17920
" />
<path d="M30234 16093
L30234 17920
" />
<path d="M30234 17920
L34265 17920
" />
<path d="M30234 16093
L34265 16093
" />
<path d="M35234 16093
L39265 16093
" />
<path d="M35234 17920
L39265 17920
" />
<path d="M35234 16093
L35234 17920
" />
<path d="M39265 16093
L39265 17920
" />
<path d="M35234 16687
L39265 16687
" />
<path d="M36521 16093
L36521 16687
" />
<path d="M37978 16093
L37978 16687
" />
<path d="M29986 24109
L29986 24239
" />
<path d="M32513 24109
L29986 24109
" />
<path d="M32513 24239
L32513 24109
" />
<path d="M29986 25140
L29986 25010
" />
<path d="M32513 25140
L29986 25140
" />
<path d="M32513 25010
L32513 25140
" />
<path d="M30135 19361
L30265 19361
" />
<path d="M30265 19361
L30265 21888
" />
<path d="M30265 21888
L30135 21888
" />
<path d="M29364 19361
L29234 19361
" />
<path d="M29234 19361
L29234 21888
" />
<path d="M29234 21888
L29364 21888
" />
<path d="M26626 12826
L27150 12826
" />
<path d="M26626 13350
L26626 12826
" />
<path d="M26626 13850
L27673 13850
" />
<path d="M27673 13850
L27673 15873
" />
<path d="M26626 13850
L26626 15873
" />
<path d="M26626 15873
L27673 15873
" />
<path d="M26726 20101
L27250 20101
" />
<path d="M26726 20625
L26726 20101
" />
<path d="M26726 21125
L27773 21125
" />
<path d="M27773 21125
L27773 25148
" />
<path d="M26726 21125
L26726 25148
" />
<path d="M26726 25148
L27773 25148
" />
<path d="M33541.3 20896.7 A1016.21 1016.21 0.0 0 0 33335 21183 " />
<path d="M33322.3 22057.6 A1023.62 1023.62 0.0 0 0 34250 22648.6 " />
<path d="M34250 22648.6 A1023.62 1023.62 0.0 0 0 35177.7 22057.6 " />
<path d="M35165 21183 A1016.21 1016.21 0.0 0 0 34958.7 20896.7 " />
<path d="M34958 20896
L33541 20896
" />
</g>
<g style="fill:#000000; fill-opacity:0.0; 
stroke:#000000; stroke-width:59.0551; stroke-opacity:1; 
stroke-linecap:round; stroke-linejoin:round;">
<path d="M22118 19826
L22118 20107
L22100 20164
L22062 20201
L22006 20220
L21968 20220
" />
<path d="M22512 20220
L22287 20220
" />
<path d="M22399 20220
L22399 19826
L22362 19882
L22324 19920
L22287 19939
" />
<path d="M22118 21492
L22118 21773
L22100 21829
L22062 21867
L22006 21885
L21968 21885
" />
<path d="M22287 21529
L22306 21510
L22343 21492
L22437 21492
L22474 21510
L22493 21529
L22512 21567
L22512 21604
L22493 21660
L22268 21885
L22512 21885
" />
<path d="M38618 21326
L38618 21607
L38600 21664
L38562 21701
L38506 21720
L38468 21720
" />
<path d="M38768 21326
L39012 21326
L38881 21476
L38937 21476
L38974 21495
L38993 21514
L39012 21551
L39012 21645
L38993 21682
L38974 21701
L38937 21720
L38824 21720
L38787 21701
L38768 21682
" />
<path d="M22118 14826
L22118 15107
L22100 15164
L22062 15201
L22006 15220
L21968 15220
" />
<path d="M22474 14957
L22474 15220
" />
<path d="M22381 14807
L22287 15089
L22531 15089
" />
<path d="M32212 15915
L32175 15896
L32137 15859
L32081 15802
L32043 15784
L32006 15784
" />
<path d="M32025 15877
L31987 15859
L31950 15821
L31931 15746
L31931 15615
L31950 15540
L31987 15502
L32025 15484
L32100 15484
L32137 15502
L32175 15540
L32193 15615
L32193 15746
L32175 15821
L32137 15859
L32100 15877
L32025 15877
" />
<path d="M32343 15521
L32362 15502
L32399 15484
L32493 15484
L32531 15502
L32549 15521
L32568 15559
L32568 15596
L32549 15652
L32324 15877
L32568 15877
" />
<path d="M37212 15915
L37175 15896
L37137 15859
L37081 15802
L37043 15784
L37006 15784
" />
<path d="M37025 15877
L36987 15859
L36950 15821
L36931 15746
L36931 15615
L36950 15540
L36987 15502
L37025 15484
L37100 15484
L37137 15502
L37175 15540
L37193 15615
L37193 15746
L37175 15821
L37137 15859
L37100 15877
L37025 15877
" />
<path d="M37324 15484
L37568 15484
L37437 15634
L37493 15634
L37531 15652
L37549 15671
L37568 15709
L37568 15802
L37549 15840
L37531 15859
L37493 15877
L37381 15877
L37343 15859
L37324 15840
" />
<path d="M31184 25712
L31053 25525
" />
<path d="M30959 25712
L30959 25318
L31109 25318
L31146 25337
L31165 25356
L31184 25393
L31184 25450
L31165 25487
L31146 25506
L31109 25525
L30959 25525
" />
<path d="M31559 25712
L31334 25712
" />
<path d="M31446 25712
L31446 25318
L31409 25375
L31371 25412
L31334 25431
" />
<path d="M30837 20690
L30650 20821
" />
<path d="M30837 20915
L30443 20915
L30443 20765
L30462 20728
L30481 20709
L30518 20690
L30575 20690
L30612 20709
L30631 20728
L30650 20765
L30650 20915
" />
<path d="M30481 20540
L30462 20521
L30443 20484
L30443 20390
L30462 20353
L30481 20334
L30518 20315
L30556 20315
L30612 20334
L30837 20559
L30837 20315
" />
<path d="M26850 12217
L26850 12535
L26868 12573
L26887 12592
L26925 12610
L27000 12610
L27037 12592
L27056 12573
L27075 12535
L27075 12217
" />
<path d="M27468 12610
L27243 12610
" />
<path d="M27356 12610
L27356 12217
L27318 12273
L27281 12310
L27243 12329
" />
<path d="M26950 19492
L26950 19810
L26968 19848
L26987 19867
L27025 19885
L27100 19885
L27137 19867
L27156 19848
L27175 19810
L27175 19492
" />
<path d="M27343 19529
L27362 19510
L27399 19492
L27493 19492
L27531 19510
L27549 19529
L27568 19567
L27568 19604
L27549 19660
L27324 19885
L27568 19885
" />
<path d="M34212 23242
L34175 23223
L34137 23185
L34081 23129
L34043 23110
L34006 23110
" />
<path d="M34025 23204
L33987 23185
L33950 23148
L33931 23073
L33931 22942
L33950 22867
L33987 22829
L34025 22810
L34100 22810
L34137 22829
L34175 22867
L34193 22942
L34193 23073
L34175 23148
L34137 23185
L34100 23204
L34025 23204
" />
<path d="M34568 23204
L34343 23204
" />
<path d="M34456 23204
L34456 22810
L34418 22867
L34381 22904
L34343 22923
" />
</g> 
</svg>
