<?xml version="1.0" standalone="no"?>
 <!DOCTYPE svg PUBLIC "-//W3C//DTD SVG 1.1//EN" 
 "http://www.w3.org/Graphics/SVG/1.1/DTD/svg11.dtd"> 
<svg xmlns="http://www.w3.org/2000/svg" version="1.1" 
    width="29.7002cm" height="21.0007cm" viewBox="0 0 116930 82680 ">
<title>SVG Picture created as resetter-B.Cu.svg date 2018/12/30 15:55:50 </title>
  <desc>Picture generated by PCBNEW </desc>
<g style="fill:#000000; fill-opacity:1;stroke:#000000; stroke-opacity:1;
stroke-linecap:round; stroke-linejoin:round; "
 transform="translate(0 0) scale(1 1)">
</g>
<g style="fill:#000000; fill-opacity:0.0; 
stroke:#000000; stroke-width:-0.000393701; stroke-opacity:1; 
stroke-linecap:round; stroke-linejoin:round;">
</g>
<g style="fill:#000000; fill-opacity:0.0; 
stroke:#000000; stroke-width:669.291; stroke-opacity:1; 
stroke-linecap:round; stroke-linejoin:round;">
<path d="M22250 18125
L22250 18125
" />
</g>
<g style="fill:#000000; fill-opacity:0.0; 
stroke:#000000; stroke-width:0; stroke-opacity:1; 
stroke-linecap:round; stroke-linejoin:round;">
</g>
<g style="fill:#000000; fill-opacity:1.0; 
stroke:#000000; stroke-width:0; stroke-opacity:1; 
stroke-linecap:round; stroke-linejoin:round;">
<polyline style="fill-rule:evenodd;"
points="22584,18790
22584,19459
21915,19459
21915,18790
22584,18790
" /> 
<polyline style="fill-rule:evenodd;"
points="21915,22959
21915,22290
22584,22290
22584,22959
21915,22959
" /> 
<polyline style="fill-rule:evenodd;"
points="39084,20290
39084,20959
38415,20959
38415,20290
39084,20290
" /> 
</g>
<g style="fill:#000000; fill-opacity:1.0; 
stroke:#000000; stroke-width:669.291; stroke-opacity:1; 
stroke-linecap:round; stroke-linejoin:round;">
</g>
<g style="fill:#000000; fill-opacity:0.0; 
stroke:#000000; stroke-width:669.291; stroke-opacity:1; 
stroke-linecap:round; stroke-linejoin:round;">
<path d="M38750 19625
L38750 19625
" />
<path d="M22250 13125
L22250 13125
" />
</g>
<g style="fill:#000000; fill-opacity:0.0; 
stroke:#000000; stroke-width:0; stroke-opacity:1; 
stroke-linecap:round; stroke-linejoin:round;">
</g>
<g style="fill:#000000; fill-opacity:1.0; 
stroke:#000000; stroke-width:0; stroke-opacity:1; 
stroke-linecap:round; stroke-linejoin:round;">
<polyline style="fill-rule:evenodd;"
points="22584,13790
22584,14459
21915,14459
21915,13790
22584,13790
" /> 
</g>
<g style="fill:#000000; fill-opacity:1.0; 
stroke:#000000; stroke-width:708.661; stroke-opacity:1; 
stroke-linecap:round; stroke-linejoin:round;">
</g>
<g style="fill:#000000; fill-opacity:0.0; 
stroke:#000000; stroke-width:708.661; stroke-opacity:1; 
stroke-linecap:round; stroke-linejoin:round;">
<path d="M33250 17125
L33250 17125
" />
<path d="M32250 17125
L32250 17125
" />
</g>
<g style="fill:#000000; fill-opacity:0.0; 
stroke:#000000; stroke-width:0; stroke-opacity:1; 
stroke-linecap:round; stroke-linejoin:round;">
</g>
<g style="fill:#000000; fill-opacity:1.0; 
stroke:#000000; stroke-width:0; stroke-opacity:1; 
stroke-linecap:round; stroke-linejoin:round;">
<polyline style="fill-rule:evenodd;"
points="30895,17479
30895,16770
31604,16770
31604,17479
30895,17479
" /> 
<polyline style="fill-rule:evenodd;"
points="35895,17479
35895,16770
36604,16770
36604,17479
35895,17479
" /> 
</g>
<g style="fill:#000000; fill-opacity:1.0; 
stroke:#000000; stroke-width:708.661; stroke-opacity:1; 
stroke-linecap:round; stroke-linejoin:round;">
</g>
<g style="fill:#000000; fill-opacity:0.0; 
stroke:#000000; stroke-width:708.661; stroke-opacity:1; 
stroke-linecap:round; stroke-linejoin:round;">
<path d="M37250 17125
L37250 17125
" />
<path d="M38250 17125
L38250 17125
" />
</g>
<g style="fill:#000000; fill-opacity:0.0; 
stroke:#000000; stroke-width:629.921; stroke-opacity:1; 
stroke-linecap:round; stroke-linejoin:round;">
<path d="M29750 24625
L29750 24625
" />
</g>
<g style="fill:#000000; fill-opacity:1.0; 
stroke:#000000; stroke-width:0; stroke-opacity:1; 
stroke-linecap:round; stroke-linejoin:round;">
<circle cx="32750" cy="24625" r="314.961" /> 
</g>
<g style="fill:#000000; fill-opacity:1.0; 
stroke:#000000; stroke-width:39.3701; stroke-opacity:1; 
stroke-linecap:round; stroke-linejoin:round;">
</g>
<g style="fill:#000000; fill-opacity:1.0; 
stroke:#000000; stroke-width:0; stroke-opacity:1; 
stroke-linecap:round; stroke-linejoin:round;">
<circle cx="29750" cy="19125" r="314.961" /> 
</g>
<g style="fill:#000000; fill-opacity:1.0; 
stroke:#000000; stroke-width:39.3701; stroke-opacity:1; 
stroke-linecap:round; stroke-linejoin:round;">
</g>
<g style="fill:#000000; fill-opacity:1.0; 
stroke:#000000; stroke-width:629.921; stroke-opacity:1; 
stroke-linecap:round; stroke-linejoin:round;">
</g>
<g style="fill:#000000; fill-opacity:0.0; 
stroke:#000000; stroke-width:629.921; stroke-opacity:1; 
stroke-linecap:round; stroke-linejoin:round;">
<path d="M29750 22125
L29750 22125
" />
</g>
<g style="fill:#000000; fill-opacity:0.0; 
stroke:#000000; stroke-width:669.291; stroke-opacity:1; 
stroke-linecap:round; stroke-linejoin:round;">
<path d="M27150 15350
L27150 15350
" />
<path d="M27150 14350
L27150 14350
" />
</g>
<g style="fill:#000000; fill-opacity:0.0; 
stroke:#000000; stroke-width:0; stroke-opacity:1; 
stroke-linecap:round; stroke-linejoin:round;">
</g>
<g style="fill:#000000; fill-opacity:1.0; 
stroke:#000000; stroke-width:0; stroke-opacity:1; 
stroke-linecap:round; stroke-linejoin:round;">
<polyline style="fill-rule:evenodd;"
points="26815,13684
26815,13015
27484,13015
27484,13684
26815,13684
" /> 
</g>
<g style="fill:#000000; fill-opacity:1.0; 
stroke:#000000; stroke-width:669.291; stroke-opacity:1; 
stroke-linecap:round; stroke-linejoin:round;">
</g>
<g style="fill:#000000; fill-opacity:0.0; 
stroke:#000000; stroke-width:669.291; stroke-opacity:1; 
stroke-linecap:round; stroke-linejoin:round;">
<path d="M27250 24625
L27250 24625
" />
<path d="M27250 23625
L27250 23625
" />
<path d="M27250 22625
L27250 22625
" />
<path d="M27250 21625
L27250 21625
" />
</g>
<g style="fill:#000000; fill-opacity:0.0; 
stroke:#000000; stroke-width:0; stroke-opacity:1; 
stroke-linecap:round; stroke-linejoin:round;">
</g>
<g style="fill:#000000; fill-opacity:1.0; 
stroke:#000000; stroke-width:0; stroke-opacity:1; 
stroke-linecap:round; stroke-linejoin:round;">
<polyline style="fill-rule:evenodd;"
points="26915,20959
26915,20290
27584,20290
27584,20959
26915,20959
" /> 
<polyline style="fill-rule:evenodd;"
points="34950,21325
35549,21325
35549,21924
34950,21924
34950,21325
" /> 
<circle cx="33250" cy="21625" r="299.213" /> 
</g>
<g style="fill:#000000; fill-opacity:1.0; 
stroke:#000000; stroke-width:39.3701; stroke-opacity:1; 
stroke-linecap:round; stroke-linejoin:round;">
</g>
<g style="fill:#000000; fill-opacity:1.0; 
stroke:#000000; stroke-width:0; stroke-opacity:1; 
stroke-linecap:round; stroke-linejoin:round;">
<circle cx="34250" cy="21625" r="299.213" /> 
</g>
<g style="fill:#000000; fill-opacity:1.0; 
stroke:#000000; stroke-width:39.3701; stroke-opacity:1; 
stroke-linecap:round; stroke-linejoin:round;">
</g>
<g style="fill:#000000; fill-opacity:1.0; 
stroke:#000000; stroke-width:900; stroke-opacity:1; 
stroke-linecap:round; stroke-linejoin:round;">
</g>
<g style="fill:#000000; fill-opacity:0.0; 
stroke:#000000; stroke-width:900; stroke-opacity:1; 
stroke-linecap:round; stroke-linejoin:round;">
<path d="M22250 15059
L22815 15625
" />
<path d="M22250 14125
L22250 15059
" />
<path d="M22250 16190
L22815 15625
" />
<path d="M22250 18125
L22250 16190
" />
<path d="M24750 20125
L24750 15625
" />
<path d="M26250 21625
L24750 20125
" />
<path d="M27250 21625
L26250 21625
" />
<path d="M22815 15625
L24750 15625
" />
<path d="M21750 15625
L22815 15625
" />
<path d="M20750 16625
L21750 15625
" />
<path d="M20750 24625
L20750 16625
" />
<path d="M22750 26625
L20750 24625
" />
<path d="M37750 21625
L38750 20625
" />
<path d="M22750 26625
L33750 26625
" />
<path d="M36250 24125
L36250 21625
" />
<path d="M33750 26625
L36250 24125
" />
<path d="M36250 21625
L37750 21625
" />
<path d="M36250 21625
L35250 21625
" />
<path d="M26025 14350
L24750 15625
" />
<path d="M27150 14350
L26025 14350
" />
<path d="M22250 20059
L22250 19125
" />
<path d="M26750 22625
L26250 23125
" />
<path d="M27250 22625
L26750 22625
" />
<path d="M26250 23125
L25750 23125
" />
<path d="M25750 23125
L23250 20625
" />
<path d="M22815 20625
L22250 20059
" />
<path d="M23250 20625
L22815 20625
" />
<path d="M23184 22625
L25184 24625
" />
<path d="M22250 22625
L23184 22625
" />
<path d="M25184 24625
L27250 24625
" />
<path d="M37250 18125
L38750 19625
" />
<path d="M37250 17125
L37250 18125
" />
<path d="M32250 17125
L32250 15125
" />
<path d="M29250 18625
L29750 19125
" />
<path d="M28050 12700
L29250 13900
" />
<path d="M29250 13900
L29250 18625
" />
<path d="M27600 12700
L28050 12700
" />
<path d="M27150 13350
L27150 13150
" />
<path d="M27150 13150
L27600 12700
" />
<path d="M30475 15125
L29250 13900
" />
<path d="M32250 15125
L30475 15125
" />
<path d="M27150 13350
L27150 13050
" />
<path d="M27150 13050
L26700 12600
" />
<path d="M26700 12600
L22775 12600
" />
<path d="M22775 12600
L22250 13125
" />
<path d="M30250 22625
L29750 22125
" />
<path d="M31750 22625
L30250 22625
" />
<path d="M31250 21125
L32250 22125
" />
<path d="M32250 22125
L31750 22625
" />
<path d="M31250 18125
L31250 21125
" />
<path d="M31250 17125
L31250 18125
" />
<path d="M31750 18125
L32250 18625
" />
</g>
<g style="fill:#000000; fill-opacity:0.0; 
stroke:#000000; stroke-width:600; stroke-opacity:1; 
stroke-linecap:round; stroke-linejoin:round;">
<path d="M31250 18125
L31750 18125
" />
</g>
<g style="fill:#000000; fill-opacity:0.0; 
stroke:#000000; stroke-width:900; stroke-opacity:1; 
stroke-linecap:round; stroke-linejoin:round;">
<path d="M32750 22125
L33250 21625
" />
<path d="M32250 22125
L32750 22125
" />
<path d="M32250 18625
L34000 18625
" />
<path d="M34000 18625
L35500 17125
" />
<path d="M35500 17125
L36250 17125
" />
<path d="M32750 24625
L33750 24625
" />
<path d="M33750 24625
L34250 24125
" />
<path d="M34250 23625
L34250 21625
" />
<path d="M34250 23625
L34250 24125
" />
<path d="M38250 16125
L38250 17125
" />
<path d="M37250 15125
L38250 16125
" />
<path d="M33604 16770
L33604 16520
" />
<path d="M33250 17125
L33604 16770
" />
<path d="M35000 15125
L37250 15125
" />
<path d="M33604 16520
L35000 15125
" />
<path d="M28750 23625
L29750 24625
" />
<path d="M27250 23625
L28750 23625
" />
<path d="M27150 20525
L27250 20625
" />
<path d="M27150 15350
L27150 20525
" />
</g> 
</svg>
