M48
;DRILL file {KiCad 5.0.0-fee4fd1~65~ubuntu17.10.1} date Fri Dec 28 18:32:37 2018
;FORMAT={-:-/ absolute / inch / decimal}
FMAT,2
INCH,TZ
T1C0.0315
T2C0.0394
T3C0.0866
%
G90
G05
M72
T1
X2.975Y-2.4625
X3.275Y-2.4625
X3.325Y-2.1625
X3.425Y-2.1625
X3.525Y-2.1625
X2.975Y-1.9125
X2.975Y-2.2125
T2
X3.875Y-1.9625
X3.875Y-2.0625
X3.125Y-1.7125
X3.225Y-1.7125
X3.325Y-1.7125
X2.225Y-1.3125
X2.225Y-1.4125
X2.725Y-1.4625
X2.725Y-1.5625
X2.725Y-1.6625
X2.725Y-2.0625
X2.725Y-2.1625
X2.725Y-2.2625
X2.725Y-2.3625
X2.725Y-2.4625
X2.225Y-2.2625
X2.225Y-1.8125
X2.225Y-1.9125
X3.625Y-1.7125
X3.725Y-1.7125
X3.825Y-1.7125
T3
X1.8Y-1.175
X3.8Y-2.675
X3.8Y-1.175
X1.8Y-2.675
T0
M30
