G04 #@! TF.GenerationSoftware,KiCad,Pcbnew,5.0.0-fee4fd1~65~ubuntu17.10.1*
G04 #@! TF.CreationDate,2018-12-28T18:32:25-05:00*
G04 #@! TF.ProjectId,resetter,72657365747465722E6B696361645F70,rev?*
G04 #@! TF.SameCoordinates,Original*
G04 #@! TF.FileFunction,Copper,L2,Bot,Signal*
G04 #@! TF.FilePolarity,Positive*
%FSLAX46Y46*%
G04 Gerber Fmt 4.6, Leading zero omitted, Abs format (unit mm)*
G04 Created by KiCad (PCBNEW 5.0.0-fee4fd1~65~ubuntu17.10.1) date Fri Dec 28 18:32:25 2018*
%MOMM*%
%LPD*%
G01*
G04 APERTURE LIST*
G04 #@! TA.AperFunction,ComponentPad*
%ADD10O,1.700000X1.700000*%
G04 #@! TD*
G04 #@! TA.AperFunction,ComponentPad*
%ADD11R,1.700000X1.700000*%
G04 #@! TD*
G04 #@! TA.AperFunction,ComponentPad*
%ADD12O,1.800000X1.800000*%
G04 #@! TD*
G04 #@! TA.AperFunction,ComponentPad*
%ADD13R,1.800000X1.800000*%
G04 #@! TD*
G04 #@! TA.AperFunction,ComponentPad*
%ADD14O,1.600000X1.600000*%
G04 #@! TD*
G04 #@! TA.AperFunction,ComponentPad*
%ADD15C,1.600000*%
G04 #@! TD*
G04 #@! TA.AperFunction,ComponentPad*
%ADD16R,1.520000X1.520000*%
G04 #@! TD*
G04 #@! TA.AperFunction,ComponentPad*
%ADD17C,1.520000*%
G04 #@! TD*
G04 #@! TA.AperFunction,ComponentPad*
%ADD18C,4.400000*%
G04 #@! TD*
G04 #@! TA.AperFunction,Conductor*
%ADD19C,2.286000*%
G04 #@! TD*
G04 #@! TA.AperFunction,Conductor*
%ADD20C,0.431800*%
G04 #@! TD*
G04 #@! TA.AperFunction,Conductor*
%ADD21C,1.524000*%
G04 #@! TD*
G04 APERTURE END LIST*
D10*
G04 #@! TO.P,J1,2*
G04 #@! TO.N,GND*
X56515000Y-46037500D03*
D11*
G04 #@! TO.P,J1,1*
G04 #@! TO.N,Net-(J1-Pad1)*
X56515000Y-48577500D03*
G04 #@! TD*
G04 #@! TO.P,J2,1*
G04 #@! TO.N,Net-(J2-Pad1)*
X56515000Y-57467500D03*
G04 #@! TD*
G04 #@! TO.P,J3,1*
G04 #@! TO.N,GND*
X98425000Y-52387500D03*
D10*
G04 #@! TO.P,J3,2*
G04 #@! TO.N,Net-(J3-Pad2)*
X98425000Y-49847500D03*
G04 #@! TD*
G04 #@! TO.P,J4,2*
G04 #@! TO.N,Net-(J4-Pad2)*
X56515000Y-33337500D03*
D11*
G04 #@! TO.P,J4,1*
G04 #@! TO.N,GND*
X56515000Y-35877500D03*
G04 #@! TD*
D12*
G04 #@! TO.P,Q2,3*
G04 #@! TO.N,Net-(Q2-Pad3)*
X84455000Y-43497500D03*
G04 #@! TO.P,Q2,2*
G04 #@! TO.N,Net-(J4-Pad2)*
X81915000Y-43497500D03*
D13*
G04 #@! TO.P,Q2,1*
G04 #@! TO.N,Net-(Q1-Pad3)*
X79375000Y-43497500D03*
G04 #@! TD*
G04 #@! TO.P,Q3,1*
G04 #@! TO.N,Net-(Q1-Pad3)*
X92075000Y-43497500D03*
D12*
G04 #@! TO.P,Q3,2*
G04 #@! TO.N,Net-(J3-Pad2)*
X94615000Y-43497500D03*
G04 #@! TO.P,Q3,3*
G04 #@! TO.N,Net-(Q2-Pad3)*
X97155000Y-43497500D03*
G04 #@! TD*
D14*
G04 #@! TO.P,R1,2*
G04 #@! TO.N,Net-(R1-Pad2)*
X75565000Y-62547500D03*
D15*
G04 #@! TO.P,R1,1*
G04 #@! TO.N,Net-(Q1-Pad2)*
X83185000Y-62547500D03*
G04 #@! TD*
G04 #@! TO.P,R2,1*
G04 #@! TO.N,Net-(J4-Pad2)*
X75565000Y-48577500D03*
D14*
G04 #@! TO.P,R2,2*
G04 #@! TO.N,Net-(Q1-Pad3)*
X75565000Y-56197500D03*
G04 #@! TD*
D10*
G04 #@! TO.P,U1,3*
G04 #@! TO.N,Net-(U1-Pad3)*
X69215000Y-42227500D03*
G04 #@! TO.P,U1,2*
G04 #@! TO.N,GND*
X69215000Y-39687500D03*
D11*
G04 #@! TO.P,U1,1*
G04 #@! TO.N,Net-(J4-Pad2)*
X69215000Y-37147500D03*
G04 #@! TD*
D10*
G04 #@! TO.P,U2,5*
G04 #@! TO.N,Net-(J2-Pad1)*
X69215000Y-62547500D03*
G04 #@! TO.P,U2,4*
G04 #@! TO.N,Net-(R1-Pad2)*
X69215000Y-60007500D03*
G04 #@! TO.P,U2,3*
G04 #@! TO.N,Net-(J1-Pad1)*
X69215000Y-57467500D03*
G04 #@! TO.P,U2,2*
G04 #@! TO.N,GND*
X69215000Y-54927500D03*
D11*
G04 #@! TO.P,U2,1*
G04 #@! TO.N,Net-(U1-Pad3)*
X69215000Y-52387500D03*
G04 #@! TD*
D16*
G04 #@! TO.P,Q1,1*
G04 #@! TO.N,GND*
X89535000Y-54927500D03*
D17*
G04 #@! TO.P,Q1,3*
G04 #@! TO.N,Net-(Q1-Pad3)*
X84455000Y-54927500D03*
G04 #@! TO.P,Q1,2*
G04 #@! TO.N,Net-(Q1-Pad2)*
X86995000Y-54927500D03*
G04 #@! TD*
D18*
G04 #@! TO.P,MK1,1*
G04 #@! TO.N,N/C*
X45720000Y-29845000D03*
G04 #@! TD*
G04 #@! TO.P,MK2,1*
G04 #@! TO.N,N/C*
X96520000Y-67945000D03*
G04 #@! TD*
G04 #@! TO.P,MK3,1*
G04 #@! TO.N,N/C*
X96520000Y-29845000D03*
G04 #@! TD*
G04 #@! TO.P,MK4,1*
G04 #@! TO.N,N/C*
X45720000Y-67945000D03*
G04 #@! TD*
D19*
G04 #@! TO.N,GND*
X56515000Y-38251500D02*
X57951000Y-39687500D01*
X56515000Y-35877500D02*
X56515000Y-38251500D01*
X56515000Y-41123500D02*
X57951000Y-39687500D01*
X56515000Y-46037500D02*
X56515000Y-41123500D01*
X62865000Y-51117500D02*
X62865000Y-39687500D01*
X66675000Y-54927500D02*
X62865000Y-51117500D01*
X69215000Y-54927500D02*
X66675000Y-54927500D01*
X57951000Y-39687500D02*
X62865000Y-39687500D01*
X62865000Y-39687500D02*
X69215000Y-39687500D01*
X55245000Y-39687500D02*
X57951000Y-39687500D01*
X52705000Y-42227500D02*
X55245000Y-39687500D01*
X52705000Y-62547500D02*
X52705000Y-42227500D01*
X57785000Y-67627500D02*
X52705000Y-62547500D01*
X95885000Y-54927500D02*
X98425000Y-52387500D01*
X57785000Y-67627500D02*
X85725000Y-67627500D01*
X92075000Y-61277500D02*
X92075000Y-54927500D01*
X85725000Y-67627500D02*
X92075000Y-61277500D01*
X92075000Y-54927500D02*
X95885000Y-54927500D01*
X92075000Y-54927500D02*
X89535000Y-54927500D01*
G04 #@! TO.N,Net-(J1-Pad1)*
X56515000Y-50951500D02*
X56515000Y-48577500D01*
X67945000Y-57467500D02*
X66675000Y-58737500D01*
X69215000Y-57467500D02*
X67945000Y-57467500D01*
X66675000Y-58737500D02*
X65405000Y-58737500D01*
X65405000Y-58737500D02*
X59055000Y-52387500D01*
X57951000Y-52387500D02*
X56515000Y-50951500D01*
X59055000Y-52387500D02*
X57951000Y-52387500D01*
G04 #@! TO.N,Net-(J2-Pad1)*
X58889000Y-57467500D02*
X63969000Y-62547500D01*
X56515000Y-57467500D02*
X58889000Y-57467500D01*
X63969000Y-62547500D02*
X69215000Y-62547500D01*
G04 #@! TO.N,Net-(J3-Pad2)*
X94615000Y-46037500D02*
X98425000Y-49847500D01*
X94615000Y-43497500D02*
X94615000Y-46037500D01*
D20*
G04 #@! TO.N,Net-(J4-Pad2)*
X69215000Y-35865700D02*
X69215000Y-37147500D01*
D19*
X69215000Y-34773500D02*
X69215000Y-37147500D01*
X67779000Y-33337500D02*
X69215000Y-34773500D01*
X56515000Y-33337500D02*
X67779000Y-33337500D01*
X75565000Y-48577500D02*
X74295000Y-47307500D01*
X74295000Y-47307500D02*
X74295000Y-39687500D01*
X71755000Y-37147500D02*
X69215000Y-37147500D01*
X81915000Y-43497500D02*
X81915000Y-38417500D01*
X81915000Y-38417500D02*
X73025000Y-38417500D01*
X74295000Y-39687500D02*
X73025000Y-38417500D01*
X73025000Y-38417500D02*
X71755000Y-37147500D01*
G04 #@! TO.N,Net-(Q1-Pad3)*
X76835000Y-57467500D02*
X75565000Y-56197500D01*
X80645000Y-57467500D02*
X76835000Y-57467500D01*
X79375000Y-53657500D02*
X81915000Y-56197500D01*
X81915000Y-56197500D02*
X80645000Y-57467500D01*
X79375000Y-46037500D02*
X79375000Y-53657500D01*
X79375000Y-43497500D02*
X79375000Y-46037500D01*
X80645000Y-46037500D02*
X81915000Y-47307500D01*
D21*
X79375000Y-46037500D02*
X80645000Y-46037500D01*
D19*
X83185000Y-56197500D02*
X84455000Y-54927500D01*
X81915000Y-56197500D02*
X83185000Y-56197500D01*
X81915000Y-47307500D02*
X86360000Y-47307500D01*
X86360000Y-47307500D02*
X90170000Y-43497500D01*
X90170000Y-43497500D02*
X92075000Y-43497500D01*
G04 #@! TO.N,Net-(Q1-Pad2)*
X83185000Y-62547500D02*
X85725000Y-62547500D01*
X85725000Y-62547500D02*
X86995000Y-61277500D01*
X86995000Y-60007500D02*
X86995000Y-54927500D01*
X86995000Y-60007500D02*
X86995000Y-61277500D01*
G04 #@! TO.N,Net-(Q2-Pad3)*
X97155000Y-40957500D02*
X97155000Y-43497500D01*
X94615000Y-38417500D02*
X97155000Y-40957500D01*
X85354999Y-42597501D02*
X85354999Y-41962501D01*
X84455000Y-43497500D02*
X85354999Y-42597501D01*
X88900000Y-38417500D02*
X94615000Y-38417500D01*
X85354999Y-41962501D02*
X88900000Y-38417500D01*
G04 #@! TO.N,Net-(R1-Pad2)*
X73025000Y-60007500D02*
X75565000Y-62547500D01*
X69215000Y-60007500D02*
X73025000Y-60007500D01*
G04 #@! TO.N,Net-(U1-Pad3)*
X69215000Y-52387500D02*
X69215000Y-42227500D01*
G04 #@! TD*
M02*
