G04 #@! TF.GenerationSoftware,KiCad,Pcbnew,5.0.0-fee4fd1~65~ubuntu17.10.1*
G04 #@! TF.CreationDate,2018-12-28T18:32:25-05:00*
G04 #@! TF.ProjectId,resetter,72657365747465722E6B696361645F70,rev?*
G04 #@! TF.SameCoordinates,Original*
G04 #@! TF.FileFunction,Legend,Top*
G04 #@! TF.FilePolarity,Positive*
%FSLAX46Y46*%
G04 Gerber Fmt 4.6, Leading zero omitted, Abs format (unit mm)*
G04 Created by KiCad (PCBNEW 5.0.0-fee4fd1~65~ubuntu17.10.1) date Fri Dec 28 18:32:25 2018*
%MOMM*%
%LPD*%
G01*
G04 APERTURE LIST*
%ADD10C,0.120000*%
%ADD11C,0.150000*%
G04 APERTURE END LIST*
D10*
G04 #@! TO.C,J1*
X57845000Y-49907500D02*
X56515000Y-49907500D01*
X57845000Y-48577500D02*
X57845000Y-49907500D01*
X57845000Y-47307500D02*
X55185000Y-47307500D01*
X55185000Y-47307500D02*
X55185000Y-44707500D01*
X57845000Y-47307500D02*
X57845000Y-44707500D01*
X57845000Y-44707500D02*
X55185000Y-44707500D01*
G04 #@! TO.C,J2*
X55185000Y-56137500D02*
X56515000Y-56137500D01*
X55185000Y-57467500D02*
X55185000Y-56137500D01*
X55185000Y-58737500D02*
X57845000Y-58737500D01*
X57845000Y-58737500D02*
X57845000Y-58797500D01*
X55185000Y-58737500D02*
X55185000Y-58797500D01*
X55185000Y-58797500D02*
X57845000Y-58797500D01*
G04 #@! TO.C,J3*
X99755000Y-48517500D02*
X97095000Y-48517500D01*
X99755000Y-51117500D02*
X99755000Y-48517500D01*
X97095000Y-51117500D02*
X97095000Y-48517500D01*
X99755000Y-51117500D02*
X97095000Y-51117500D01*
X99755000Y-52387500D02*
X99755000Y-53717500D01*
X99755000Y-53717500D02*
X98425000Y-53717500D01*
G04 #@! TO.C,J4*
X57845000Y-37207500D02*
X56515000Y-37207500D01*
X57845000Y-35877500D02*
X57845000Y-37207500D01*
X57845000Y-34607500D02*
X55185000Y-34607500D01*
X55185000Y-34607500D02*
X55185000Y-32007500D01*
X57845000Y-34607500D02*
X57845000Y-32007500D01*
X57845000Y-32007500D02*
X55185000Y-32007500D01*
G04 #@! TO.C,Q2*
X83766000Y-40877500D02*
X83766000Y-42387500D01*
X80065000Y-40877500D02*
X80065000Y-42387500D01*
X76795000Y-42387500D02*
X87035000Y-42387500D01*
X87035000Y-40877500D02*
X87035000Y-45518500D01*
X76795000Y-40877500D02*
X76795000Y-45518500D01*
X76795000Y-45518500D02*
X87035000Y-45518500D01*
X76795000Y-40877500D02*
X87035000Y-40877500D01*
G04 #@! TO.C,Q3*
X89495000Y-40877500D02*
X99735000Y-40877500D01*
X89495000Y-45518500D02*
X99735000Y-45518500D01*
X89495000Y-40877500D02*
X89495000Y-45518500D01*
X99735000Y-40877500D02*
X99735000Y-45518500D01*
X89495000Y-42387500D02*
X99735000Y-42387500D01*
X92765000Y-40877500D02*
X92765000Y-42387500D01*
X96466000Y-40877500D02*
X96466000Y-42387500D01*
G04 #@! TO.C,R1*
X76165000Y-61237500D02*
X76165000Y-61567500D01*
X82585000Y-61237500D02*
X76165000Y-61237500D01*
X82585000Y-61567500D02*
X82585000Y-61237500D01*
X76165000Y-63857500D02*
X76165000Y-63527500D01*
X82585000Y-63857500D02*
X76165000Y-63857500D01*
X82585000Y-63527500D02*
X82585000Y-63857500D01*
G04 #@! TO.C,R2*
X76545000Y-49177500D02*
X76875000Y-49177500D01*
X76875000Y-49177500D02*
X76875000Y-55597500D01*
X76875000Y-55597500D02*
X76545000Y-55597500D01*
X74585000Y-49177500D02*
X74255000Y-49177500D01*
X74255000Y-49177500D02*
X74255000Y-55597500D01*
X74255000Y-55597500D02*
X74585000Y-55597500D01*
G04 #@! TO.C,U1*
X67885000Y-35817500D02*
X69215000Y-35817500D01*
X67885000Y-37147500D02*
X67885000Y-35817500D01*
X67885000Y-38417500D02*
X70545000Y-38417500D01*
X70545000Y-38417500D02*
X70545000Y-43557500D01*
X67885000Y-38417500D02*
X67885000Y-43557500D01*
X67885000Y-43557500D02*
X70545000Y-43557500D01*
G04 #@! TO.C,U2*
X67885000Y-51057500D02*
X69215000Y-51057500D01*
X67885000Y-52387500D02*
X67885000Y-51057500D01*
X67885000Y-53657500D02*
X70545000Y-53657500D01*
X70545000Y-53657500D02*
X70545000Y-63877500D01*
X67885000Y-53657500D02*
X67885000Y-63877500D01*
X67885000Y-63877500D02*
X70545000Y-63877500D01*
G04 #@! TO.C,Q1*
X84670816Y-53804705D02*
G75*
G02X85195000Y-53077500I2324184J-1122795D01*
G01*
X84638600Y-56026307D02*
G75*
G03X86995000Y-57527500I2356400J1098807D01*
G01*
X89351400Y-56026307D02*
G75*
G02X86995000Y-57527500I-2356400J1098807D01*
G01*
X89319184Y-53804705D02*
G75*
G03X88795000Y-53077500I-2324184J-1122795D01*
G01*
X88795000Y-53077500D02*
X85195000Y-53077500D01*
G04 #@! TO.C,J1*
D11*
X56181666Y-50359880D02*
X56181666Y-51074166D01*
X56134047Y-51217023D01*
X56038809Y-51312261D01*
X55895952Y-51359880D01*
X55800714Y-51359880D01*
X57181666Y-51359880D02*
X56610238Y-51359880D01*
X56895952Y-51359880D02*
X56895952Y-50359880D01*
X56800714Y-50502738D01*
X56705476Y-50597976D01*
X56610238Y-50645595D01*
G04 #@! TO.C,J2*
X56181666Y-54589880D02*
X56181666Y-55304166D01*
X56134047Y-55447023D01*
X56038809Y-55542261D01*
X55895952Y-55589880D01*
X55800714Y-55589880D01*
X56610238Y-54685119D02*
X56657857Y-54637500D01*
X56753095Y-54589880D01*
X56991190Y-54589880D01*
X57086428Y-54637500D01*
X57134047Y-54685119D01*
X57181666Y-54780357D01*
X57181666Y-54875595D01*
X57134047Y-55018452D01*
X56562619Y-55589880D01*
X57181666Y-55589880D01*
G04 #@! TO.C,J3*
X98091666Y-54169880D02*
X98091666Y-54884166D01*
X98044047Y-55027023D01*
X97948809Y-55122261D01*
X97805952Y-55169880D01*
X97710714Y-55169880D01*
X98472619Y-54169880D02*
X99091666Y-54169880D01*
X98758333Y-54550833D01*
X98901190Y-54550833D01*
X98996428Y-54598452D01*
X99044047Y-54646071D01*
X99091666Y-54741309D01*
X99091666Y-54979404D01*
X99044047Y-55074642D01*
X98996428Y-55122261D01*
X98901190Y-55169880D01*
X98615476Y-55169880D01*
X98520238Y-55122261D01*
X98472619Y-55074642D01*
G04 #@! TO.C,J4*
X56181666Y-37659880D02*
X56181666Y-38374166D01*
X56134047Y-38517023D01*
X56038809Y-38612261D01*
X55895952Y-38659880D01*
X55800714Y-38659880D01*
X57086428Y-37993214D02*
X57086428Y-38659880D01*
X56848333Y-37612261D02*
X56610238Y-38326547D01*
X57229285Y-38326547D01*
G04 #@! TO.C,Q2*
X81819761Y-40425119D02*
X81724523Y-40377500D01*
X81629285Y-40282261D01*
X81486428Y-40139404D01*
X81391190Y-40091785D01*
X81295952Y-40091785D01*
X81343571Y-40329880D02*
X81248333Y-40282261D01*
X81153095Y-40187023D01*
X81105476Y-39996547D01*
X81105476Y-39663214D01*
X81153095Y-39472738D01*
X81248333Y-39377500D01*
X81343571Y-39329880D01*
X81534047Y-39329880D01*
X81629285Y-39377500D01*
X81724523Y-39472738D01*
X81772142Y-39663214D01*
X81772142Y-39996547D01*
X81724523Y-40187023D01*
X81629285Y-40282261D01*
X81534047Y-40329880D01*
X81343571Y-40329880D01*
X82153095Y-39425119D02*
X82200714Y-39377500D01*
X82295952Y-39329880D01*
X82534047Y-39329880D01*
X82629285Y-39377500D01*
X82676904Y-39425119D01*
X82724523Y-39520357D01*
X82724523Y-39615595D01*
X82676904Y-39758452D01*
X82105476Y-40329880D01*
X82724523Y-40329880D01*
G04 #@! TO.C,Q3*
X94519761Y-40425119D02*
X94424523Y-40377500D01*
X94329285Y-40282261D01*
X94186428Y-40139404D01*
X94091190Y-40091785D01*
X93995952Y-40091785D01*
X94043571Y-40329880D02*
X93948333Y-40282261D01*
X93853095Y-40187023D01*
X93805476Y-39996547D01*
X93805476Y-39663214D01*
X93853095Y-39472738D01*
X93948333Y-39377500D01*
X94043571Y-39329880D01*
X94234047Y-39329880D01*
X94329285Y-39377500D01*
X94424523Y-39472738D01*
X94472142Y-39663214D01*
X94472142Y-39996547D01*
X94424523Y-40187023D01*
X94329285Y-40282261D01*
X94234047Y-40329880D01*
X94043571Y-40329880D01*
X94805476Y-39329880D02*
X95424523Y-39329880D01*
X95091190Y-39710833D01*
X95234047Y-39710833D01*
X95329285Y-39758452D01*
X95376904Y-39806071D01*
X95424523Y-39901309D01*
X95424523Y-40139404D01*
X95376904Y-40234642D01*
X95329285Y-40282261D01*
X95234047Y-40329880D01*
X94948333Y-40329880D01*
X94853095Y-40282261D01*
X94805476Y-40234642D01*
G04 #@! TO.C,R1*
X79208333Y-65309880D02*
X78875000Y-64833690D01*
X78636904Y-65309880D02*
X78636904Y-64309880D01*
X79017857Y-64309880D01*
X79113095Y-64357500D01*
X79160714Y-64405119D01*
X79208333Y-64500357D01*
X79208333Y-64643214D01*
X79160714Y-64738452D01*
X79113095Y-64786071D01*
X79017857Y-64833690D01*
X78636904Y-64833690D01*
X80160714Y-65309880D02*
X79589285Y-65309880D01*
X79875000Y-65309880D02*
X79875000Y-64309880D01*
X79779761Y-64452738D01*
X79684523Y-64547976D01*
X79589285Y-64595595D01*
G04 #@! TO.C,R2*
X78327380Y-52554166D02*
X77851190Y-52887500D01*
X78327380Y-53125595D02*
X77327380Y-53125595D01*
X77327380Y-52744642D01*
X77375000Y-52649404D01*
X77422619Y-52601785D01*
X77517857Y-52554166D01*
X77660714Y-52554166D01*
X77755952Y-52601785D01*
X77803571Y-52649404D01*
X77851190Y-52744642D01*
X77851190Y-53125595D01*
X77422619Y-52173214D02*
X77375000Y-52125595D01*
X77327380Y-52030357D01*
X77327380Y-51792261D01*
X77375000Y-51697023D01*
X77422619Y-51649404D01*
X77517857Y-51601785D01*
X77613095Y-51601785D01*
X77755952Y-51649404D01*
X78327380Y-52220833D01*
X78327380Y-51601785D01*
G04 #@! TO.C,U1*
X68453095Y-34269880D02*
X68453095Y-35079404D01*
X68500714Y-35174642D01*
X68548333Y-35222261D01*
X68643571Y-35269880D01*
X68834047Y-35269880D01*
X68929285Y-35222261D01*
X68976904Y-35174642D01*
X69024523Y-35079404D01*
X69024523Y-34269880D01*
X70024523Y-35269880D02*
X69453095Y-35269880D01*
X69738809Y-35269880D02*
X69738809Y-34269880D01*
X69643571Y-34412738D01*
X69548333Y-34507976D01*
X69453095Y-34555595D01*
G04 #@! TO.C,U2*
X68453095Y-49509880D02*
X68453095Y-50319404D01*
X68500714Y-50414642D01*
X68548333Y-50462261D01*
X68643571Y-50509880D01*
X68834047Y-50509880D01*
X68929285Y-50462261D01*
X68976904Y-50414642D01*
X69024523Y-50319404D01*
X69024523Y-49509880D01*
X69453095Y-49605119D02*
X69500714Y-49557500D01*
X69595952Y-49509880D01*
X69834047Y-49509880D01*
X69929285Y-49557500D01*
X69976904Y-49605119D01*
X70024523Y-49700357D01*
X70024523Y-49795595D01*
X69976904Y-49938452D01*
X69405476Y-50509880D01*
X70024523Y-50509880D01*
G04 #@! TO.C,Q1*
X86899761Y-59035119D02*
X86804523Y-58987500D01*
X86709285Y-58892261D01*
X86566428Y-58749404D01*
X86471190Y-58701785D01*
X86375952Y-58701785D01*
X86423571Y-58939880D02*
X86328333Y-58892261D01*
X86233095Y-58797023D01*
X86185476Y-58606547D01*
X86185476Y-58273214D01*
X86233095Y-58082738D01*
X86328333Y-57987500D01*
X86423571Y-57939880D01*
X86614047Y-57939880D01*
X86709285Y-57987500D01*
X86804523Y-58082738D01*
X86852142Y-58273214D01*
X86852142Y-58606547D01*
X86804523Y-58797023D01*
X86709285Y-58892261D01*
X86614047Y-58939880D01*
X86423571Y-58939880D01*
X87804523Y-58939880D02*
X87233095Y-58939880D01*
X87518809Y-58939880D02*
X87518809Y-57939880D01*
X87423571Y-58082738D01*
X87328333Y-58177976D01*
X87233095Y-58225595D01*
G04 #@! TO.C,MK1*
X44410476Y-27097380D02*
X44410476Y-26097380D01*
X44743809Y-26811666D01*
X45077142Y-26097380D01*
X45077142Y-27097380D01*
X45553333Y-27097380D02*
X45553333Y-26097380D01*
X46124761Y-27097380D02*
X45696190Y-26525952D01*
X46124761Y-26097380D02*
X45553333Y-26668809D01*
X47077142Y-27097380D02*
X46505714Y-27097380D01*
X46791428Y-27097380D02*
X46791428Y-26097380D01*
X46696190Y-26240238D01*
X46600952Y-26335476D01*
X46505714Y-26383095D01*
G04 #@! TO.C,MK2*
X95210476Y-65197380D02*
X95210476Y-64197380D01*
X95543809Y-64911666D01*
X95877142Y-64197380D01*
X95877142Y-65197380D01*
X96353333Y-65197380D02*
X96353333Y-64197380D01*
X96924761Y-65197380D02*
X96496190Y-64625952D01*
X96924761Y-64197380D02*
X96353333Y-64768809D01*
X97305714Y-64292619D02*
X97353333Y-64245000D01*
X97448571Y-64197380D01*
X97686666Y-64197380D01*
X97781904Y-64245000D01*
X97829523Y-64292619D01*
X97877142Y-64387857D01*
X97877142Y-64483095D01*
X97829523Y-64625952D01*
X97258095Y-65197380D01*
X97877142Y-65197380D01*
G04 #@! TO.C,MK3*
X95210476Y-27097380D02*
X95210476Y-26097380D01*
X95543809Y-26811666D01*
X95877142Y-26097380D01*
X95877142Y-27097380D01*
X96353333Y-27097380D02*
X96353333Y-26097380D01*
X96924761Y-27097380D02*
X96496190Y-26525952D01*
X96924761Y-26097380D02*
X96353333Y-26668809D01*
X97258095Y-26097380D02*
X97877142Y-26097380D01*
X97543809Y-26478333D01*
X97686666Y-26478333D01*
X97781904Y-26525952D01*
X97829523Y-26573571D01*
X97877142Y-26668809D01*
X97877142Y-26906904D01*
X97829523Y-27002142D01*
X97781904Y-27049761D01*
X97686666Y-27097380D01*
X97400952Y-27097380D01*
X97305714Y-27049761D01*
X97258095Y-27002142D01*
G04 #@! TO.C,MK4*
X44410476Y-65197380D02*
X44410476Y-64197380D01*
X44743809Y-64911666D01*
X45077142Y-64197380D01*
X45077142Y-65197380D01*
X45553333Y-65197380D02*
X45553333Y-64197380D01*
X46124761Y-65197380D02*
X45696190Y-64625952D01*
X46124761Y-64197380D02*
X45553333Y-64768809D01*
X46981904Y-64530714D02*
X46981904Y-65197380D01*
X46743809Y-64149761D02*
X46505714Y-64864047D01*
X47124761Y-64864047D01*
G04 #@! TD*
M02*
